<?xml version="1.0" encoding="utf-8"?>
<!-- Generator: Adobe Illustrator 23.0.5, SVG Export Plug-In . SVG Version: 6.00 Build 0)  -->
<svg version="1.1" xmlns="http://www.w3.org/2000/svg" xmlns:xlink="http://www.w3.org/1999/xlink" x="0px" y="0px"
	 viewBox="0 0 550 84.31" style="enable-background:new 0 0 550 84.31;" xml:space="preserve">
<style type="text/css">
	.st0{display:none;}
	.st1{display:inline;}
	.st2{fill:#C7D2DA;}
	.st3{fill:#FFFFFF;}
	.st4{fill:none;stroke:#6AC3CC;stroke-miterlimit:10;}
	.st5{fill:#D2EBF8;}
	.st6{fill:#F3F9FD;}
	.st7{display:inline;fill:#FFFFFF;stroke:#6AC3CC;stroke-miterlimit:10;}
	.st8{display:inline;fill:#FFFFFF;stroke:#B99AC8;}
	.st9{fill:#E4E6E6;}
	.st10{fill:#FFD544;}
	.st11{fill:#1D1D1B;}
	.st12{fill:#808080;}
	.st13{fill:#67ACDD;}
	.st14{fill:#D4B276;}
	.st15{fill:none;stroke:#878787;stroke-width:0.6525;stroke-miterlimit:10;}
	.st16{fill:none;}
	.st17{fill:#E9CEA4;}
	.st18{fill:#95CCE7;}
	.st19{fill:none;stroke:#1D1D1B;stroke-width:2.8284;stroke-linecap:round;stroke-linejoin:round;stroke-miterlimit:10;}
	.st20{fill:none;stroke:#1D1D1B;stroke-width:3.7712;stroke-linecap:round;stroke-linejoin:round;stroke-miterlimit:10;}
	.st21{fill:none;stroke:#1D1D1B;stroke-width:0.9428;stroke-linecap:round;stroke-linejoin:round;stroke-miterlimit:10;}
	.st22{fill:none;stroke:#1D1D1B;stroke-width:0.9428;stroke-linecap:round;stroke-linejoin:round;}
	.st23{fill:none;stroke:#FFFFFF;stroke-width:0.9428;stroke-linecap:round;stroke-linejoin:round;stroke-miterlimit:10;}
	.st24{fill:none;stroke:#E9CEA4;stroke-width:0.9428;stroke-linecap:round;stroke-linejoin:round;stroke-miterlimit:10;}
	.st25{fill:none;stroke:#1D1D1B;stroke-width:2.4513;stroke-linejoin:round;stroke-miterlimit:10;}
	.st26{fill:#56B25B;}
	.st27{fill:#D4B388;}
	.st28{fill:#E9CEA3;}
	.st29{fill:#D4B489;}
	.st30{fill:none;stroke:#1D1D1B;stroke-width:3.0206;stroke-linecap:round;stroke-linejoin:round;stroke-miterlimit:10;}
	.st31{fill:none;stroke:#1D1D1B;stroke-width:4.0275;stroke-linecap:round;stroke-linejoin:round;stroke-miterlimit:10;}
	.st32{fill:#000100;}
	.st33{fill:none;stroke:#1D1D1B;stroke-width:0.6041;stroke-miterlimit:10;}
	.st34{fill:none;stroke:#000000;stroke-width:0.6041;stroke-miterlimit:10;}
	.st35{fill:#E0C49D;}
	.st36{fill:none;stroke:#E9CEA4;stroke-width:0.8499;stroke-miterlimit:10;}
	.st37{fill:#1D1D1B;stroke:#E9CEA4;stroke-width:0.8499;stroke-miterlimit:10;}
	.st38{fill:none;stroke:#1D1D1B;stroke-width:2.9745;stroke-linecap:round;stroke-linejoin:round;}
	.st39{fill:none;stroke:#1D1D1B;stroke-width:1.7935;stroke-miterlimit:10;}
	.st40{fill:none;stroke:#1D1D1B;stroke-width:1.2683;stroke-miterlimit:10;}
	.st41{fill:#1D1D1B;stroke:#1D1E1C;stroke-width:0.3224;}
	.st42{fill:none;stroke:#1D1E1C;stroke-width:0.2149;}
	.st43{fill:none;stroke:#1D1E1C;stroke-width:0.2858;}
	.st44{fill:#F08487;}
	.st45{fill:#FFCC00;}
	.st46{fill:none;stroke:#1D1D1B;stroke-width:0.75;}
	.st47{fill:#F08487;stroke:#FFFFFF;stroke-width:0.5;}
	.st48{fill:none;stroke:#1D1D1B;stroke-width:0.8399;stroke-miterlimit:10;stroke-dasharray:0.8399,2.0157;}
	.st49{fill:none;stroke:#F08487;stroke-width:1.6797;}
	.st50{fill:none;stroke:#E5E5E5;stroke-width:9;}
	.st51{fill:none;stroke:#E5E5E5;stroke-width:8;}
	.st52{fill:none;stroke:#FFFFFF;stroke-width:2;}
	.st53{fill:none;stroke:#CCCBCB;stroke-width:8;}
	.st54{fill:#E50046;}
	.st55{fill:none;stroke:#E5E5E5;stroke-width:13;}
	.st56{fill:none;stroke:#E5E5E5;stroke-width:4;}
	.st57{fill:none;stroke:#1D1D1B;stroke-width:0.6813;stroke-miterlimit:10;stroke-dasharray:0.6813,1.6352;}
	.st58{fill:none;stroke:#F08487;stroke-width:1.3627;}
	.st59{fill:none;stroke:#EBBD00;stroke-width:2.044;}
	.st60{fill:#EBBD00;}
	.st61{fill:#E7B100;}
	.st62{fill:#B2B2B2;}
	.st63{fill:none;stroke:#FFD544;stroke-width:2.3549;stroke-linecap:round;stroke-linejoin:round;}
	.st64{fill:none;stroke:#B1B1B1;stroke-width:2.3549;stroke-linecap:round;stroke-linejoin:round;}
	.st65{fill:#B1B1B1;}
	.st66{fill:none;stroke:#1D1D1B;stroke-width:1.8115;}
	.st67{fill:none;stroke:#E50046;stroke-width:0.7481;}
	.st68{fill:none;stroke:#E50046;stroke-width:0.75;}
	.st69{fill:none;stroke:#1D1D1B;stroke-width:0.7246;}
	.st70{fill:none;stroke:#1D1D1B;stroke-width:0.7246;stroke-dasharray:0.7206,2.1619;}
	.st71{fill:none;stroke:#1D1D1B;stroke-width:0.7246;stroke-dasharray:0.7329,2.1986;}
	.st72{fill:none;stroke:#1D1D1B;stroke-width:0.7246;stroke-dasharray:0.7246,2.1738;}
	.st73{fill:none;stroke:#B1B1B1;stroke-width:3;stroke-linecap:round;stroke-linejoin:round;}
	.st74{fill:none;stroke:#FFD544;stroke-width:3;stroke-linecap:round;stroke-linejoin:round;}
	.st75{fill:none;stroke:#575756;stroke-width:3.623;stroke-miterlimit:10;}
	.st76{fill:none;stroke:#1D1D1B;stroke-width:0.5434;}
	.st77{fill:none;stroke:#1D1D1B;stroke-width:0.9057;stroke-miterlimit:10;}
	.st78{fill:none;stroke:#1D1D1B;stroke-width:3.2193;stroke-linecap:round;stroke-linejoin:round;stroke-miterlimit:10;}
	.st79{fill:none;stroke:#1D1D1B;stroke-width:4.2924;stroke-linecap:round;stroke-linejoin:round;stroke-miterlimit:10;}
	.st80{fill:none;stroke:#E9CEA3;stroke-width:0.3623;stroke-miterlimit:10;}
	.st81{fill:none;stroke:#1D1E1C;stroke-width:0.6439;stroke-miterlimit:10;}
	.st82{fill:none;stroke:#1D1D1B;stroke-width:4.257;stroke-linecap:round;stroke-linejoin:round;stroke-miterlimit:10;}
	.st83{fill:#E0C49C;}
	.st84{fill:none;stroke:#E9CEA3;stroke-width:0.9057;stroke-miterlimit:10;}
	.st85{fill:#1D1D1B;stroke:#E9CEA3;stroke-width:0.9057;stroke-miterlimit:10;}
	.st86{fill:none;stroke:#1D1D1B;stroke-width:3.1701;stroke-linecap:round;stroke-linejoin:round;}
	.st87{fill:#1D1D1B;stroke:#E9CEA3;stroke-width:0.5434;stroke-miterlimit:10;}
	.st88{fill:none;stroke:#E9CEA3;stroke-width:0.5434;stroke-miterlimit:10;}
	.st89{fill:none;stroke:#000000;stroke-width:0.6439;stroke-miterlimit:10;}
	.st90{fill:#C4A880;}
	.st91{fill:#878787;}
	.st92{opacity:0.5;fill:#DADADA;}
	.st93{fill:#00A13A;}
	.st94{fill:#3395C1;}
	.st95{fill:none;stroke:#F08487;stroke-width:2.3549;stroke-linejoin:round;stroke-miterlimit:10;}
	.st96{fill:none;stroke:#56B25B;stroke-width:2.3549;stroke-linejoin:round;stroke-miterlimit:10;}
	.st97{fill:none;stroke:#95CCE7;stroke-width:2.3549;stroke-linejoin:round;stroke-miterlimit:10;}
	.st98{fill:none;stroke:#000000;stroke-width:0.75;}
	.st99{fill:none;stroke:#E42421;}
	.st100{fill:none;stroke:#000000;stroke-width:0.5;}
	.st101{fill:none;stroke:#1D1D1B;stroke-width:0.5;stroke-miterlimit:10;}
	.st102{fill:none;stroke:#989898;stroke-width:0.75;}
	.st103{clip-path:url(#SVGID_4_);}
	.st104{fill:url(#SVGID_5_);}
	.st105{fill:#E6B002;}
</style>
<g id="Capa_2" class="st0">
</g>
<g id="Capa_5" class="st0">
</g>
<g id="Graficoooo">
	<g>
		<path class="st11" d="M219.05,11.25v4h-2.3V3.88h3.88c1.12,0,2.02,0.35,2.69,1.05c0.67,0.7,1,1.6,1,2.72c0,1.12-0.33,2-0.99,2.64
			c-0.66,0.65-1.58,0.97-2.75,0.97H219.05z M219.05,9.34h1.58c0.44,0,0.78-0.14,1.02-0.43c0.24-0.29,0.36-0.7,0.36-1.25
			c0-0.57-0.12-1.02-0.37-1.36c-0.25-0.34-0.57-0.51-0.98-0.51h-1.6V9.34z"/>
		<path class="st11" d="M229.06,15.41c-1.14,0-2.02-0.34-2.66-1.02c-0.64-0.68-0.95-1.65-0.95-2.91v-0.67
			c0-1.33,0.29-2.36,0.88-3.09c0.58-0.72,1.42-1.09,2.51-1.09c1.06,0,1.86,0.34,2.4,1.02c0.54,0.68,0.81,1.68,0.82,3.02v1.08h-4.4
			c0.03,0.63,0.17,1.09,0.41,1.38c0.24,0.29,0.62,0.44,1.13,0.44c0.74,0,1.36-0.25,1.85-0.76l0.87,1.34
			c-0.27,0.38-0.66,0.68-1.18,0.91S229.66,15.41,229.06,15.41z M227.66,10.22h2.21v-0.2c-0.01-0.5-0.09-0.89-0.25-1.15
			c-0.16-0.26-0.43-0.39-0.81-0.39c-0.39,0-0.67,0.14-0.84,0.41C227.8,9.17,227.7,9.61,227.66,10.22z"/>
		<path class="st11" d="M233,10.77c0-1.38,0.23-2.42,0.7-3.1c0.47-0.68,1.15-1.02,2.05-1.02c0.65,0,1.19,0.28,1.62,0.84V3.25h2.23
			v12h-2.01l-0.1-0.86c-0.45,0.68-1.04,1.02-1.75,1.02c-0.89,0-1.56-0.34-2.03-1.02c-0.47-0.68-0.7-1.67-0.71-2.98V10.77z
			 M235.22,11.32c0,0.83,0.09,1.42,0.27,1.75c0.18,0.33,0.48,0.5,0.9,0.5c0.44,0,0.77-0.2,0.99-0.59V9.12
			c-0.22-0.42-0.55-0.62-0.98-0.62c-0.41,0-0.7,0.16-0.89,0.49s-0.28,0.91-0.28,1.75V11.32z"/>
		<path class="st11" d="M245.4,8.93l-0.73-0.06c-0.6,0-1.01,0.27-1.23,0.8v5.59h-2.22V6.8h2.09l0.06,0.91
			c0.35-0.71,0.83-1.07,1.45-1.07c0.25,0,0.45,0.03,0.61,0.1L245.4,8.93z"/>
		<path class="st11" d="M245.99,10.75c0-1.28,0.3-2.29,0.91-3.02c0.6-0.73,1.44-1.09,2.51-1.09c1.08,0,1.92,0.37,2.52,1.09
			c0.6,0.73,0.91,1.74,0.91,3.03v0.54c0,1.29-0.3,2.29-0.9,3.02c-0.6,0.72-1.44,1.09-2.52,1.09c-1.08,0-1.93-0.36-2.53-1.09
			s-0.9-1.74-0.9-3.03V10.75z M248.21,11.31c0,1.51,0.4,2.27,1.21,2.27c0.74,0,1.15-0.63,1.2-1.89l0.01-0.93
			c0-0.77-0.11-1.34-0.32-1.71c-0.21-0.37-0.52-0.56-0.91-0.56c-0.38,0-0.67,0.19-0.88,0.56c-0.21,0.37-0.32,0.94-0.32,1.71V11.31z"
			/>
		<path class="st11" d="M261.71,12.13l1.91-8.25h2.56l-3.28,11.38h-2.39l-3.26-11.38h2.55L261.71,12.13z"/>
		<path class="st11" d="M270.81,15.25c-0.06-0.13-0.12-0.35-0.19-0.66c-0.4,0.54-0.93,0.81-1.61,0.81c-0.71,0-1.3-0.23-1.76-0.7
			c-0.47-0.47-0.7-1.08-0.7-1.82c0-0.88,0.28-1.57,0.85-2.05c0.56-0.48,1.38-0.73,2.44-0.74h0.67V9.41c0-0.38-0.07-0.65-0.2-0.8
			c-0.13-0.16-0.32-0.23-0.57-0.23c-0.55,0-0.83,0.32-0.83,0.97h-2.21c0-0.78,0.29-1.43,0.88-1.93s1.33-0.76,2.22-0.76
			c0.93,0,1.64,0.24,2.15,0.72c0.51,0.48,0.76,1.17,0.76,2.07v3.98c0.01,0.73,0.11,1.3,0.31,1.71v0.13H270.81z M269.5,13.68
			c0.24,0,0.45-0.05,0.62-0.15c0.17-0.1,0.3-0.22,0.38-0.35v-1.76h-0.53c-0.38,0-0.67,0.12-0.89,0.36
			c-0.22,0.24-0.32,0.56-0.32,0.96C268.77,13.36,269.01,13.68,269.5,13.68z"/>
		<path class="st11" d="M276.64,15.25h-2.22v-12h2.22V15.25z"/>
		<path class="st11" d="M280.67,15.25h-2.22v-12h2.22V15.25z"/>
		<path class="st11" d="M284.76,15.25h-2.21V6.8h2.21V15.25z M284.12,3.37h2.48l-2.17,2.42h-1.84L284.12,3.37z"/>
		<path class="st11" d="M288.6,6.8l0.06,0.84c0.5-0.66,1.15-0.99,1.96-0.99c1.45,0,2.2,1.02,2.24,3.05v5.55h-2.22V9.86
			c0-0.48-0.07-0.83-0.21-1.04c-0.14-0.22-0.39-0.32-0.75-0.32c-0.4,0-0.71,0.21-0.94,0.62v6.14h-2.22V6.8H288.6z"/>
		<path class="st11" d="M295.11,18.12l-1.18-0.62l0.3-0.55c0.33-0.62,0.5-1.23,0.52-1.86v-1.76h1.92l-0.01,1.57
			c-0.01,0.55-0.15,1.12-0.42,1.72C295.96,17.21,295.58,17.71,295.11,18.12z"/>
		<path class="st11" d="M304.11,4.75V6.8h1.27v1.12h-1.27v5.25c0,0.33,0.05,0.59,0.16,0.76s0.3,0.26,0.56,0.26
			c0.18,0,0.37-0.03,0.55-0.09l-0.02,1.17c-0.31,0.1-0.63,0.16-0.96,0.16c-0.55,0-0.96-0.2-1.25-0.59
			c-0.29-0.39-0.43-0.94-0.43-1.66V7.92h-1.29V6.8h1.29V4.75H304.11z"/>
		<path class="st11" d="M310.05,15.41c-1.05,0-1.86-0.31-2.42-0.94c-0.56-0.63-0.85-1.55-0.86-2.76v-1.02
			c0-1.26,0.27-2.25,0.82-2.96c0.55-0.72,1.32-1.07,2.3-1.07c0.99,0,1.73,0.32,2.22,0.95c0.49,0.63,0.74,1.61,0.75,2.95v0.91h-4.72
			v0.2c0,0.91,0.17,1.57,0.51,1.98c0.34,0.41,0.83,0.62,1.47,0.62c0.41,0,0.76-0.08,1.07-0.23c0.31-0.15,0.6-0.4,0.87-0.73
			l0.72,0.88C312.19,14.99,311.28,15.41,310.05,15.41z M309.89,7.83c-0.57,0-1,0.2-1.27,0.59c-0.28,0.39-0.43,1-0.47,1.83h3.33
			v-0.19c-0.04-0.8-0.18-1.38-0.43-1.72C310.79,8,310.41,7.83,309.89,7.83z"/>
		<path class="st11" d="M316.96,9.89l1.45-3.09h1.6l-2.3,4.18l2.35,4.27h-1.59l-1.49-3.16l-1.5,3.16h-1.59l2.35-4.27l-2.29-4.18
			h1.59L316.96,9.89z"/>
		<path class="st11" d="M323.35,4.75V6.8h1.27v1.12h-1.27v5.25c0,0.33,0.05,0.59,0.16,0.76s0.3,0.26,0.56,0.26
			c0.18,0,0.37-0.03,0.55-0.09l-0.02,1.17c-0.31,0.1-0.63,0.16-0.96,0.16c-0.55,0-0.96-0.2-1.25-0.59
			c-0.29-0.39-0.43-0.94-0.43-1.66V7.92h-1.29V6.8h1.29V4.75H323.35z"/>
		<path class="st11" d="M325.82,10.64c0-1.23,0.3-2.2,0.89-2.92c0.6-0.72,1.38-1.07,2.36-1.07c0.98,0,1.77,0.35,2.36,1.05
			c0.6,0.7,0.9,1.65,0.92,2.85v0.89c0,1.22-0.3,2.19-0.89,2.91c-0.59,0.71-1.39,1.07-2.38,1.07c-0.98,0-1.76-0.35-2.36-1.04
			c-0.59-0.69-0.9-1.63-0.92-2.81V10.64z M327.2,11.43c0,0.87,0.17,1.55,0.51,2.05c0.34,0.5,0.8,0.75,1.38,0.75
			c1.22,0,1.85-0.88,1.88-2.64v-0.95c0-0.86-0.17-1.55-0.52-2.05c-0.34-0.5-0.8-0.75-1.38-0.75c-0.57,0-1.02,0.25-1.36,0.75
			c-0.34,0.5-0.51,1.18-0.51,2.04V11.43z"/>
		<path class="st11" d="M199.13,35.1h-1.14v4.16h-2.3V27.88h3.66c1.15,0,2.04,0.3,2.67,0.89c0.63,0.6,0.94,1.44,0.94,2.54
			c0,1.51-0.55,2.57-1.65,3.17l1.99,4.66v0.11h-2.47L199.13,35.1z M197.99,33.18h1.3c0.46,0,0.8-0.15,1.03-0.46
			c0.23-0.3,0.34-0.71,0.34-1.22c0-1.14-0.45-1.71-1.34-1.71h-1.34V33.18z"/>
		<path class="st11" d="M208.45,39.25c-0.06-0.13-0.12-0.35-0.19-0.66c-0.4,0.54-0.93,0.81-1.61,0.81c-0.71,0-1.3-0.23-1.76-0.7
			c-0.47-0.47-0.7-1.08-0.7-1.82c0-0.88,0.28-1.57,0.85-2.05c0.56-0.48,1.38-0.73,2.44-0.74h0.67v-0.68c0-0.38-0.07-0.65-0.2-0.8
			c-0.13-0.16-0.32-0.23-0.57-0.23c-0.55,0-0.83,0.32-0.83,0.97h-2.21c0-0.78,0.29-1.43,0.88-1.93s1.33-0.76,2.22-0.76
			c0.93,0,1.64,0.24,2.15,0.72c0.51,0.48,0.76,1.17,0.76,2.07v3.98c0.01,0.73,0.11,1.3,0.31,1.71v0.13H208.45z M207.14,37.68
			c0.24,0,0.45-0.05,0.62-0.15c0.17-0.1,0.3-0.22,0.38-0.35v-1.76h-0.53c-0.38,0-0.67,0.12-0.89,0.36
			c-0.22,0.24-0.32,0.56-0.32,0.96C206.41,37.36,206.65,37.68,207.14,37.68z"/>
		<path class="st11" d="M216.12,38.48c-0.46,0.62-1.07,0.93-1.84,0.93c-0.78,0-1.36-0.27-1.77-0.8c-0.4-0.53-0.6-1.31-0.6-2.33V30.8
			h2.21v5.53c0.01,0.82,0.28,1.23,0.82,1.23c0.5,0,0.87-0.22,1.09-0.66V30.8h2.23v8.45h-2.08L216.12,38.48z M215.5,27.25h2.48
			l-2.17,2.42h-1.84L215.5,27.25z"/>
		<path class="st11" d="M222.16,39.25h-2.22v-12h2.22V39.25z"/>
		<path class="st11" d="M235.38,35.46c-0.06,1.3-0.42,2.28-1.09,2.95c-0.67,0.67-1.62,1-2.84,1c-1.29,0-2.27-0.42-2.96-1.27
			c-0.69-0.85-1.03-2.05-1.03-3.62V32.6c0-1.56,0.35-2.77,1.06-3.61c0.71-0.85,1.69-1.27,2.95-1.27c1.24,0,2.18,0.35,2.82,1.04
			c0.64,0.69,1.01,1.69,1.1,2.98h-2.3c-0.02-0.8-0.14-1.36-0.37-1.66s-0.64-0.46-1.25-0.46c-0.61,0-1.05,0.21-1.3,0.64
			c-0.26,0.43-0.39,1.14-0.41,2.12v2.15c0,1.13,0.13,1.91,0.38,2.33c0.25,0.42,0.69,0.63,1.3,0.63c0.6,0,1.02-0.15,1.25-0.44
			c0.23-0.29,0.36-0.83,0.39-1.6H235.38z"/>
		<path class="st11" d="M240.7,39.25c-0.06-0.13-0.12-0.35-0.19-0.66c-0.4,0.54-0.93,0.81-1.61,0.81c-0.71,0-1.3-0.23-1.76-0.7
			c-0.47-0.47-0.7-1.08-0.7-1.82c0-0.88,0.28-1.57,0.85-2.05c0.56-0.48,1.38-0.73,2.44-0.74h0.67v-0.68c0-0.38-0.07-0.65-0.2-0.8
			c-0.13-0.16-0.32-0.23-0.57-0.23c-0.55,0-0.83,0.32-0.83,0.97h-2.21c0-0.78,0.29-1.43,0.88-1.93s1.33-0.76,2.22-0.76
			c0.93,0,1.64,0.24,2.15,0.72c0.51,0.48,0.76,1.17,0.76,2.07v3.98c0.01,0.73,0.11,1.3,0.31,1.71v0.13H240.7z M239.39,37.68
			c0.24,0,0.45-0.05,0.62-0.15c0.17-0.1,0.3-0.22,0.38-0.35v-1.76h-0.53c-0.38,0-0.67,0.12-0.89,0.36
			c-0.22,0.24-0.32,0.56-0.32,0.96C238.66,37.36,238.9,37.68,239.39,37.68z"/>
		<path class="st11" d="M246.29,30.8l0.06,0.78c0.49-0.62,1.15-0.94,1.96-0.94c0.84,0,1.44,0.38,1.79,1.14
			c0.48-0.76,1.17-1.14,2.07-1.14c1.48,0,2.24,1.02,2.27,3.07v5.54h-2.21v-5.4c0-0.49-0.07-0.84-0.2-1.05
			c-0.14-0.21-0.36-0.31-0.69-0.31c-0.41,0-0.72,0.25-0.92,0.76l0.02,0.27v5.73h-2.21v-5.38c0-0.48-0.07-0.83-0.2-1.05
			c-0.13-0.22-0.36-0.32-0.7-0.32c-0.38,0-0.68,0.21-0.91,0.62v6.14h-2.21V30.8H246.29z"/>
		<path class="st11" d="M260.09,39.25c-0.06-0.13-0.12-0.35-0.19-0.66c-0.4,0.54-0.93,0.81-1.61,0.81c-0.71,0-1.3-0.23-1.76-0.7
			c-0.47-0.47-0.7-1.08-0.7-1.82c0-0.88,0.28-1.57,0.85-2.05c0.56-0.48,1.38-0.73,2.44-0.74h0.67v-0.68c0-0.38-0.07-0.65-0.2-0.8
			c-0.13-0.16-0.32-0.23-0.57-0.23c-0.55,0-0.83,0.32-0.83,0.97h-2.21c0-0.78,0.29-1.43,0.88-1.93s1.33-0.76,2.22-0.76
			c0.93,0,1.64,0.24,2.15,0.72c0.51,0.48,0.76,1.17,0.76,2.07v3.98c0.01,0.73,0.11,1.3,0.31,1.71v0.13H260.09z M258.79,37.68
			c0.24,0,0.45-0.05,0.62-0.15c0.17-0.1,0.3-0.22,0.38-0.35v-1.76h-0.53c-0.38,0-0.67,0.12-0.89,0.36
			c-0.22,0.24-0.32,0.56-0.32,0.96C258.06,37.36,258.3,37.68,258.79,37.68z"/>
		<path class="st11" d="M265.63,30.8l0.06,0.84c0.5-0.66,1.15-0.99,1.96-0.99c1.45,0,2.2,1.02,2.24,3.05v5.55h-2.22v-5.39
			c0-0.48-0.07-0.83-0.21-1.04c-0.14-0.22-0.39-0.32-0.75-0.32c-0.4,0-0.71,0.21-0.94,0.62v6.14h-2.22V30.8H265.63z M269.27,27.36
			c0,0.58-0.15,1.07-0.44,1.47c-0.29,0.4-0.67,0.61-1.11,0.61c-0.17,0-0.31-0.02-0.44-0.07c-0.13-0.05-0.31-0.14-0.54-0.29
			c-0.23-0.15-0.4-0.23-0.49-0.27c-0.1-0.03-0.2-0.05-0.32-0.05c-0.14,0-0.26,0.06-0.35,0.19c-0.09,0.13-0.14,0.31-0.14,0.55
			l-1.25-0.07c0-0.58,0.15-1.07,0.45-1.48c0.3-0.41,0.66-0.61,1.09-0.61c0.11,0,0.23,0.02,0.33,0.05c0.11,0.03,0.29,0.12,0.55,0.27
			c0.26,0.15,0.45,0.24,0.57,0.28c0.11,0.04,0.23,0.06,0.34,0.06c0.14,0,0.25-0.06,0.36-0.19c0.1-0.13,0.15-0.31,0.15-0.55
			L269.27,27.36z"/>
		<path class="st11" d="M275.5,39.25c-0.06-0.13-0.12-0.35-0.19-0.66c-0.4,0.54-0.93,0.81-1.61,0.81c-0.71,0-1.3-0.23-1.76-0.7
			c-0.47-0.47-0.7-1.08-0.7-1.82c0-0.88,0.28-1.57,0.85-2.05c0.56-0.48,1.38-0.73,2.44-0.74h0.67v-0.68c0-0.38-0.07-0.65-0.2-0.8
			c-0.13-0.16-0.32-0.23-0.57-0.23c-0.55,0-0.83,0.32-0.83,0.97h-2.21c0-0.78,0.29-1.43,0.88-1.93s1.33-0.76,2.22-0.76
			c0.93,0,1.64,0.24,2.15,0.72c0.51,0.48,0.76,1.17,0.76,2.07v3.98c0.01,0.73,0.11,1.3,0.31,1.71v0.13H275.5z M274.2,37.68
			c0.24,0,0.45-0.05,0.62-0.15c0.17-0.1,0.3-0.22,0.38-0.35v-1.76h-0.53c-0.38,0-0.67,0.12-0.89,0.36
			c-0.22,0.24-0.32,0.56-0.32,0.96C273.46,37.36,273.71,37.68,274.2,37.68z"/>
		<path class="st11" d="M282.76,36.99c0-0.19-0.09-0.36-0.27-0.52c-0.18-0.16-0.58-0.37-1.2-0.64c-0.91-0.37-1.54-0.75-1.88-1.15
			c-0.34-0.4-0.51-0.89-0.51-1.48c0-0.74,0.27-1.35,0.8-1.83c0.53-0.48,1.24-0.72,2.12-0.72c0.93,0,1.67,0.24,2.23,0.72
			c0.56,0.48,0.84,1.12,0.84,1.93h-2.21c0-0.69-0.29-1.03-0.86-1.03c-0.23,0-0.43,0.07-0.58,0.22c-0.15,0.15-0.23,0.35-0.23,0.61
			c0,0.19,0.08,0.35,0.25,0.5c0.17,0.14,0.56,0.35,1.18,0.61c0.9,0.33,1.54,0.71,1.91,1.11c0.37,0.41,0.56,0.94,0.56,1.59
			c0,0.76-0.28,1.36-0.85,1.82c-0.57,0.46-1.31,0.69-2.23,0.69c-0.62,0-1.17-0.12-1.64-0.36c-0.47-0.24-0.85-0.58-1.11-1.01
			c-0.27-0.43-0.4-0.9-0.4-1.4h2.1c0.01,0.39,0.1,0.67,0.27,0.87c0.17,0.19,0.45,0.29,0.83,0.29
			C282.46,37.79,282.76,37.52,282.76,36.99z"/>
		<path class="st11" d="M286.94,42.12l-1.18-0.62l0.3-0.55c0.33-0.62,0.5-1.23,0.52-1.86v-1.76h1.92l-0.01,1.57
			c-0.01,0.55-0.15,1.12-0.42,1.72C287.79,41.21,287.41,41.71,286.94,42.12z"/>
		<path class="st11" d="M295.73,28.56c0,0.23-0.07,0.43-0.2,0.59c-0.13,0.16-0.33,0.23-0.59,0.23c-0.26,0-0.46-0.08-0.59-0.23
			c-0.13-0.16-0.2-0.35-0.2-0.59s0.06-0.43,0.2-0.59c0.13-0.16,0.33-0.24,0.59-0.24c0.26,0,0.46,0.08,0.59,0.25
			S295.73,28.33,295.73,28.56z M295.62,39.25h-1.38V30.8h1.38V39.25z"/>
		<path class="st11" d="M299.09,30.8l0.04,0.91c0.54-0.71,1.22-1.07,2.05-1.07c1.49,0,2.25,1,2.27,2.99v5.62h-1.38V33.7
			c0-0.66-0.11-1.13-0.33-1.41c-0.22-0.28-0.55-0.42-1-0.42c-0.34,0-0.65,0.12-0.93,0.34c-0.27,0.23-0.49,0.53-0.66,0.9v6.14h-1.38
			V30.8H299.09z"/>
		<path class="st11" d="M306.14,39.25v-7.34h-1.1V30.8h1.1v-0.98c0.02-0.86,0.23-1.53,0.65-2.01c0.42-0.48,1.01-0.72,1.78-0.72
			c0.28,0,0.55,0.04,0.84,0.13l-0.07,1.17c-0.2-0.05-0.41-0.07-0.63-0.07c-0.79,0-1.18,0.56-1.18,1.69v0.8h1.45v1.12h-1.45v7.34
			H306.14z"/>
		<path class="st11" d="M310.31,34.64c0-1.23,0.3-2.2,0.89-2.92c0.6-0.72,1.38-1.07,2.36-1.07c0.98,0,1.77,0.35,2.36,1.05
			c0.6,0.7,0.9,1.65,0.92,2.85v0.89c0,1.22-0.3,2.19-0.89,2.91c-0.59,0.71-1.39,1.07-2.38,1.07c-0.98,0-1.76-0.35-2.36-1.04
			c-0.59-0.69-0.9-1.63-0.92-2.81V34.64z M311.69,35.43c0,0.87,0.17,1.55,0.51,2.05c0.34,0.5,0.8,0.75,1.38,0.75
			c1.22,0,1.85-0.88,1.88-2.64v-0.95c0-0.86-0.17-1.55-0.52-2.05c-0.34-0.5-0.8-0.75-1.38-0.75c-0.57,0-1.02,0.25-1.36,0.75
			c-0.34,0.5-0.51,1.18-0.51,2.04V35.43z"/>
		<path class="st11" d="M318.35,34.64c0-1.32,0.24-2.31,0.72-2.99c0.48-0.67,1.18-1.01,2.1-1.01c0.86,0,1.51,0.37,1.96,1.1
			l0.07-0.95h1.25v8.53c0,1.05-0.27,1.85-0.8,2.41c-0.54,0.56-1.28,0.84-2.24,0.84c-0.42,0-0.88-0.1-1.4-0.31
			c-0.52-0.21-0.91-0.46-1.17-0.76l0.56-0.95c0.57,0.56,1.21,0.84,1.9,0.84c1.15,0,1.74-0.63,1.77-1.88v-1.1
			c-0.45,0.66-1.08,0.99-1.91,0.99c-0.88,0-1.56-0.33-2.05-0.99c-0.49-0.66-0.75-1.61-0.77-2.84V34.64z M319.74,35.43
			c0,0.95,0.14,1.64,0.42,2.09c0.28,0.44,0.74,0.67,1.37,0.67c0.69,0,1.2-0.35,1.55-1.05v-4.22c-0.36-0.69-0.87-1.04-1.53-1.04
			c-0.64,0-1.09,0.22-1.38,0.67s-0.42,1.13-0.43,2.05V35.43z"/>
		<path class="st11" d="M330,32.1c-0.19-0.04-0.4-0.05-0.62-0.05c-0.71,0-1.2,0.39-1.48,1.16v6.05h-1.38V30.8h1.34l0.02,0.86
			c0.37-0.68,0.89-1.02,1.57-1.02c0.22,0,0.4,0.04,0.55,0.11L330,32.1z"/>
		<path class="st11" d="M335.41,39.25c-0.08-0.18-0.14-0.49-0.18-0.92c-0.49,0.72-1.11,1.08-1.88,1.08c-0.77,0-1.36-0.21-1.79-0.64
			s-0.64-1.04-0.64-1.82c0-0.86,0.29-1.54,0.88-2.05c0.58-0.5,1.38-0.76,2.4-0.77h1.02v-0.9c0-0.5-0.11-0.86-0.34-1.08
			c-0.22-0.21-0.57-0.32-1.02-0.32c-0.42,0-0.76,0.12-1.02,0.37c-0.26,0.25-0.39,0.56-0.39,0.94h-1.38c0-0.43,0.13-0.84,0.38-1.24
			c0.25-0.39,0.6-0.7,1.03-0.93c0.43-0.22,0.91-0.34,1.45-0.34c0.86,0,1.52,0.21,1.97,0.64c0.45,0.43,0.68,1.06,0.69,1.88v4.27
			c0,0.65,0.09,1.22,0.27,1.7v0.12H335.41z M333.57,38.15c0.34,0,0.66-0.09,0.97-0.28c0.31-0.19,0.53-0.42,0.67-0.7v-2.02h-0.78
			c-0.66,0.01-1.17,0.16-1.55,0.44c-0.38,0.28-0.57,0.68-0.57,1.19c0,0.48,0.1,0.83,0.29,1.04
			C332.79,38.04,333.11,38.15,333.57,38.15z"/>
		<path class="st11" d="M339.34,39.25v-7.34h-1.1V30.8h1.1v-0.98c0.02-0.86,0.23-1.53,0.65-2.01c0.42-0.48,1.01-0.72,1.78-0.72
			c0.28,0,0.55,0.04,0.84,0.13l-0.07,1.17c-0.2-0.05-0.41-0.07-0.63-0.07c-0.79,0-1.18,0.56-1.18,1.69v0.8h1.45v1.12h-1.45v7.34
			H339.34z"/>
		<path class="st11" d="M345.34,27.26h1.75l-2.09,2.3l-1.16,0L345.34,27.26z M345.28,39.25h-1.38V30.8h1.38V39.25z"/>
		<path class="st11" d="M351.9,39.25c-0.08-0.18-0.14-0.49-0.18-0.92c-0.49,0.72-1.11,1.08-1.88,1.08c-0.77,0-1.36-0.21-1.79-0.64
			s-0.64-1.04-0.64-1.82c0-0.86,0.29-1.54,0.88-2.05c0.58-0.5,1.38-0.76,2.4-0.77h1.02v-0.9c0-0.5-0.11-0.86-0.34-1.08
			c-0.22-0.21-0.57-0.32-1.02-0.32c-0.42,0-0.76,0.12-1.02,0.37c-0.26,0.25-0.39,0.56-0.39,0.94h-1.38c0-0.43,0.13-0.84,0.38-1.24
			c0.25-0.39,0.6-0.7,1.03-0.93c0.43-0.22,0.91-0.34,1.45-0.34c0.86,0,1.52,0.21,1.97,0.64c0.45,0.43,0.68,1.06,0.69,1.88v4.27
			c0,0.65,0.09,1.22,0.27,1.7v0.12H351.9z M350.06,38.15c0.34,0,0.66-0.09,0.97-0.28c0.31-0.19,0.53-0.42,0.67-0.7v-2.02h-0.78
			c-0.66,0.01-1.17,0.16-1.55,0.44c-0.38,0.28-0.57,0.68-0.57,1.19c0,0.48,0.1,0.83,0.29,1.04
			C349.27,38.04,349.6,38.15,350.06,38.15z"/>
		<path class="st11" d="M21.56,58.61h-3.57v4.64h-2.3V51.88h6.3v1.91h-4v2.91h3.57V58.61z"/>
		<path class="st11" d="M30.7,51.88v7.88c-0.01,1.18-0.34,2.09-0.98,2.71c-0.64,0.63-1.56,0.94-2.76,0.94
			c-1.22,0-2.15-0.32-2.79-0.95c-0.64-0.63-0.96-1.55-0.96-2.76v-7.82h2.31v7.83c0,0.65,0.1,1.11,0.31,1.38
			c0.21,0.28,0.59,0.41,1.13,0.41s0.92-0.14,1.12-0.41s0.31-0.72,0.31-1.35v-7.87H30.7z"/>
		<path class="st11" d="M38.31,58.33h-3.58v3.02h4.23v1.91h-6.53V51.88h6.52v1.91h-4.22v2.69h3.58V58.33z"/>
		<path class="st11" d="M48.24,63.25h-2.3l-3.36-7.46v7.46h-2.3V51.88h2.3l3.37,7.47v-7.47h2.29V63.25z"/>
		<path class="st11" d="M57.23,53.79h-2.81v9.46h-2.3v-9.46h-2.77v-1.91h7.88V53.79z"/>
		<path class="st11" d="M64.42,58.33h-3.58v3.02h4.23v1.91h-6.53V51.88h6.52v1.91h-4.22v2.69h3.58V58.33z"/>
		<path class="st11" d="M71.2,60.27c0-0.46-0.12-0.81-0.36-1.05c-0.24-0.24-0.67-0.48-1.29-0.74c-1.14-0.43-1.96-0.94-2.46-1.52
			c-0.5-0.58-0.75-1.27-0.75-2.06c0-0.96,0.34-1.73,1.02-2.31c0.68-0.58,1.54-0.87,2.59-0.87c0.7,0,1.32,0.15,1.87,0.44
			c0.55,0.29,0.97,0.71,1.26,1.25c0.29,0.54,0.44,1.15,0.44,1.83h-2.29c0-0.53-0.11-0.94-0.34-1.21c-0.23-0.28-0.55-0.42-0.98-0.42
			c-0.4,0-0.71,0.12-0.94,0.36c-0.22,0.24-0.34,0.56-0.34,0.96c0,0.31,0.12,0.6,0.38,0.85c0.25,0.25,0.69,0.51,1.33,0.79
			c1.11,0.4,1.92,0.89,2.42,1.48c0.5,0.58,0.75,1.33,0.75,2.23c0,0.99-0.32,1.76-0.95,2.32c-0.63,0.56-1.49,0.84-2.57,0.84
			c-0.73,0-1.4-0.15-2.01-0.45c-0.6-0.3-1.08-0.73-1.42-1.3c-0.34-0.56-0.51-1.23-0.51-1.99h2.3c0,0.66,0.13,1.13,0.38,1.43
			c0.25,0.3,0.67,0.45,1.25,0.45C70.8,61.54,71.2,61.12,71.2,60.27z"/>
		<path class="st11" d="M75.13,55.74c0-0.35,0.12-0.65,0.36-0.88c0.24-0.23,0.55-0.34,0.93-0.34c0.37,0,0.68,0.11,0.92,0.34
			c0.24,0.23,0.37,0.52,0.37,0.88c0,0.37-0.12,0.66-0.37,0.88c-0.25,0.22-0.55,0.33-0.92,0.33c-0.37,0-0.68-0.11-0.92-0.34
			C75.25,56.39,75.13,56.1,75.13,55.74z M75.13,62.13c0-0.35,0.12-0.65,0.36-0.88c0.24-0.23,0.55-0.34,0.93-0.34
			c0.37,0,0.68,0.11,0.92,0.34c0.24,0.23,0.37,0.52,0.37,0.88c0,0.37-0.12,0.66-0.37,0.88c-0.25,0.22-0.55,0.33-0.92,0.33
			c-0.37,0-0.68-0.11-0.92-0.34C75.25,62.78,75.13,62.49,75.13,62.13z"/>
		<path class="st11" d="M84.19,51.1l0.78,0.56c-0.41,0.68-0.62,1.39-0.64,2.12v1.08h-1.37v-0.91c0-0.53,0.11-1.05,0.34-1.58
			C83.53,51.85,83.83,51.43,84.19,51.1z"/>
		<path class="st11" d="M91.97,58h-4.02v4.03h4.69v1.23h-6.12V51.88h6.04v1.23h-4.61v3.66h4.02V58z"/>
		<path class="st11" d="M95.76,63.25h-1.38v-12h1.38V63.25z"/>
		<path class="st11" d="M102.98,55.67c0.53-0.68,1.2-1.02,2.02-1.02c1.49,0,2.25,1,2.27,2.99v5.62h-1.38V57.7
			c0-0.66-0.11-1.13-0.33-1.41c-0.22-0.28-0.55-0.42-1-0.42c-0.34,0-0.65,0.12-0.93,0.34c-0.27,0.23-0.49,0.53-0.66,0.9v6.14h-1.38
			v-12h1.38V55.67z"/>
		<path class="st11" d="M109.03,58.64c0-1.23,0.3-2.2,0.89-2.92c0.6-0.72,1.38-1.07,2.36-1.07c0.98,0,1.77,0.35,2.36,1.05
			c0.6,0.7,0.9,1.65,0.92,2.85v0.89c0,1.22-0.3,2.19-0.89,2.91c-0.59,0.71-1.39,1.07-2.38,1.07c-0.98,0-1.76-0.35-2.36-1.04
			c-0.59-0.69-0.9-1.63-0.92-2.81V58.64z M110.41,59.43c0,0.87,0.17,1.55,0.51,2.05c0.34,0.5,0.8,0.75,1.38,0.75
			c1.22,0,1.85-0.88,1.88-2.64v-0.95c0-0.86-0.17-1.55-0.52-2.05c-0.34-0.5-0.8-0.75-1.38-0.75c-0.57,0-1.02,0.25-1.36,0.75
			c-0.34,0.5-0.51,1.18-0.51,2.04V59.43z"/>
		<path class="st11" d="M118.66,54.8l0.03,0.78c0.52-0.62,1.2-0.94,2.04-0.94c0.94,0,1.6,0.41,1.98,1.23
			c0.53-0.82,1.27-1.23,2.22-1.23c1.56,0,2.35,0.97,2.39,2.91v5.7h-1.38v-5.56c0-0.61-0.11-1.07-0.33-1.37
			c-0.22-0.3-0.59-0.45-1.11-0.45c-0.42,0-0.76,0.16-1.02,0.48c-0.26,0.32-0.41,0.73-0.45,1.23v5.66h-1.39v-5.62
			c-0.02-1.17-0.49-1.76-1.43-1.76c-0.7,0-1.19,0.35-1.48,1.05v6.34h-1.38V54.8H118.66z"/>
		<path class="st11" d="M135.52,59.43c0,1.32-0.24,2.31-0.71,2.98c-0.47,0.67-1.16,1-2.06,1c-0.9,0-1.57-0.38-2.02-1.16l-0.07,1
			h-1.26v-12h1.38v4.48c0.45-0.72,1.1-1.09,1.95-1.09c0.93,0,1.62,0.33,2.09,0.98c0.46,0.66,0.7,1.65,0.7,2.97V59.43z M134.14,58.64
			c0-1-0.14-1.71-0.42-2.13c-0.28-0.42-0.73-0.64-1.36-0.64c-0.71,0-1.25,0.38-1.59,1.15v4.02c0.34,0.76,0.88,1.14,1.61,1.14
			c0.62,0,1.07-0.22,1.34-0.66c0.27-0.44,0.41-1.12,0.41-2.04V58.64z"/>
		<path class="st11" d="M140.77,56.1c-0.19-0.04-0.4-0.05-0.62-0.05c-0.71,0-1.2,0.39-1.48,1.16v6.05h-1.38V54.8h1.34l0.02,0.86
			c0.37-0.68,0.89-1.02,1.57-1.02c0.22,0,0.4,0.04,0.55,0.11L140.77,56.1z"/>
		<path class="st11" d="M145.02,63.41c-1.05,0-1.86-0.31-2.42-0.94c-0.56-0.63-0.85-1.55-0.86-2.76v-1.02
			c0-1.26,0.27-2.25,0.82-2.96c0.55-0.72,1.32-1.07,2.3-1.07c0.99,0,1.73,0.32,2.22,0.95c0.49,0.63,0.74,1.61,0.75,2.95v0.91h-4.72
			v0.2c0,0.91,0.17,1.57,0.51,1.98c0.34,0.41,0.83,0.62,1.47,0.62c0.41,0,0.76-0.08,1.07-0.23c0.31-0.15,0.6-0.4,0.87-0.73
			l0.72,0.88C147.17,62.99,146.25,63.41,145.02,63.41z M144.87,55.83c-0.57,0-1,0.2-1.27,0.59c-0.28,0.39-0.43,1-0.47,1.83h3.33
			v-0.19c-0.04-0.8-0.18-1.38-0.43-1.72C145.77,56,145.38,55.83,144.87,55.83z"/>
		<path class="st11" d="M152.87,58.64c0-1.32,0.24-2.31,0.72-2.99c0.48-0.67,1.19-1.01,2.14-1.01c0.82,0,1.45,0.33,1.91,0.98
			l0.06-0.83h1.27v11.7h-1.38v-3.99c-0.45,0.6-1.07,0.9-1.86,0.9c-0.91,0-1.61-0.33-2.1-1c-0.49-0.66-0.74-1.63-0.75-2.9V58.64z
			 M154.25,59.43c0,0.95,0.15,1.65,0.44,2.11c0.29,0.46,0.75,0.69,1.39,0.69c0.65,0,1.15-0.31,1.5-0.93v-4.53
			c-0.38-0.62-0.87-0.94-1.49-0.94c-0.64,0-1.1,0.23-1.39,0.69c-0.29,0.46-0.44,1.15-0.45,2.07V59.43z"/>
		<path class="st11" d="M165.48,62.51c-0.46,0.6-1.13,0.9-2.01,0.9c-0.77,0-1.34-0.26-1.73-0.79c-0.39-0.53-0.59-1.3-0.59-2.31V54.8
			h1.38v5.41c0,1.32,0.4,1.98,1.19,1.98c0.84,0,1.42-0.38,1.73-1.12V54.8h1.38v8.45h-1.31L165.48,62.51z"/>
		<path class="st11" d="M171.92,63.41c-1.05,0-1.86-0.31-2.42-0.94c-0.56-0.63-0.85-1.55-0.86-2.76v-1.02
			c0-1.26,0.27-2.25,0.82-2.96c0.55-0.72,1.32-1.07,2.3-1.07c0.99,0,1.73,0.32,2.22,0.95c0.49,0.63,0.74,1.61,0.75,2.95v0.91h-4.72
			v0.2c0,0.91,0.17,1.57,0.51,1.98c0.34,0.41,0.83,0.62,1.47,0.62c0.41,0,0.76-0.08,1.07-0.23c0.31-0.15,0.6-0.4,0.87-0.73
			l0.72,0.88C174.07,62.99,173.15,63.41,171.92,63.41z M171.77,55.83c-0.57,0-1,0.2-1.27,0.59c-0.28,0.39-0.43,1-0.47,1.83h3.33
			v-0.19c-0.04-0.8-0.18-1.38-0.43-1.72C172.67,56,172.28,55.83,171.77,55.83z"/>
		<path class="st11" d="M181.36,54.8l0.03,0.78c0.52-0.62,1.2-0.94,2.04-0.94c0.94,0,1.6,0.41,1.98,1.23
			c0.53-0.82,1.27-1.23,2.22-1.23c1.56,0,2.35,0.97,2.39,2.91v5.7h-1.38v-5.56c0-0.61-0.11-1.07-0.33-1.37
			c-0.22-0.3-0.59-0.45-1.11-0.45c-0.42,0-0.76,0.16-1.02,0.48c-0.26,0.32-0.41,0.73-0.45,1.23v5.66h-1.39v-5.62
			c-0.02-1.17-0.49-1.76-1.43-1.76c-0.7,0-1.19,0.35-1.48,1.05v6.34h-1.38V54.8H181.36z"/>
		<path class="st11" d="M196.45,63.25c-0.08-0.18-0.14-0.49-0.18-0.92c-0.49,0.72-1.11,1.08-1.88,1.08c-0.77,0-1.36-0.21-1.79-0.64
			s-0.64-1.04-0.64-1.82c0-0.86,0.29-1.54,0.88-2.05c0.58-0.5,1.38-0.76,2.4-0.77h1.02v-0.9c0-0.5-0.11-0.86-0.34-1.08
			c-0.22-0.21-0.57-0.32-1.02-0.32c-0.42,0-0.76,0.12-1.02,0.37c-0.26,0.25-0.39,0.56-0.39,0.94h-1.38c0-0.43,0.13-0.84,0.38-1.24
			c0.25-0.39,0.6-0.7,1.03-0.93c0.43-0.22,0.91-0.34,1.45-0.34c0.86,0,1.52,0.21,1.97,0.64c0.45,0.43,0.68,1.06,0.69,1.88v4.27
			c0,0.65,0.09,1.22,0.27,1.7v0.12H196.45z M194.6,62.15c0.34,0,0.66-0.09,0.97-0.28c0.31-0.19,0.53-0.42,0.67-0.7v-2.02h-0.78
			c-0.66,0.01-1.17,0.16-1.55,0.44c-0.38,0.28-0.57,0.68-0.57,1.19c0,0.48,0.1,0.83,0.29,1.04
			C193.82,62.04,194.14,62.15,194.6,62.15z"/>
		<path class="st11" d="M201.57,52.75v2.05h1.27v1.12h-1.27v5.25c0,0.33,0.05,0.59,0.16,0.76s0.3,0.26,0.56,0.26
			c0.18,0,0.37-0.03,0.55-0.09l-0.02,1.17c-0.31,0.1-0.63,0.16-0.96,0.16c-0.55,0-0.96-0.2-1.25-0.59
			c-0.29-0.39-0.43-0.94-0.43-1.66v-5.25h-1.29V54.8h1.29v-2.05H201.57z"/>
		<path class="st11" d="M204.04,58.64c0-1.23,0.3-2.2,0.89-2.92c0.6-0.72,1.38-1.07,2.36-1.07c0.98,0,1.77,0.35,2.36,1.05
			c0.6,0.7,0.9,1.65,0.92,2.85v0.89c0,1.22-0.3,2.19-0.89,2.91c-0.59,0.71-1.39,1.07-2.38,1.07c-0.98,0-1.76-0.35-2.36-1.04
			c-0.59-0.69-0.9-1.63-0.92-2.81V58.64z M205.42,59.43c0,0.87,0.17,1.55,0.51,2.05c0.34,0.5,0.8,0.75,1.38,0.75
			c1.22,0,1.85-0.88,1.88-2.64v-0.95c0-0.86-0.17-1.55-0.52-2.05c-0.34-0.5-0.8-0.75-1.38-0.75c-0.57,0-1.02,0.25-1.36,0.75
			c-0.34,0.5-0.51,1.18-0.51,2.04V59.43z M207.95,51.25h1.75l-2.09,2.3l-1.16,0L207.95,51.25z"/>
		<path class="st11" d="M220.38,63.25c-0.08-0.18-0.14-0.49-0.18-0.92c-0.49,0.72-1.11,1.08-1.88,1.08c-0.77,0-1.36-0.21-1.79-0.64
			s-0.64-1.04-0.64-1.82c0-0.86,0.29-1.54,0.88-2.05c0.58-0.5,1.38-0.76,2.4-0.77h1.02v-0.9c0-0.5-0.11-0.86-0.34-1.08
			c-0.22-0.21-0.57-0.32-1.02-0.32c-0.42,0-0.76,0.12-1.02,0.37c-0.26,0.25-0.39,0.56-0.39,0.94h-1.38c0-0.43,0.13-0.84,0.38-1.24
			c0.25-0.39,0.6-0.7,1.03-0.93c0.43-0.22,0.91-0.34,1.45-0.34c0.86,0,1.52,0.21,1.97,0.64c0.45,0.43,0.68,1.06,0.69,1.88v4.27
			c0,0.65,0.09,1.22,0.27,1.7v0.12H220.38z M218.53,62.15c0.34,0,0.66-0.09,0.97-0.28c0.31-0.19,0.53-0.42,0.67-0.7v-2.02h-0.78
			c-0.66,0.01-1.17,0.16-1.55,0.44c-0.38,0.28-0.57,0.68-0.57,1.19c0,0.48,0.1,0.83,0.29,1.04
			C217.75,62.04,218.07,62.15,218.53,62.15z"/>
		<path class="st11" d="M228.99,62.03h4.46v1.23h-5.9V51.88h1.44V62.03z"/>
		<path class="st11" d="M236.56,52.56c0,0.23-0.07,0.43-0.2,0.59c-0.13,0.16-0.33,0.23-0.59,0.23c-0.26,0-0.46-0.08-0.59-0.23
			c-0.13-0.16-0.2-0.35-0.2-0.59s0.06-0.43,0.2-0.59c0.13-0.16,0.33-0.24,0.59-0.24c0.26,0,0.46,0.08,0.59,0.25
			S236.56,52.33,236.56,52.56z M236.45,63.25h-1.38V54.8h1.38V63.25z"/>
		<path class="st11" d="M244.74,59.43c0,1.32-0.24,2.31-0.71,2.98c-0.47,0.67-1.16,1-2.06,1c-0.9,0-1.57-0.38-2.02-1.16l-0.07,1
			h-1.26v-12H240v4.48c0.45-0.72,1.1-1.09,1.95-1.09c0.93,0,1.62,0.33,2.09,0.98c0.46,0.66,0.7,1.65,0.7,2.97V59.43z M243.37,58.64
			c0-1-0.14-1.71-0.42-2.13c-0.28-0.42-0.73-0.64-1.36-0.64c-0.71,0-1.25,0.38-1.59,1.15v4.02c0.34,0.76,0.88,1.14,1.61,1.14
			c0.62,0,1.07-0.22,1.34-0.66c0.27-0.44,0.41-1.12,0.41-2.04V58.64z"/>
		<path class="st11" d="M249.53,63.41c-1.05,0-1.86-0.31-2.42-0.94c-0.56-0.63-0.85-1.55-0.86-2.76v-1.02
			c0-1.26,0.27-2.25,0.82-2.96c0.55-0.72,1.32-1.07,2.3-1.07c0.99,0,1.73,0.32,2.22,0.95c0.49,0.63,0.74,1.61,0.75,2.95v0.91h-4.72
			v0.2c0,0.91,0.17,1.57,0.51,1.98c0.34,0.41,0.83,0.62,1.47,0.62c0.41,0,0.76-0.08,1.07-0.23c0.31-0.15,0.6-0.4,0.87-0.73
			l0.72,0.88C251.68,62.99,250.76,63.41,249.53,63.41z M249.38,55.83c-0.57,0-1,0.2-1.27,0.59c-0.28,0.39-0.43,1-0.47,1.83h3.33
			v-0.19c-0.04-0.8-0.18-1.38-0.43-1.72C250.28,56,249.89,55.83,249.38,55.83z"/>
		<path class="st11" d="M257.49,56.1c-0.19-0.04-0.4-0.05-0.62-0.05c-0.71,0-1.2,0.39-1.48,1.16v6.05H254V54.8h1.34l0.02,0.86
			c0.37-0.68,0.89-1.02,1.57-1.02c0.22,0,0.4,0.04,0.55,0.11L257.49,56.1z"/>
		<path class="st11" d="M261.07,52.75v2.05h1.27v1.12h-1.27v5.25c0,0.33,0.05,0.59,0.16,0.76s0.3,0.26,0.56,0.26
			c0.18,0,0.37-0.03,0.55-0.09l-0.02,1.17c-0.31,0.1-0.63,0.16-0.96,0.16c-0.55,0-0.96-0.2-1.25-0.59
			c-0.29-0.39-0.43-0.94-0.43-1.66v-5.25h-1.29V54.8h1.29v-2.05H261.07z"/>
		<path class="st11" d="M266.3,60.96l1.54-6.16h1.47l-2.77,9.65c-0.21,0.72-0.5,1.27-0.88,1.65c-0.38,0.38-0.81,0.57-1.3,0.57
			c-0.19,0-0.43-0.04-0.72-0.12v-1.17l0.3,0.03c0.4,0,0.71-0.1,0.94-0.29c0.23-0.19,0.41-0.52,0.55-0.99l0.27-0.95l-2.48-8.38h1.51
			L266.3,60.96z"/>
		<path class="st11" d="M277.76,61.06l2.6-9.18h1.57l-3.54,11.38h-1.25l-3.53-11.38h1.56L277.76,61.06z"/>
		<path class="st11" d="M287.27,63.25c-0.08-0.18-0.14-0.49-0.18-0.92c-0.49,0.72-1.11,1.08-1.88,1.08c-0.77,0-1.36-0.21-1.79-0.64
			s-0.64-1.04-0.64-1.82c0-0.86,0.29-1.54,0.88-2.05c0.58-0.5,1.38-0.76,2.4-0.77h1.02v-0.9c0-0.5-0.11-0.86-0.34-1.08
			c-0.22-0.21-0.57-0.32-1.02-0.32c-0.42,0-0.76,0.12-1.02,0.37c-0.26,0.25-0.39,0.56-0.39,0.94h-1.38c0-0.43,0.13-0.84,0.38-1.24
			c0.25-0.39,0.6-0.7,1.03-0.93c0.43-0.22,0.91-0.34,1.45-0.34c0.86,0,1.52,0.21,1.97,0.64c0.45,0.43,0.68,1.06,0.69,1.88v4.27
			c0,0.65,0.09,1.22,0.27,1.7v0.12H287.27z M285.42,62.15c0.34,0,0.66-0.09,0.97-0.28c0.31-0.19,0.53-0.42,0.67-0.7v-2.02h-0.78
			c-0.66,0.01-1.17,0.16-1.55,0.44c-0.38,0.28-0.57,0.68-0.57,1.19c0,0.48,0.1,0.83,0.29,1.04
			C284.64,62.04,284.96,62.15,285.42,62.15z"/>
		<path class="st11" d="M292.07,63.25h-1.38v-12h1.38V63.25z"/>
		<path class="st11" d="M298.59,63.25c-0.08-0.18-0.14-0.49-0.18-0.92c-0.49,0.72-1.11,1.08-1.88,1.08c-0.77,0-1.36-0.21-1.79-0.64
			s-0.64-1.04-0.64-1.82c0-0.86,0.29-1.54,0.88-2.05c0.58-0.5,1.38-0.76,2.4-0.77h1.02v-0.9c0-0.5-0.11-0.86-0.34-1.08
			c-0.22-0.21-0.57-0.32-1.02-0.32c-0.42,0-0.76,0.12-1.02,0.37c-0.26,0.25-0.39,0.56-0.39,0.94h-1.38c0-0.43,0.13-0.84,0.38-1.24
			c0.25-0.39,0.6-0.7,1.03-0.93c0.43-0.22,0.91-0.34,1.45-0.34c0.86,0,1.52,0.21,1.97,0.64c0.45,0.43,0.68,1.06,0.69,1.88v4.27
			c0,0.65,0.09,1.22,0.27,1.7v0.12H298.59z M296.75,62.15c0.34,0,0.66-0.09,0.97-0.28c0.31-0.19,0.53-0.42,0.67-0.7v-2.02h-0.78
			c-0.66,0.01-1.17,0.16-1.55,0.44c-0.38,0.28-0.57,0.68-0.57,1.19c0,0.48,0.1,0.83,0.29,1.04
			C295.97,62.04,296.29,62.15,296.75,62.15z"/>
		<path class="st11" d="M303.21,54.8l0.04,0.91c0.54-0.71,1.22-1.07,2.05-1.07c1.49,0,2.25,1,2.27,2.99v5.62h-1.38V57.7
			c0-0.66-0.11-1.13-0.33-1.41c-0.22-0.28-0.55-0.42-1-0.42c-0.34,0-0.65,0.12-0.93,0.34c-0.27,0.23-0.49,0.53-0.66,0.9v6.14h-1.38
			V54.8H303.21z"/>
		<path class="st11" d="M312.59,62.23c0.46,0,0.83-0.14,1.1-0.43c0.28-0.28,0.43-0.69,0.45-1.21h1.3c-0.03,0.81-0.32,1.49-0.86,2.02
			c-0.54,0.53-1.21,0.8-2,0.8c-1.05,0-1.85-0.33-2.39-0.99c-0.55-0.66-0.82-1.64-0.82-2.94v-0.93c0-1.28,0.27-2.25,0.82-2.91
			s1.34-1,2.39-1c0.86,0,1.55,0.27,2.06,0.82s0.78,1.29,0.81,2.24h-1.3c-0.03-0.62-0.18-1.09-0.45-1.41
			c-0.27-0.31-0.64-0.47-1.11-0.47c-0.61,0-1.07,0.2-1.37,0.61c-0.3,0.4-0.45,1.07-0.46,1.99v1.08c0,1,0.15,1.7,0.44,2.11
			C311.49,62.02,311.95,62.23,312.59,62.23z"/>
		<path class="st11" d="M320.06,63.41c-1.05,0-1.86-0.31-2.42-0.94c-0.56-0.63-0.85-1.55-0.86-2.76v-1.02
			c0-1.26,0.27-2.25,0.82-2.96c0.55-0.72,1.32-1.07,2.3-1.07c0.99,0,1.73,0.32,2.22,0.95c0.49,0.63,0.74,1.61,0.75,2.95v0.91h-4.72
			v0.2c0,0.91,0.17,1.57,0.51,1.98c0.34,0.41,0.83,0.62,1.47,0.62c0.41,0,0.76-0.08,1.07-0.23c0.31-0.15,0.6-0.4,0.87-0.73
			l0.72,0.88C322.21,62.99,321.29,63.41,320.06,63.41z M319.91,55.83c-0.57,0-1,0.2-1.27,0.59c-0.28,0.39-0.43,1-0.47,1.83h3.33
			v-0.19c-0.04-0.8-0.18-1.38-0.43-1.72C320.81,56,320.42,55.83,319.91,55.83z"/>
		<path class="st11" d="M324.09,55.08l-0.77-0.56c0.41-0.68,0.62-1.39,0.63-2.12v-1.14h1.37v1.05c-0.01,0.5-0.13,1.01-0.35,1.52
			C324.74,54.34,324.45,54.76,324.09,55.08z"/>
		<path class="st11" d="M330.66,58.64c0-1.36,0.18-2.65,0.55-3.85c0.37-1.2,0.89-2.26,1.57-3.16c0.41-0.55,0.81-0.95,1.19-1.2
			l0.27,0.95c-0.62,0.6-1.14,1.5-1.54,2.71c-0.4,1.21-0.62,2.55-0.66,4.02l-0.01,0.63c0,1.83,0.26,3.45,0.77,4.86
			c0.39,1.06,0.87,1.88,1.43,2.45l-0.27,0.88c-0.48-0.32-0.97-0.85-1.46-1.59C331.27,63.47,330.66,61.24,330.66,58.64z"/>
		<path class="st11" d="M339.82,51.88h1.44v8.05c0,1.09-0.28,1.94-0.83,2.55c-0.55,0.62-1.3,0.92-2.24,0.92
			c-0.96,0-1.71-0.29-2.25-0.88c-0.54-0.58-0.8-1.39-0.8-2.42h1.43c0,0.65,0.14,1.16,0.43,1.52c0.29,0.37,0.68,0.55,1.2,0.55
			c0.49,0,0.89-0.2,1.19-0.59c0.3-0.4,0.45-0.95,0.45-1.66V51.88z"/>
		<path class="st11" d="M343.15,58.64c0-1.23,0.3-2.2,0.89-2.92c0.6-0.72,1.38-1.07,2.36-1.07c0.98,0,1.77,0.35,2.36,1.05
			c0.6,0.7,0.9,1.65,0.92,2.85v0.89c0,1.22-0.3,2.19-0.89,2.91c-0.59,0.71-1.39,1.07-2.38,1.07c-0.98,0-1.76-0.35-2.36-1.04
			c-0.59-0.69-0.9-1.63-0.92-2.81V58.64z M344.53,59.43c0,0.87,0.17,1.55,0.51,2.05c0.34,0.5,0.8,0.75,1.38,0.75
			c1.22,0,1.85-0.88,1.88-2.64v-0.95c0-0.86-0.17-1.55-0.52-2.05c-0.34-0.5-0.8-0.75-1.38-0.75c-0.57,0-1.02,0.25-1.36,0.75
			c-0.34,0.5-0.51,1.18-0.51,2.04V59.43z"/>
		<path class="st11" d="M352.85,55.67c0.53-0.68,1.2-1.02,2.02-1.02c1.49,0,2.25,1,2.27,2.99v5.62h-1.38V57.7
			c0-0.66-0.11-1.13-0.33-1.41c-0.22-0.28-0.55-0.42-1-0.42c-0.34,0-0.65,0.12-0.93,0.34c-0.27,0.23-0.49,0.53-0.66,0.9v6.14h-1.38
			v-12h1.38V55.67z"/>
		<path class="st11" d="M360.5,54.8l0.04,0.91c0.54-0.71,1.22-1.07,2.05-1.07c1.49,0,2.25,1,2.27,2.99v5.62h-1.38V57.7
			c0-0.66-0.11-1.13-0.33-1.41c-0.22-0.28-0.55-0.42-1-0.42c-0.34,0-0.65,0.12-0.93,0.34c-0.27,0.23-0.49,0.53-0.66,0.9v6.14h-1.38
			V54.8H360.5z"/>
		<path class="st11" d="M376.07,58.23h-3.84v5.02h-1.43V51.88h5.92v1.23h-4.49V57h3.84V58.23z"/>
		<path class="st11" d="M377.84,58.64c0-1.23,0.3-2.2,0.89-2.92c0.6-0.72,1.38-1.07,2.36-1.07c0.98,0,1.77,0.35,2.36,1.05
			c0.6,0.7,0.9,1.65,0.92,2.85v0.89c0,1.22-0.3,2.19-0.89,2.91c-0.59,0.71-1.39,1.07-2.38,1.07c-0.98,0-1.76-0.35-2.36-1.04
			c-0.59-0.69-0.9-1.63-0.92-2.81V58.64z M379.22,59.43c0,0.87,0.17,1.55,0.51,2.05c0.34,0.5,0.8,0.75,1.38,0.75
			c1.22,0,1.85-0.88,1.88-2.64v-0.95c0-0.86-0.17-1.55-0.52-2.05c-0.34-0.5-0.8-0.75-1.38-0.75c-0.57,0-1.02,0.25-1.36,0.75
			c-0.34,0.5-0.51,1.18-0.51,2.04V59.43z"/>
		<path class="st11" d="M389.65,56.1c-0.19-0.04-0.4-0.05-0.62-0.05c-0.71,0-1.2,0.39-1.48,1.16v6.05h-1.38V54.8h1.34l0.02,0.86
			c0.37-0.68,0.89-1.02,1.57-1.02c0.22,0,0.4,0.04,0.55,0.11L389.65,56.1z"/>
		<path class="st11" d="M390.59,58.64c0-1.3,0.24-2.29,0.73-2.98c0.49-0.68,1.19-1.02,2.1-1.02c0.81,0,1.44,0.33,1.89,0.98v-4.38
			h1.38v12h-1.27l-0.07-0.91c-0.45,0.71-1.1,1.06-1.95,1.06c-0.88,0-1.56-0.34-2.06-1.02c-0.5-0.68-0.75-1.64-0.76-2.88V58.64z
			 M391.97,59.43c0,0.95,0.14,1.64,0.42,2.09s0.74,0.67,1.38,0.67c0.69,0,1.2-0.35,1.54-1.04v-4.26c-0.35-0.68-0.86-1.01-1.53-1.01
			c-0.64,0-1.09,0.22-1.38,0.67s-0.42,1.13-0.43,2.05V59.43z"/>
		<path class="st11" d="M401.79,58.71c0,2.32-0.52,4.38-1.56,6.16c-0.56,0.96-1.15,1.64-1.75,2.05l-0.27-0.88
			c0.66-0.63,1.18-1.59,1.59-2.89c0.4-1.29,0.61-2.71,0.62-4.25v-0.28c0-1.98-0.33-3.75-0.98-5.31c-0.36-0.85-0.77-1.52-1.23-2.01
			l0.27-0.88c0.57,0.39,1.13,1.02,1.66,1.9C401.24,54.13,401.79,56.26,401.79,58.71z"/>
		<path class="st11" d="M409.88,60.96l1.54-6.16h1.47l-2.77,9.65c-0.21,0.72-0.5,1.27-0.88,1.65c-0.38,0.38-0.81,0.57-1.3,0.57
			c-0.19,0-0.43-0.04-0.72-0.12v-1.17l0.3,0.03c0.4,0,0.71-0.1,0.94-0.29c0.23-0.19,0.41-0.52,0.55-0.99l0.27-0.95l-2.48-8.38h1.51
			L409.88,60.96z"/>
		<path class="st11" d="M420.92,63.41c-1.05,0-1.86-0.31-2.42-0.94c-0.56-0.63-0.85-1.55-0.86-2.76v-1.02
			c0-1.26,0.27-2.25,0.82-2.96c0.55-0.72,1.32-1.07,2.3-1.07c0.99,0,1.73,0.32,2.22,0.95c0.49,0.63,0.74,1.61,0.75,2.95v0.91h-4.72
			v0.2c0,0.91,0.17,1.57,0.51,1.98c0.34,0.41,0.83,0.62,1.47,0.62c0.41,0,0.76-0.08,1.07-0.23c0.31-0.15,0.6-0.4,0.87-0.73
			l0.72,0.88C423.07,62.99,422.15,63.41,420.92,63.41z M420.77,55.83c-0.57,0-1,0.2-1.27,0.59c-0.28,0.39-0.43,1-0.47,1.83h3.33
			v-0.19c-0.04-0.8-0.18-1.38-0.43-1.72C421.67,56,421.28,55.83,420.77,55.83z"/>
		<path class="st11" d="M426.88,63.25h-1.38v-12h1.38V63.25z"/>
		<path class="st11" d="M433.41,63.25c-0.08-0.18-0.14-0.49-0.18-0.92c-0.49,0.72-1.11,1.08-1.88,1.08c-0.77,0-1.36-0.21-1.79-0.64
			s-0.64-1.04-0.64-1.82c0-0.86,0.29-1.54,0.88-2.05c0.58-0.5,1.38-0.76,2.4-0.77h1.02v-0.9c0-0.5-0.11-0.86-0.34-1.08
			c-0.22-0.21-0.57-0.32-1.02-0.32c-0.42,0-0.76,0.12-1.02,0.37c-0.26,0.25-0.39,0.56-0.39,0.94h-1.38c0-0.43,0.13-0.84,0.38-1.24
			c0.25-0.39,0.6-0.7,1.03-0.93c0.43-0.22,0.91-0.34,1.45-0.34c0.86,0,1.52,0.21,1.97,0.64c0.45,0.43,0.68,1.06,0.69,1.88v4.27
			c0,0.65,0.09,1.22,0.27,1.7v0.12H433.41z M431.56,62.15c0.34,0,0.66-0.09,0.97-0.28c0.31-0.19,0.53-0.42,0.67-0.7v-2.02h-0.78
			c-0.66,0.01-1.17,0.16-1.55,0.44c-0.38,0.28-0.57,0.68-0.57,1.19c0,0.48,0.1,0.83,0.29,1.04
			C430.78,62.04,431.1,62.15,431.56,62.15z"/>
		<path class="st11" d="M442.84,59.43c0,1.32-0.24,2.31-0.71,2.98c-0.47,0.67-1.16,1-2.06,1c-0.9,0-1.57-0.38-2.02-1.16l-0.07,1
			h-1.26v-12h1.38v4.48c0.45-0.72,1.1-1.09,1.95-1.09c0.93,0,1.62,0.33,2.09,0.98c0.46,0.66,0.7,1.65,0.7,2.97V59.43z M441.47,58.64
			c0-1-0.14-1.71-0.42-2.13c-0.28-0.42-0.73-0.64-1.36-0.64c-0.71,0-1.25,0.38-1.59,1.15v4.02c0.34,0.76,0.88,1.14,1.61,1.14
			c0.62,0,1.07-0.22,1.34-0.66c0.27-0.44,0.41-1.12,0.41-2.04V58.64z"/>
		<path class="st11" d="M444.32,58.64c0-1.23,0.3-2.2,0.89-2.92c0.6-0.72,1.38-1.07,2.36-1.07c0.98,0,1.77,0.35,2.36,1.05
			c0.6,0.7,0.9,1.65,0.92,2.85v0.89c0,1.22-0.3,2.19-0.89,2.91c-0.59,0.71-1.39,1.07-2.38,1.07c-0.98,0-1.76-0.35-2.36-1.04
			c-0.59-0.69-0.9-1.63-0.92-2.81V58.64z M445.7,59.43c0,0.87,0.17,1.55,0.51,2.05c0.34,0.5,0.8,0.75,1.38,0.75
			c1.22,0,1.85-0.88,1.88-2.64v-0.95c0-0.86-0.17-1.55-0.52-2.05c-0.34-0.5-0.8-0.75-1.38-0.75c-0.57,0-1.02,0.25-1.36,0.75
			c-0.34,0.5-0.51,1.18-0.51,2.04V59.43z"/>
		<path class="st11" d="M456.13,56.1c-0.19-0.04-0.4-0.05-0.62-0.05c-0.71,0-1.2,0.39-1.48,1.16v6.05h-1.38V54.8h1.34l0.02,0.86
			c0.37-0.68,0.89-1.02,1.57-1.02c0.22,0,0.4,0.04,0.55,0.11L456.13,56.1z"/>
		<path class="st11" d="M461.55,63.25c-0.08-0.18-0.14-0.49-0.18-0.92c-0.49,0.72-1.11,1.08-1.88,1.08c-0.77,0-1.36-0.21-1.79-0.64
			s-0.64-1.04-0.64-1.82c0-0.86,0.29-1.54,0.88-2.05c0.58-0.5,1.38-0.76,2.4-0.77h1.02v-0.9c0-0.5-0.11-0.86-0.34-1.08
			c-0.22-0.21-0.57-0.32-1.02-0.32c-0.42,0-0.76,0.12-1.02,0.37c-0.26,0.25-0.39,0.56-0.39,0.94h-1.38c0-0.43,0.13-0.84,0.38-1.24
			c0.25-0.39,0.6-0.7,1.03-0.93c0.43-0.22,0.91-0.34,1.45-0.34c0.86,0,1.52,0.21,1.97,0.64c0.45,0.43,0.68,1.06,0.69,1.88v4.27
			c0,0.65,0.09,1.22,0.27,1.7v0.12H461.55z M459.7,62.15c0.34,0,0.66-0.09,0.97-0.28c0.31-0.19,0.53-0.42,0.67-0.7v-2.02h-0.78
			c-0.66,0.01-1.17,0.16-1.55,0.44c-0.38,0.28-0.57,0.68-0.57,1.19c0,0.48,0.1,0.83,0.29,1.04
			C458.92,62.04,459.25,62.15,459.7,62.15z"/>
		<path class="st11" d="M467.8,62.23c0.46,0,0.83-0.14,1.1-0.43c0.28-0.28,0.43-0.69,0.45-1.21h1.3c-0.03,0.81-0.32,1.49-0.86,2.02
			c-0.54,0.53-1.21,0.8-2,0.8c-1.05,0-1.85-0.33-2.39-0.99c-0.55-0.66-0.82-1.64-0.82-2.94v-0.93c0-1.28,0.27-2.25,0.82-2.91
			s1.34-1,2.39-1c0.86,0,1.55,0.27,2.06,0.82s0.78,1.29,0.81,2.24h-1.3c-0.03-0.62-0.18-1.09-0.45-1.41
			c-0.27-0.31-0.64-0.47-1.11-0.47c-0.61,0-1.07,0.2-1.37,0.61c-0.3,0.4-0.45,1.07-0.46,1.99v1.08c0,1,0.15,1.7,0.44,2.11
			C466.7,62.02,467.16,62.23,467.8,62.23z"/>
		<path class="st11" d="M473.85,52.56c0,0.23-0.07,0.43-0.2,0.59c-0.13,0.16-0.33,0.23-0.59,0.23c-0.26,0-0.46-0.08-0.59-0.23
			c-0.13-0.16-0.2-0.35-0.2-0.59s0.06-0.43,0.2-0.59c0.13-0.16,0.33-0.24,0.59-0.24c0.26,0,0.46,0.08,0.59,0.25
			S473.85,52.33,473.85,52.56z M473.74,63.25h-1.38V54.8h1.38V63.25z"/>
		<path class="st11" d="M475.63,58.64c0-1.23,0.3-2.2,0.89-2.92c0.6-0.72,1.38-1.07,2.36-1.07c0.98,0,1.77,0.35,2.36,1.05
			c0.6,0.7,0.9,1.65,0.92,2.85v0.89c0,1.22-0.3,2.19-0.89,2.91c-0.59,0.71-1.39,1.07-2.38,1.07c-0.98,0-1.76-0.35-2.36-1.04
			c-0.59-0.69-0.9-1.63-0.92-2.81V58.64z M477.01,59.43c0,0.87,0.17,1.55,0.51,2.05c0.34,0.5,0.8,0.75,1.38,0.75
			c1.22,0,1.85-0.88,1.88-2.64v-0.95c0-0.86-0.17-1.55-0.52-2.05c-0.34-0.5-0.8-0.75-1.38-0.75c-0.57,0-1.02,0.25-1.36,0.75
			c-0.34,0.5-0.51,1.18-0.51,2.04V59.43z M479.53,51.25h1.75l-2.09,2.3l-1.16,0L479.53,51.25z"/>
		<path class="st11" d="M485.25,54.8l0.04,0.91c0.54-0.71,1.22-1.07,2.05-1.07c1.49,0,2.25,1,2.27,2.99v5.62h-1.38V57.7
			c0-0.66-0.11-1.13-0.33-1.41c-0.22-0.28-0.55-0.42-1-0.42c-0.34,0-0.65,0.12-0.93,0.34c-0.27,0.23-0.49,0.53-0.66,0.9v6.14h-1.38
			V54.8H485.25z"/>
		<path class="st11" d="M501.46,59.43c0,1.34-0.24,2.34-0.72,2.99c-0.48,0.66-1.16,0.98-2.04,0.98c-0.85,0-1.5-0.32-1.96-0.96v4.05
			h-1.38V54.8h1.25l0.07,0.94c0.46-0.73,1.13-1.09,1.99-1.09c0.93,0,1.62,0.32,2.08,0.97c0.46,0.65,0.7,1.61,0.71,2.9V59.43z
			 M500.09,58.64c0-0.95-0.15-1.65-0.44-2.1c-0.29-0.45-0.76-0.68-1.41-0.68c-0.66,0-1.16,0.33-1.51,0.99v4.4
			c0.34,0.65,0.85,0.97,1.52,0.97c0.62,0,1.08-0.22,1.38-0.68c0.29-0.45,0.44-1.14,0.45-2.07V58.64z"/>
		<path class="st11" d="M506.74,56.1c-0.19-0.04-0.4-0.05-0.62-0.05c-0.71,0-1.2,0.39-1.48,1.16v6.05h-1.38V54.8h1.34l0.02,0.86
			c0.37-0.68,0.89-1.02,1.57-1.02c0.22,0,0.4,0.04,0.55,0.11L506.74,56.1z"/>
		<path class="st11" d="M507.66,58.64c0-1.23,0.3-2.2,0.89-2.92c0.6-0.72,1.38-1.07,2.36-1.07c0.98,0,1.77,0.35,2.36,1.05
			c0.6,0.7,0.9,1.65,0.92,2.85v0.89c0,1.22-0.3,2.19-0.89,2.91c-0.59,0.71-1.39,1.07-2.38,1.07c-0.98,0-1.76-0.35-2.36-1.04
			c-0.59-0.69-0.9-1.63-0.92-2.81V58.64z M509.05,59.43c0,0.87,0.17,1.55,0.51,2.05c0.34,0.5,0.8,0.75,1.38,0.75
			c1.22,0,1.85-0.88,1.88-2.64v-0.95c0-0.86-0.17-1.55-0.52-2.05c-0.34-0.5-0.8-0.75-1.38-0.75c-0.57,0-1.02,0.25-1.36,0.75
			c-0.34,0.5-0.51,1.18-0.51,2.04V59.43z"/>
		<path class="st11" d="M522.09,59.43c0,1.34-0.24,2.34-0.72,2.99c-0.48,0.66-1.16,0.98-2.04,0.98c-0.85,0-1.5-0.32-1.96-0.96v4.05
			h-1.38V54.8h1.25l0.07,0.94c0.46-0.73,1.13-1.09,1.99-1.09c0.93,0,1.62,0.32,2.08,0.97c0.46,0.65,0.7,1.61,0.71,2.9V59.43z
			 M520.72,58.64c0-0.95-0.15-1.65-0.44-2.1c-0.29-0.45-0.76-0.68-1.41-0.68c-0.66,0-1.16,0.33-1.51,0.99v4.4
			c0.34,0.65,0.85,0.97,1.52,0.97c0.62,0,1.08-0.22,1.38-0.68c0.29-0.45,0.44-1.14,0.45-2.07V58.64z"/>
		<path class="st11" d="M525.48,52.56c0,0.23-0.07,0.43-0.2,0.59c-0.13,0.16-0.33,0.23-0.59,0.23c-0.26,0-0.46-0.08-0.59-0.23
			c-0.13-0.16-0.2-0.35-0.2-0.59s0.06-0.43,0.2-0.59c0.13-0.16,0.33-0.24,0.59-0.24c0.26,0,0.46,0.08,0.59,0.25
			S525.48,52.33,525.48,52.56z M525.37,63.25h-1.38V54.8h1.38V63.25z"/>
		<path class="st11" d="M531.89,63.25c-0.08-0.18-0.14-0.49-0.18-0.92c-0.49,0.72-1.11,1.08-1.88,1.08c-0.77,0-1.36-0.21-1.79-0.64
			s-0.64-1.04-0.64-1.82c0-0.86,0.29-1.54,0.88-2.05c0.58-0.5,1.38-0.76,2.4-0.77h1.02v-0.9c0-0.5-0.11-0.86-0.34-1.08
			c-0.22-0.21-0.57-0.32-1.02-0.32c-0.42,0-0.76,0.12-1.02,0.37c-0.26,0.25-0.39,0.56-0.39,0.94h-1.38c0-0.43,0.13-0.84,0.38-1.24
			c0.25-0.39,0.6-0.7,1.03-0.93c0.43-0.22,0.91-0.34,1.45-0.34c0.86,0,1.52,0.21,1.97,0.64c0.45,0.43,0.68,1.06,0.69,1.88v4.27
			c0,0.65,0.09,1.22,0.27,1.7v0.12H531.89z M530.05,62.15c0.34,0,0.66-0.09,0.97-0.28c0.31-0.19,0.53-0.42,0.67-0.7v-2.02h-0.78
			c-0.66,0.01-1.17,0.16-1.55,0.44c-0.38,0.28-0.57,0.68-0.57,1.19c0,0.48,0.1,0.83,0.29,1.04
			C529.26,62.04,529.59,62.15,530.05,62.15z"/>
	</g>
	<line class="st101" x1="0.52" y1="83.09" x2="549.76" y2="83.09"/>
</g>
<g id="Capa_3">
</g>
<g id="ai2html-settings">
</g>
</svg>
