<?xml version="1.0" encoding="utf-8"?>
<!-- Generator: Adobe Illustrator 23.0.5, SVG Export Plug-In . SVG Version: 6.00 Build 0)  -->
<svg version="1.1" xmlns="http://www.w3.org/2000/svg" xmlns:xlink="http://www.w3.org/1999/xlink" x="0px" y="0px"
	 viewBox="0 0 319.93 46.33" style="enable-background:new 0 0 319.93 46.33;" xml:space="preserve">
<style type="text/css">
	.st0{display:none;}
	.st1{display:inline;}
	.st2{fill:#C7D2DA;}
	.st3{fill:#FFFFFF;}
	.st4{fill:none;stroke:#6AC3CC;stroke-miterlimit:10;}
	.st5{fill:#D2EBF8;}
	.st6{fill:#F3F9FD;}
	.st7{display:inline;fill:#FFFFFF;stroke:#6AC3CC;stroke-miterlimit:10;}
	.st8{display:inline;fill:#FFFFFF;stroke:#B99AC8;}
	.st9{fill:#E4E6E6;}
	.st10{fill:#FFD544;}
	.st11{fill:#1D1D1B;}
	.st12{fill:#808080;}
	.st13{fill:#67ACDD;}
	.st14{fill:#D4B276;}
	.st15{fill:none;stroke:#878787;stroke-width:0.6525;stroke-miterlimit:10;}
	.st16{fill:none;}
	.st17{fill:#E9CEA4;}
	.st18{fill:#95CCE7;}
	.st19{fill:none;stroke:#1D1D1B;stroke-width:2.8284;stroke-linecap:round;stroke-linejoin:round;stroke-miterlimit:10;}
	.st20{fill:none;stroke:#1D1D1B;stroke-width:3.7712;stroke-linecap:round;stroke-linejoin:round;stroke-miterlimit:10;}
	.st21{fill:none;stroke:#1D1D1B;stroke-width:0.9428;stroke-linecap:round;stroke-linejoin:round;stroke-miterlimit:10;}
	.st22{fill:none;stroke:#1D1D1B;stroke-width:0.9428;stroke-linecap:round;stroke-linejoin:round;}
	.st23{fill:none;stroke:#FFFFFF;stroke-width:0.9428;stroke-linecap:round;stroke-linejoin:round;stroke-miterlimit:10;}
	.st24{fill:none;stroke:#E9CEA4;stroke-width:0.9428;stroke-linecap:round;stroke-linejoin:round;stroke-miterlimit:10;}
	.st25{fill:none;stroke:#1D1D1B;stroke-width:2.4513;stroke-linejoin:round;stroke-miterlimit:10;}
	.st26{fill:#56B25B;}
	.st27{fill:#D4B388;}
	.st28{fill:#E9CEA3;}
	.st29{fill:#D4B489;}
	.st30{fill:none;stroke:#1D1D1B;stroke-width:3.0206;stroke-linecap:round;stroke-linejoin:round;stroke-miterlimit:10;}
	.st31{fill:none;stroke:#1D1D1B;stroke-width:4.0275;stroke-linecap:round;stroke-linejoin:round;stroke-miterlimit:10;}
	.st32{fill:#000100;}
	.st33{fill:none;stroke:#1D1D1B;stroke-width:0.6041;stroke-miterlimit:10;}
	.st34{fill:none;stroke:#000000;stroke-width:0.6041;stroke-miterlimit:10;}
	.st35{fill:#E0C49D;}
	.st36{fill:none;stroke:#E9CEA4;stroke-width:0.8499;stroke-miterlimit:10;}
	.st37{fill:#1D1D1B;stroke:#E9CEA4;stroke-width:0.8499;stroke-miterlimit:10;}
	.st38{fill:none;stroke:#1D1D1B;stroke-width:2.9745;stroke-linecap:round;stroke-linejoin:round;}
	.st39{fill:none;stroke:#1D1D1B;stroke-width:1.7935;stroke-miterlimit:10;}
	.st40{fill:none;stroke:#1D1D1B;stroke-width:1.2683;stroke-miterlimit:10;}
	.st41{fill:#1D1D1B;stroke:#1D1E1C;stroke-width:0.3224;}
	.st42{fill:none;stroke:#1D1E1C;stroke-width:0.2149;}
	.st43{fill:none;stroke:#1D1E1C;stroke-width:0.2858;}
	.st44{fill:#F08487;}
	.st45{fill:#FFCC00;}
	.st46{fill:none;stroke:#1D1D1B;stroke-width:0.75;}
	.st47{fill:#F08487;stroke:#FFFFFF;stroke-width:0.5;}
	.st48{fill:none;stroke:#1D1D1B;stroke-width:0.8399;stroke-miterlimit:10;stroke-dasharray:0.8399,2.0157;}
	.st49{fill:none;stroke:#F08487;stroke-width:1.6797;}
	.st50{fill:none;stroke:#E5E5E5;stroke-width:9;}
	.st51{fill:none;stroke:#E5E5E5;stroke-width:8;}
	.st52{fill:none;stroke:#FFFFFF;stroke-width:2;}
	.st53{fill:none;stroke:#CCCBCB;stroke-width:8;}
	.st54{fill:#E50046;}
	.st55{fill:none;stroke:#E5E5E5;stroke-width:13;}
	.st56{fill:none;stroke:#E5E5E5;stroke-width:4;}
	.st57{fill:none;stroke:#1D1D1B;stroke-width:0.6813;stroke-miterlimit:10;stroke-dasharray:0.6813,1.6352;}
	.st58{fill:none;stroke:#F08487;stroke-width:1.3627;}
	.st59{fill:none;stroke:#EBBD00;stroke-width:2.044;}
	.st60{fill:#EBBD00;}
	.st61{fill:#E7B100;}
	.st62{fill:#B2B2B2;}
	.st63{fill:none;stroke:#FFD544;stroke-width:2.3549;stroke-linecap:round;stroke-linejoin:round;}
	.st64{fill:none;stroke:#B1B1B1;stroke-width:2.3549;stroke-linecap:round;stroke-linejoin:round;}
	.st65{fill:#B1B1B1;}
	.st66{fill:none;stroke:#1D1D1B;stroke-width:1.8115;}
	.st67{fill:none;stroke:#E50046;stroke-width:0.7481;}
	.st68{fill:none;stroke:#E50046;stroke-width:0.75;}
	.st69{fill:none;stroke:#1D1D1B;stroke-width:0.7246;}
	.st70{fill:none;stroke:#1D1D1B;stroke-width:0.7246;stroke-dasharray:0.7206,2.1619;}
	.st71{fill:none;stroke:#1D1D1B;stroke-width:0.7246;stroke-dasharray:0.7329,2.1986;}
	.st72{fill:none;stroke:#1D1D1B;stroke-width:0.7246;stroke-dasharray:0.7246,2.1738;}
	.st73{fill:none;stroke:#B1B1B1;stroke-width:3;stroke-linecap:round;stroke-linejoin:round;}
	.st74{fill:none;stroke:#FFD544;stroke-width:3;stroke-linecap:round;stroke-linejoin:round;}
	.st75{fill:none;stroke:#575756;stroke-width:3.623;stroke-miterlimit:10;}
	.st76{fill:none;stroke:#1D1D1B;stroke-width:0.5434;}
	.st77{fill:none;stroke:#1D1D1B;stroke-width:0.9057;stroke-miterlimit:10;}
	.st78{fill:none;stroke:#1D1D1B;stroke-width:3.2193;stroke-linecap:round;stroke-linejoin:round;stroke-miterlimit:10;}
	.st79{fill:none;stroke:#1D1D1B;stroke-width:4.2924;stroke-linecap:round;stroke-linejoin:round;stroke-miterlimit:10;}
	.st80{fill:none;stroke:#E9CEA3;stroke-width:0.3623;stroke-miterlimit:10;}
	.st81{fill:none;stroke:#1D1E1C;stroke-width:0.6439;stroke-miterlimit:10;}
	.st82{fill:none;stroke:#1D1D1B;stroke-width:4.257;stroke-linecap:round;stroke-linejoin:round;stroke-miterlimit:10;}
	.st83{fill:#E0C49C;}
	.st84{fill:none;stroke:#E9CEA3;stroke-width:0.9057;stroke-miterlimit:10;}
	.st85{fill:#1D1D1B;stroke:#E9CEA3;stroke-width:0.9057;stroke-miterlimit:10;}
	.st86{fill:none;stroke:#1D1D1B;stroke-width:3.1701;stroke-linecap:round;stroke-linejoin:round;}
	.st87{fill:#1D1D1B;stroke:#E9CEA3;stroke-width:0.5434;stroke-miterlimit:10;}
	.st88{fill:none;stroke:#E9CEA3;stroke-width:0.5434;stroke-miterlimit:10;}
	.st89{fill:none;stroke:#000000;stroke-width:0.6439;stroke-miterlimit:10;}
	.st90{fill:#C4A880;}
	.st91{fill:#878787;}
	.st92{opacity:0.5;fill:#DADADA;}
	.st93{fill:#00A13A;}
	.st94{fill:#3395C1;}
	.st95{fill:none;stroke:#F08487;stroke-width:2.3549;stroke-linejoin:round;stroke-miterlimit:10;}
	.st96{fill:none;stroke:#56B25B;stroke-width:2.3549;stroke-linejoin:round;stroke-miterlimit:10;}
	.st97{fill:none;stroke:#95CCE7;stroke-width:2.3549;stroke-linejoin:round;stroke-miterlimit:10;}
	.st98{fill:none;stroke:#000000;stroke-width:0.75;}
	.st99{fill:none;stroke:#E42421;}
	.st100{fill:none;stroke:#000000;stroke-width:0.5;}
	.st101{fill:none;stroke:#1D1D1B;stroke-width:0.5;stroke-miterlimit:10;}
	.st102{fill:none;stroke:#989898;stroke-width:0.75;}
</style>
<g id="Capa_2" class="st0">
</g>
<g id="Capa_5" class="st0">
</g>
<g id="Graficoooo">
	<g>
		<g>
			<rect x="0.58" y="11.68" class="st16" width="278.2" height="34.86"/>
			<path class="st11" d="M6.52,19.59H3.39v4.06H1.38V13.7h5.51v1.67h-3.5v2.55h3.12V19.59z"/>
			<path class="st11" d="M14.52,13.7v6.89c-0.01,1.03-0.29,1.83-0.85,2.38s-1.36,0.82-2.41,0.82c-1.07,0-1.88-0.28-2.44-0.83
				c-0.56-0.56-0.84-1.36-0.84-2.41V13.7h2.02v6.85c0,0.56,0.09,0.97,0.27,1.21c0.18,0.24,0.51,0.36,0.99,0.36s0.81-0.12,0.98-0.36
				s0.27-0.63,0.27-1.18V13.7H14.52z"/>
			<path class="st11" d="M21.18,19.35h-3.13v2.64h3.71v1.67h-5.71V13.7h5.7v1.67h-3.69v2.35h3.13V19.35z"/>
			<path class="st11" d="M29.87,23.65h-2.01l-2.94-6.53v6.53h-2.01V13.7h2.01l2.95,6.54V13.7h2V23.65z"/>
			<path class="st11" d="M37.73,15.37h-2.46v8.28h-2.02v-8.28h-2.42V13.7h6.9V15.37z"/>
			<path class="st11" d="M44.03,19.35H40.9v2.64h3.71v1.67h-5.71V13.7h5.7v1.67H40.9v2.35h3.13V19.35z"/>
			<path class="st11" d="M49.96,21.04c0-0.41-0.1-0.71-0.31-0.92s-0.58-0.42-1.13-0.65c-1-0.38-1.72-0.82-2.15-1.33
				s-0.66-1.11-0.66-1.8c0-0.84,0.3-1.51,0.89-2.02s1.35-0.76,2.27-0.76c0.61,0,1.16,0.13,1.63,0.39s0.85,0.62,1.1,1.09
				c0.26,0.47,0.39,1,0.39,1.6h-2c0-0.46-0.1-0.82-0.3-1.06s-0.48-0.37-0.86-0.37c-0.35,0-0.62,0.1-0.82,0.31s-0.29,0.49-0.29,0.84
				c0,0.27,0.11,0.52,0.33,0.74s0.61,0.45,1.16,0.69c0.97,0.35,1.68,0.78,2.12,1.29c0.44,0.51,0.66,1.16,0.66,1.95
				c0,0.87-0.28,1.54-0.83,2.03c-0.55,0.49-1.3,0.73-2.25,0.73c-0.64,0-1.23-0.13-1.76-0.4c-0.53-0.26-0.94-0.64-1.24-1.13
				s-0.45-1.07-0.45-1.74h2.02c0,0.57,0.11,0.99,0.33,1.25s0.59,0.39,1.09,0.39C49.61,22.16,49.96,21.78,49.96,21.04z"/>
			<path class="st11" d="M53.39,17.08c0-0.31,0.1-0.57,0.31-0.77c0.21-0.2,0.48-0.3,0.81-0.3c0.32,0,0.59,0.1,0.81,0.3
				s0.32,0.46,0.32,0.77c0,0.32-0.11,0.57-0.32,0.77s-0.48,0.29-0.8,0.29c-0.32,0-0.59-0.1-0.8-0.29
				C53.5,17.65,53.39,17.39,53.39,17.08z M53.39,22.67c0-0.31,0.1-0.57,0.31-0.77c0.21-0.2,0.48-0.3,0.81-0.3
				c0.32,0,0.59,0.1,0.81,0.3s0.32,0.46,0.32,0.77c0,0.32-0.11,0.57-0.32,0.77s-0.48,0.29-0.8,0.29c-0.32,0-0.59-0.1-0.8-0.29
				C53.5,23.24,53.39,22.98,53.39,22.67z"/>
			<path class="st11" d="M61.32,13.02l0.68,0.49c-0.36,0.59-0.55,1.21-0.56,1.86v0.94h-1.2v-0.79c0-0.46,0.1-0.92,0.3-1.38
				S61.01,13.31,61.32,13.02z"/>
			<path class="st11" d="M68.13,19.05h-3.52v3.53h4.1v1.07h-5.35V13.7h5.28v1.07h-4.03v3.21h3.52V19.05z"/>
			<path class="st11" d="M71.45,23.65h-1.21v-10.5h1.21V23.65z"/>
			<path class="st11" d="M77.76,17.01c0.46-0.6,1.05-0.89,1.76-0.89c1.31,0,1.97,0.87,1.99,2.62v4.92h-1.2v-4.86
				c0-0.58-0.1-0.99-0.29-1.23s-0.48-0.37-0.87-0.37c-0.3,0-0.57,0.1-0.81,0.3c-0.24,0.2-0.43,0.46-0.58,0.79v5.37h-1.21v-10.5h1.21
				V17.01z"/>
			<path class="st11" d="M83.06,19.61c0-1.08,0.26-1.93,0.78-2.55s1.21-0.94,2.07-0.94s1.55,0.3,2.07,0.92
				c0.52,0.61,0.79,1.44,0.8,2.49v0.78c0,1.07-0.26,1.92-0.78,2.54c-0.52,0.62-1.21,0.94-2.08,0.94c-0.86,0-1.54-0.3-2.06-0.91
				c-0.52-0.61-0.79-1.43-0.8-2.46V19.61z M84.27,20.31c0,0.76,0.15,1.36,0.45,1.79s0.7,0.65,1.21,0.65c1.07,0,1.62-0.77,1.65-2.31
				v-0.83c0-0.76-0.15-1.35-0.45-1.79s-0.7-0.66-1.21-0.66c-0.5,0-0.89,0.22-1.19,0.66s-0.45,1.04-0.45,1.79V20.31z"/>
			<path class="st11" d="M91.48,16.26l0.03,0.68c0.45-0.55,1.05-0.82,1.78-0.82c0.82,0,1.4,0.36,1.73,1.07
				c0.46-0.71,1.11-1.07,1.94-1.07c1.36,0,2.06,0.85,2.09,2.55v4.98h-1.2v-4.87c0-0.54-0.1-0.94-0.29-1.2s-0.52-0.39-0.97-0.39
				c-0.36,0-0.66,0.14-0.89,0.42c-0.23,0.28-0.36,0.64-0.4,1.08v4.96h-1.22v-4.92c-0.01-1.03-0.43-1.54-1.25-1.54
				c-0.61,0-1.04,0.31-1.29,0.92v5.54h-1.2v-7.4H91.48z"/>
			<path class="st11" d="M106.23,20.31c0,1.15-0.21,2.02-0.62,2.61c-0.41,0.58-1.02,0.88-1.8,0.88c-0.78,0-1.37-0.34-1.76-1.01
				l-0.06,0.88h-1.1v-10.5h1.2v3.92c0.4-0.63,0.97-0.95,1.71-0.95c0.81,0,1.42,0.29,1.83,0.86s0.61,1.44,0.62,2.6V20.31z
				 M105.03,19.62c0-0.87-0.12-1.5-0.37-1.87s-0.64-0.56-1.19-0.56c-0.62,0-1.09,0.34-1.39,1.01v3.52c0.3,0.66,0.77,1,1.41,1
				c0.55,0,0.94-0.19,1.18-0.57c0.24-0.38,0.36-0.98,0.36-1.78V19.62z"/>
			<path class="st11" d="M110.83,17.39c-0.17-0.03-0.35-0.05-0.55-0.05c-0.62,0-1.05,0.34-1.3,1.02v5.29h-1.21v-7.4h1.18l0.02,0.75
				c0.32-0.59,0.78-0.89,1.37-0.89c0.19,0,0.35,0.03,0.48,0.1L110.83,17.39z"/>
			<path class="st11" d="M114.55,23.79c-0.92,0-1.63-0.28-2.12-0.82s-0.74-1.35-0.75-2.42v-0.9c0-1.1,0.24-1.97,0.72-2.59
				s1.15-0.94,2.01-0.94c0.87,0,1.51,0.28,1.94,0.83c0.43,0.55,0.65,1.41,0.66,2.58v0.79h-4.13v0.17c0,0.79,0.15,1.37,0.45,1.73
				c0.3,0.36,0.73,0.54,1.29,0.54c0.36,0,0.67-0.07,0.94-0.2s0.53-0.35,0.76-0.64l0.63,0.77C116.43,23.42,115.63,23.79,114.55,23.79
				z M114.42,17.16c-0.5,0-0.87,0.17-1.11,0.52s-0.38,0.88-0.41,1.6h2.91v-0.16c-0.03-0.7-0.16-1.2-0.38-1.5
				S114.87,17.16,114.42,17.16z"/>
			<path class="st11" d="M121.42,19.62c0-1.15,0.21-2.03,0.63-2.62s1.04-0.88,1.87-0.88c0.72,0,1.27,0.29,1.67,0.86l0.05-0.72h1.11
				V26.5h-1.21V23c-0.39,0.52-0.93,0.79-1.63,0.79c-0.8,0-1.41-0.29-1.84-0.87s-0.65-1.43-0.66-2.54V19.62z M122.63,20.31
				c0,0.83,0.13,1.45,0.38,1.85c0.26,0.4,0.66,0.6,1.22,0.6c0.56,0,1-0.27,1.31-0.81v-3.96c-0.33-0.55-0.76-0.82-1.31-0.82
				c-0.56,0-0.96,0.2-1.22,0.6c-0.26,0.4-0.39,1-0.39,1.81V20.31z"/>
			<path class="st11" d="M132.45,23c-0.4,0.52-0.99,0.79-1.76,0.79c-0.67,0-1.18-0.23-1.52-0.69s-0.52-1.14-0.52-2.02v-4.82h1.2
				v4.73c0,1.15,0.35,1.73,1.04,1.73c0.73,0,1.24-0.33,1.52-0.98v-5.47h1.21v7.4h-1.15L132.45,23z"/>
			<path class="st11" d="M138.09,23.79c-0.92,0-1.63-0.28-2.12-0.82s-0.74-1.35-0.75-2.42v-0.9c0-1.1,0.24-1.97,0.72-2.59
				s1.15-0.94,2.01-0.94c0.87,0,1.51,0.28,1.94,0.83c0.43,0.55,0.65,1.41,0.66,2.58v0.79h-4.13v0.17c0,0.79,0.15,1.37,0.45,1.73
				c0.3,0.36,0.73,0.54,1.29,0.54c0.36,0,0.67-0.07,0.94-0.2s0.53-0.35,0.76-0.64l0.63,0.77C139.96,23.42,139.17,23.79,138.09,23.79
				z M137.95,17.16c-0.5,0-0.87,0.17-1.11,0.52s-0.38,0.88-0.41,1.6h2.91v-0.16c-0.03-0.7-0.16-1.2-0.38-1.5
				S138.4,17.16,137.95,17.16z"/>
			<path class="st11" d="M146.35,16.26l0.03,0.68c0.45-0.55,1.05-0.82,1.78-0.82c0.82,0,1.4,0.36,1.73,1.07
				c0.46-0.71,1.11-1.07,1.94-1.07c1.36,0,2.06,0.85,2.09,2.55v4.98h-1.2v-4.87c0-0.54-0.1-0.94-0.29-1.2s-0.52-0.39-0.97-0.39
				c-0.36,0-0.66,0.14-0.89,0.42c-0.23,0.28-0.36,0.64-0.4,1.08v4.96h-1.22v-4.92c-0.01-1.03-0.43-1.54-1.25-1.54
				c-0.61,0-1.04,0.31-1.29,0.92v5.54h-1.2v-7.4H146.35z"/>
			<path class="st11" d="M159.55,23.65c-0.07-0.16-0.13-0.43-0.16-0.81c-0.43,0.63-0.98,0.94-1.64,0.94c-0.67,0-1.19-0.19-1.57-0.56
				s-0.56-0.91-0.56-1.59c0-0.75,0.26-1.35,0.77-1.79c0.51-0.44,1.21-0.67,2.1-0.68h0.89v-0.79c0-0.44-0.1-0.76-0.29-0.94
				c-0.2-0.19-0.49-0.28-0.9-0.28c-0.36,0-0.66,0.11-0.89,0.32s-0.34,0.49-0.34,0.82h-1.21c0-0.38,0.11-0.74,0.33-1.08
				s0.52-0.61,0.9-0.81c0.38-0.2,0.8-0.29,1.26-0.29c0.76,0,1.33,0.19,1.73,0.56s0.6,0.92,0.6,1.64v3.73c0,0.57,0.08,1.06,0.23,1.48
				v0.11H159.55z M157.93,22.69c0.3,0,0.58-0.08,0.85-0.25s0.46-0.37,0.59-0.62v-1.76h-0.68c-0.57,0.01-1.03,0.14-1.36,0.39
				s-0.5,0.6-0.5,1.04c0,0.42,0.08,0.72,0.25,0.91S157.53,22.69,157.93,22.69z"/>
			<path class="st11" d="M164.03,14.47v1.79h1.11v0.98h-1.11v4.59c0,0.29,0.05,0.51,0.14,0.66c0.1,0.15,0.26,0.22,0.49,0.22
				c0.16,0,0.32-0.03,0.49-0.08l-0.01,1.02c-0.27,0.09-0.55,0.14-0.84,0.14c-0.48,0-0.84-0.17-1.09-0.51s-0.38-0.82-0.38-1.45v-4.59
				h-1.13v-0.98h1.13v-1.79H164.03z"/>
			<path class="st11" d="M166.19,19.61c0-1.08,0.26-1.93,0.78-2.55s1.21-0.94,2.07-0.94s1.55,0.3,2.07,0.92
				c0.52,0.61,0.79,1.44,0.8,2.49v0.78c0,1.07-0.26,1.92-0.78,2.54c-0.52,0.62-1.21,0.94-2.08,0.94c-0.86,0-1.54-0.3-2.06-0.91
				c-0.52-0.61-0.79-1.43-0.8-2.46V19.61z M167.4,20.31c0,0.76,0.15,1.36,0.45,1.79s0.7,0.65,1.21,0.65c1.07,0,1.62-0.77,1.65-2.31
				v-0.83c0-0.76-0.15-1.35-0.45-1.79s-0.7-0.66-1.21-0.66c-0.5,0-0.89,0.22-1.19,0.66s-0.45,1.04-0.45,1.79V20.31z M169.61,13.15
				h1.53l-1.83,2.01l-1.02,0L169.61,13.15z"/>
			<path class="st11" d="M180.49,23.65c-0.07-0.16-0.13-0.43-0.16-0.81c-0.43,0.63-0.98,0.94-1.64,0.94c-0.67,0-1.19-0.19-1.57-0.56
				s-0.56-0.91-0.56-1.59c0-0.75,0.26-1.35,0.77-1.79c0.51-0.44,1.21-0.67,2.1-0.68h0.89v-0.79c0-0.44-0.1-0.76-0.29-0.94
				c-0.2-0.19-0.49-0.28-0.9-0.28c-0.36,0-0.66,0.11-0.89,0.32s-0.34,0.49-0.34,0.82h-1.21c0-0.38,0.11-0.74,0.33-1.08
				s0.52-0.61,0.9-0.81c0.38-0.2,0.8-0.29,1.26-0.29c0.76,0,1.33,0.19,1.73,0.56s0.6,0.92,0.6,1.64v3.73c0,0.57,0.08,1.06,0.23,1.48
				v0.11H180.49z M178.87,22.69c0.3,0,0.58-0.08,0.85-0.25s0.46-0.37,0.59-0.62v-1.76h-0.68c-0.57,0.01-1.03,0.14-1.36,0.39
				s-0.5,0.6-0.5,1.04c0,0.42,0.08,0.72,0.25,0.91S178.47,22.69,178.87,22.69z"/>
			<path class="st11" d="M188.02,22.58h3.9v1.07h-5.16V13.7h1.26V22.58z"/>
			<path class="st11" d="M194.64,14.29c0,0.21-0.06,0.38-0.17,0.51s-0.29,0.21-0.52,0.21c-0.23,0-0.4-0.07-0.51-0.21
				s-0.17-0.31-0.17-0.51s0.06-0.38,0.17-0.52c0.11-0.14,0.28-0.21,0.51-0.21s0.4,0.07,0.52,0.21S194.64,14.09,194.64,14.29z
				 M194.55,23.65h-1.21v-7.4h1.21V23.65z"/>
			<path class="st11" d="M201.81,20.31c0,1.15-0.21,2.02-0.62,2.61c-0.41,0.58-1.02,0.88-1.8,0.88c-0.78,0-1.37-0.34-1.76-1.01
				l-0.06,0.88h-1.1v-10.5h1.2v3.92c0.4-0.63,0.97-0.95,1.71-0.95c0.81,0,1.42,0.29,1.83,0.86s0.61,1.44,0.62,2.6V20.31z
				 M200.6,19.62c0-0.87-0.12-1.5-0.37-1.87s-0.64-0.56-1.19-0.56c-0.62,0-1.09,0.34-1.39,1.01v3.52c0.3,0.66,0.77,1,1.41,1
				c0.55,0,0.94-0.19,1.18-0.57c0.24-0.38,0.36-0.98,0.36-1.78V19.62z"/>
			<path class="st11" d="M206,23.79c-0.92,0-1.63-0.28-2.12-0.82s-0.74-1.35-0.75-2.42v-0.9c0-1.1,0.24-1.97,0.72-2.59
				s1.15-0.94,2.01-0.94c0.87,0,1.51,0.28,1.94,0.83c0.43,0.55,0.65,1.41,0.66,2.58v0.79h-4.13v0.17c0,0.79,0.15,1.37,0.45,1.73
				c0.3,0.36,0.73,0.54,1.29,0.54c0.36,0,0.67-0.07,0.94-0.2s0.53-0.35,0.76-0.64l0.63,0.77C207.87,23.42,207.07,23.79,206,23.79z
				 M205.86,17.16c-0.5,0-0.87,0.17-1.11,0.52s-0.38,0.88-0.41,1.6h2.91v-0.16c-0.03-0.7-0.16-1.2-0.38-1.5
				S206.31,17.16,205.86,17.16z"/>
			<path class="st11" d="M212.96,17.39c-0.17-0.03-0.35-0.05-0.55-0.05c-0.62,0-1.05,0.34-1.3,1.02v5.29h-1.21v-7.4h1.18l0.02,0.75
				c0.32-0.59,0.78-0.89,1.37-0.89c0.19,0,0.35,0.03,0.48,0.1L212.96,17.39z"/>
			<path class="st11" d="M216.09,14.47v1.79h1.11v0.98h-1.11v4.59c0,0.29,0.05,0.51,0.14,0.66c0.1,0.15,0.26,0.22,0.49,0.22
				c0.16,0,0.32-0.03,0.49-0.08l-0.01,1.02c-0.27,0.09-0.55,0.14-0.84,0.14c-0.48,0-0.84-0.17-1.09-0.51s-0.38-0.82-0.38-1.45v-4.59
				h-1.13v-0.98h1.13v-1.79H216.09z"/>
			<path class="st11" d="M220.67,21.64l1.35-5.39h1.29l-2.42,8.44c-0.18,0.63-0.44,1.12-0.77,1.45s-0.71,0.5-1.13,0.5
				c-0.16,0-0.37-0.04-0.63-0.11v-1.03l0.27,0.03c0.35,0,0.63-0.08,0.82-0.25s0.36-0.45,0.48-0.86l0.24-0.83l-2.17-7.33h1.32
				L220.67,21.64z"/>
			<path class="st11" d="M230.7,21.73l2.28-8.03h1.37l-3.1,9.95h-1.09l-3.09-9.95h1.37L230.7,21.73z"/>
			<path class="st11" d="M239.02,23.65c-0.07-0.16-0.13-0.43-0.16-0.81c-0.43,0.63-0.98,0.94-1.64,0.94c-0.67,0-1.19-0.19-1.57-0.56
				s-0.56-0.91-0.56-1.59c0-0.75,0.26-1.35,0.77-1.79c0.51-0.44,1.21-0.67,2.1-0.68h0.89v-0.79c0-0.44-0.1-0.76-0.29-0.94
				c-0.2-0.19-0.49-0.28-0.9-0.28c-0.36,0-0.66,0.11-0.89,0.32s-0.34,0.49-0.34,0.82h-1.21c0-0.38,0.11-0.74,0.33-1.08
				s0.52-0.61,0.9-0.81c0.38-0.2,0.8-0.29,1.26-0.29c0.76,0,1.33,0.19,1.73,0.56s0.6,0.92,0.6,1.64v3.73c0,0.57,0.08,1.06,0.23,1.48
				v0.11H239.02z M237.4,22.69c0.3,0,0.58-0.08,0.85-0.25s0.46-0.37,0.59-0.62v-1.76h-0.68c-0.57,0.01-1.03,0.14-1.36,0.39
				s-0.5,0.6-0.5,1.04c0,0.42,0.08,0.72,0.25,0.91S237,22.69,237.4,22.69z"/>
			<path class="st11" d="M243.22,23.65h-1.21v-10.5h1.21V23.65z"/>
			<path class="st11" d="M248.93,23.65c-0.07-0.16-0.13-0.43-0.16-0.81c-0.43,0.63-0.98,0.94-1.64,0.94c-0.67,0-1.19-0.19-1.57-0.56
				S245,22.32,245,21.64c0-0.75,0.26-1.35,0.77-1.79c0.51-0.44,1.21-0.67,2.1-0.68h0.89v-0.79c0-0.44-0.1-0.76-0.29-0.94
				c-0.2-0.19-0.49-0.28-0.9-0.28c-0.36,0-0.66,0.11-0.89,0.32s-0.34,0.49-0.34,0.82h-1.21c0-0.38,0.11-0.74,0.33-1.08
				s0.52-0.61,0.9-0.81c0.38-0.2,0.8-0.29,1.26-0.29c0.76,0,1.33,0.19,1.73,0.56s0.6,0.92,0.6,1.64v3.73c0,0.57,0.08,1.06,0.23,1.48
				v0.11H248.93z M247.31,22.69c0.3,0,0.58-0.08,0.85-0.25s0.46-0.37,0.59-0.62v-1.76h-0.68c-0.57,0.01-1.03,0.14-1.36,0.39
				s-0.5,0.6-0.5,1.04c0,0.42,0.08,0.72,0.25,0.91S246.91,22.69,247.31,22.69z"/>
			<path class="st11" d="M252.97,16.26l0.03,0.8c0.47-0.62,1.07-0.94,1.8-0.94c1.31,0,1.97,0.87,1.99,2.62v4.92h-1.2v-4.86
				c0-0.58-0.1-0.99-0.29-1.23s-0.48-0.37-0.87-0.37c-0.3,0-0.57,0.1-0.81,0.3c-0.24,0.2-0.43,0.46-0.58,0.79v5.37h-1.21v-7.4
				H252.97z"/>
			<path class="st11" d="M261.17,22.76c0.4,0,0.72-0.12,0.96-0.37s0.37-0.6,0.4-1.06h1.14c-0.03,0.71-0.28,1.3-0.76,1.77
				s-1.06,0.7-1.75,0.7c-0.92,0-1.61-0.29-2.1-0.87s-0.72-1.43-0.72-2.57v-0.81c0-1.12,0.24-1.97,0.72-2.55s1.18-0.87,2.09-0.87
				c0.76,0,1.36,0.24,1.8,0.72s0.68,1.13,0.71,1.96h-1.14c-0.03-0.55-0.16-0.96-0.39-1.23s-0.56-0.41-0.97-0.41
				c-0.54,0-0.94,0.18-1.2,0.53s-0.39,0.93-0.4,1.74v0.94c0,0.87,0.13,1.49,0.39,1.85C260.21,22.58,260.61,22.76,261.17,22.76z"/>
			<path class="st11" d="M267.71,23.79c-0.92,0-1.63-0.28-2.12-0.82s-0.74-1.35-0.75-2.42v-0.9c0-1.1,0.24-1.97,0.72-2.59
				s1.15-0.94,2.01-0.94c0.87,0,1.51,0.28,1.94,0.83c0.43,0.55,0.65,1.41,0.66,2.58v0.79h-4.13v0.17c0,0.79,0.15,1.37,0.45,1.73
				c0.3,0.36,0.73,0.54,1.29,0.54c0.36,0,0.67-0.07,0.94-0.2s0.53-0.35,0.76-0.64l0.63,0.77C269.59,23.42,268.79,23.79,267.71,23.79
				z M267.58,17.16c-0.5,0-0.87,0.17-1.11,0.52s-0.38,0.88-0.41,1.6h2.91v-0.16c-0.03-0.7-0.16-1.2-0.38-1.5
				S268.03,17.16,267.58,17.16z"/>
			<path class="st11" d="M271.23,16.5l-0.68-0.49c0.36-0.6,0.54-1.22,0.55-1.86v-1h1.2v0.92c-0.01,0.44-0.11,0.88-0.3,1.33
				S271.55,16.22,271.23,16.5z"/>
			<path class="st11" d="M1.47,37.61c0-1.19,0.16-2.32,0.49-3.37s0.78-1.98,1.37-2.77c0.36-0.48,0.71-0.83,1.04-1.05l0.24,0.83
				c-0.55,0.52-1,1.31-1.35,2.37s-0.54,2.23-0.57,3.52l-0.01,0.55c0,1.6,0.23,3.02,0.68,4.25c0.34,0.93,0.76,1.64,1.25,2.15
				l-0.24,0.77c-0.42-0.28-0.85-0.75-1.28-1.39C2.01,41.85,1.47,39.89,1.47,37.61z"/>
			<path class="st11" d="M9.48,31.7h1.26v7.05c0,0.95-0.24,1.7-0.73,2.24c-0.49,0.54-1.14,0.81-1.96,0.81
				c-0.84,0-1.5-0.26-1.97-0.77c-0.47-0.51-0.7-1.22-0.7-2.12h1.25c0,0.57,0.13,1.01,0.38,1.33c0.25,0.32,0.6,0.48,1.05,0.48
				c0.43,0,0.78-0.17,1.04-0.52c0.26-0.35,0.39-0.83,0.39-1.46V31.7z"/>
			<path class="st11" d="M12.4,37.61c0-1.08,0.26-1.93,0.78-2.55s1.21-0.94,2.07-0.94c0.86,0,1.55,0.3,2.07,0.92
				c0.52,0.61,0.79,1.44,0.8,2.49v0.78c0,1.07-0.26,1.92-0.78,2.54c-0.52,0.62-1.21,0.94-2.08,0.94c-0.86,0-1.54-0.3-2.06-0.91
				c-0.52-0.61-0.79-1.43-0.8-2.46V37.61z M13.61,38.31c0,0.76,0.15,1.36,0.45,1.79s0.7,0.65,1.21,0.65c1.07,0,1.62-0.77,1.65-2.31
				v-0.83c0-0.76-0.15-1.35-0.45-1.79s-0.7-0.66-1.21-0.66c-0.5,0-0.89,0.22-1.19,0.66s-0.45,1.04-0.45,1.79V38.31z"/>
			<path class="st11" d="M20.89,35.01c0.46-0.6,1.05-0.89,1.76-0.89c1.31,0,1.97,0.87,1.99,2.62v4.92h-1.2v-4.86
				c0-0.58-0.1-0.99-0.29-1.23s-0.48-0.37-0.87-0.37c-0.3,0-0.57,0.1-0.81,0.3c-0.24,0.2-0.43,0.46-0.58,0.79v5.37h-1.21v-10.5h1.21
				V35.01z"/>
			<path class="st11" d="M27.58,34.26l0.03,0.8c0.47-0.62,1.07-0.94,1.8-0.94c1.31,0,1.97,0.87,1.99,2.62v4.92h-1.2v-4.86
				c0-0.58-0.1-0.99-0.29-1.23s-0.48-0.37-0.87-0.37c-0.3,0-0.57,0.1-0.81,0.3c-0.24,0.2-0.43,0.46-0.58,0.79v5.37h-1.21v-7.4H27.58
				z"/>
			<path class="st11" d="M41.2,37.26h-3.36v4.4h-1.25V31.7h5.18v1.07h-3.93v3.41h3.36V37.26z"/>
			<path class="st11" d="M42.75,37.61c0-1.08,0.26-1.93,0.78-2.55s1.21-0.94,2.07-0.94s1.55,0.3,2.07,0.92
				c0.52,0.61,0.79,1.44,0.8,2.49v0.78c0,1.07-0.26,1.92-0.78,2.54c-0.52,0.62-1.21,0.94-2.08,0.94c-0.86,0-1.54-0.3-2.06-0.91
				c-0.52-0.61-0.79-1.43-0.8-2.46V37.61z M43.96,38.31c0,0.76,0.15,1.36,0.45,1.79s0.7,0.65,1.21,0.65c1.07,0,1.62-0.77,1.65-2.31
				v-0.83c0-0.76-0.15-1.35-0.45-1.79s-0.7-0.66-1.21-0.66c-0.5,0-0.89,0.22-1.19,0.66s-0.45,1.04-0.45,1.79V38.31z"/>
			<path class="st11" d="M53.08,35.39c-0.17-0.03-0.35-0.05-0.55-0.05c-0.62,0-1.05,0.34-1.3,1.02v5.29h-1.21v-7.4h1.18l0.02,0.75
				c0.32-0.59,0.78-0.89,1.37-0.89c0.19,0,0.35,0.03,0.48,0.1L53.08,35.39z"/>
			<path class="st11" d="M53.9,37.62c0-1.14,0.21-2.01,0.64-2.61c0.43-0.6,1.04-0.89,1.84-0.89c0.71,0,1.26,0.29,1.65,0.86v-3.83
				h1.21v10.5h-1.11l-0.06-0.79c-0.4,0.62-0.96,0.93-1.7,0.93c-0.77,0-1.37-0.3-1.8-0.89s-0.66-1.43-0.67-2.52V37.62z M55.11,38.31
				c0,0.83,0.12,1.44,0.37,1.83s0.65,0.58,1.2,0.58c0.6,0,1.05-0.3,1.35-0.91v-3.73c-0.31-0.59-0.76-0.89-1.34-0.89
				c-0.56,0-0.96,0.2-1.2,0.58c-0.25,0.39-0.37,0.99-0.38,1.79V38.31z"/>
			<path class="st11" d="M63.71,37.68c0,2.03-0.46,3.83-1.37,5.39c-0.49,0.84-1,1.44-1.53,1.79l-0.24-0.77
				c0.57-0.55,1.04-1.39,1.39-2.53s0.53-2.37,0.54-3.72V37.6c0-1.73-0.28-3.28-0.85-4.65c-0.31-0.75-0.67-1.33-1.07-1.76l0.24-0.77
				c0.5,0.34,0.99,0.89,1.46,1.66C63.23,33.67,63.71,35.53,63.71,37.68z"/>
			<path class="st11" d="M70.79,39.64l1.35-5.39h1.29L71,42.7c-0.18,0.63-0.44,1.12-0.77,1.45s-0.71,0.5-1.13,0.5
				c-0.16,0-0.37-0.04-0.63-0.11v-1.03l0.27,0.03c0.35,0,0.63-0.08,0.82-0.25s0.36-0.45,0.48-0.86l0.24-0.83l-2.17-7.33h1.32
				L70.79,39.64z"/>
			<path class="st11" d="M80.45,41.79c-0.92,0-1.63-0.28-2.12-0.82s-0.74-1.35-0.75-2.42v-0.9c0-1.1,0.24-1.97,0.72-2.59
				s1.15-0.94,2.01-0.94c0.87,0,1.51,0.28,1.94,0.83c0.43,0.55,0.65,1.41,0.66,2.58v0.79h-4.13v0.17c0,0.79,0.15,1.37,0.45,1.73
				c0.3,0.36,0.73,0.54,1.29,0.54c0.36,0,0.67-0.07,0.94-0.2s0.53-0.35,0.76-0.64l0.63,0.77C82.32,41.42,81.52,41.79,80.45,41.79z
				 M80.31,35.16c-0.5,0-0.87,0.17-1.11,0.52s-0.38,0.88-0.41,1.6h2.91v-0.16c-0.03-0.7-0.16-1.2-0.38-1.5S80.76,35.16,80.31,35.16z
				"/>
			<path class="st11" d="M85.66,41.65h-1.21v-10.5h1.21V41.65z"/>
			<path class="st11" d="M91.37,41.65c-0.07-0.16-0.13-0.43-0.16-0.81c-0.43,0.63-0.98,0.94-1.64,0.94c-0.67,0-1.19-0.19-1.57-0.56
				s-0.56-0.91-0.56-1.59c0-0.75,0.26-1.35,0.77-1.79c0.51-0.44,1.21-0.67,2.1-0.68h0.89v-0.79c0-0.44-0.1-0.76-0.29-0.94
				c-0.2-0.19-0.49-0.28-0.9-0.28c-0.36,0-0.66,0.11-0.89,0.32s-0.34,0.49-0.34,0.82h-1.21c0-0.38,0.11-0.74,0.33-1.08
				s0.52-0.61,0.9-0.81c0.38-0.2,0.8-0.29,1.26-0.29c0.76,0,1.33,0.19,1.73,0.56s0.6,0.92,0.6,1.64v3.73c0,0.57,0.08,1.06,0.23,1.48
				v0.11H91.37z M89.76,40.69c0.3,0,0.58-0.08,0.85-0.25s0.46-0.37,0.59-0.62v-1.76h-0.68c-0.57,0.01-1.03,0.14-1.36,0.39
				s-0.5,0.6-0.5,1.04c0,0.42,0.08,0.72,0.25,0.91S89.36,40.69,89.76,40.69z"/>
			<path class="st11" d="M99.63,38.31c0,1.15-0.21,2.02-0.62,2.61c-0.41,0.58-1.02,0.88-1.8,0.88c-0.78,0-1.37-0.34-1.76-1.01
				l-0.06,0.88h-1.1v-10.5h1.2v3.92c0.4-0.63,0.97-0.95,1.71-0.95c0.81,0,1.42,0.29,1.83,0.86s0.61,1.44,0.62,2.6V38.31z
				 M98.43,37.62c0-0.87-0.12-1.5-0.37-1.87s-0.64-0.56-1.19-0.56c-0.62,0-1.09,0.34-1.39,1.01v3.52c0.3,0.66,0.77,1,1.41,1
				c0.55,0,0.94-0.19,1.18-0.57c0.24-0.38,0.36-0.98,0.36-1.78V37.62z"/>
			<path class="st11" d="M100.92,37.61c0-1.08,0.26-1.93,0.78-2.55s1.21-0.94,2.07-0.94s1.55,0.3,2.07,0.92
				c0.52,0.61,0.79,1.44,0.8,2.49v0.78c0,1.07-0.26,1.92-0.78,2.54c-0.52,0.62-1.21,0.94-2.08,0.94c-0.86,0-1.54-0.3-2.06-0.91
				c-0.52-0.61-0.79-1.43-0.8-2.46V37.61z M102.13,38.31c0,0.76,0.15,1.36,0.45,1.79s0.7,0.65,1.21,0.65c1.07,0,1.62-0.77,1.65-2.31
				v-0.83c0-0.76-0.15-1.35-0.45-1.79s-0.7-0.66-1.21-0.66c-0.5,0-0.89,0.22-1.19,0.66s-0.45,1.04-0.45,1.79V38.31z"/>
			<path class="st11" d="M111.26,35.39c-0.17-0.03-0.35-0.05-0.55-0.05c-0.62,0-1.05,0.34-1.3,1.02v5.29h-1.21v-7.4h1.18l0.02,0.75
				c0.32-0.59,0.78-0.89,1.37-0.89c0.19,0,0.35,0.03,0.48,0.1L111.26,35.39z"/>
			<path class="st11" d="M116,41.65c-0.07-0.16-0.13-0.43-0.16-0.81c-0.43,0.63-0.98,0.94-1.64,0.94c-0.67,0-1.19-0.19-1.57-0.56
				s-0.56-0.91-0.56-1.59c0-0.75,0.26-1.35,0.77-1.79c0.51-0.44,1.21-0.67,2.1-0.68h0.89v-0.79c0-0.44-0.1-0.76-0.29-0.94
				c-0.2-0.19-0.49-0.28-0.9-0.28c-0.36,0-0.66,0.11-0.89,0.32s-0.34,0.49-0.34,0.82h-1.21c0-0.38,0.11-0.74,0.33-1.08
				s0.52-0.61,0.9-0.81c0.38-0.2,0.8-0.29,1.26-0.29c0.76,0,1.33,0.19,1.73,0.56s0.6,0.92,0.6,1.64v3.73c0,0.57,0.08,1.06,0.23,1.48
				v0.11H116z M114.38,40.69c0.3,0,0.58-0.08,0.85-0.25s0.46-0.37,0.59-0.62v-1.76h-0.68c-0.57,0.01-1.03,0.14-1.36,0.39
				s-0.5,0.6-0.5,1.04c0,0.42,0.08,0.72,0.25,0.91S113.98,40.69,114.38,40.69z"/>
			<path class="st11" d="M121.46,40.76c0.4,0,0.72-0.12,0.96-0.37s0.37-0.6,0.4-1.06h1.14c-0.03,0.71-0.28,1.3-0.76,1.77
				s-1.06,0.7-1.75,0.7c-0.92,0-1.61-0.29-2.1-0.87s-0.72-1.43-0.72-2.57v-0.81c0-1.12,0.24-1.97,0.72-2.55s1.18-0.87,2.09-0.87
				c0.76,0,1.36,0.24,1.8,0.72s0.68,1.13,0.71,1.96h-1.14c-0.03-0.55-0.16-0.96-0.39-1.23s-0.56-0.41-0.97-0.41
				c-0.54,0-0.94,0.18-1.2,0.53s-0.39,0.93-0.4,1.74v0.94c0,0.87,0.13,1.49,0.39,1.85C120.5,40.58,120.91,40.76,121.46,40.76z"/>
			<path class="st11" d="M126.76,32.29c0,0.21-0.06,0.38-0.17,0.51s-0.29,0.21-0.52,0.21c-0.23,0-0.4-0.07-0.51-0.21
				s-0.17-0.31-0.17-0.51s0.06-0.38,0.17-0.52c0.11-0.14,0.28-0.21,0.51-0.21s0.4,0.07,0.52,0.21S126.76,32.09,126.76,32.29z
				 M126.67,41.65h-1.21v-7.4h1.21V41.65z"/>
			<path class="st11" d="M128.31,37.61c0-1.08,0.26-1.93,0.78-2.55s1.21-0.94,2.07-0.94s1.55,0.3,2.07,0.92
				c0.52,0.61,0.79,1.44,0.8,2.49v0.78c0,1.07-0.26,1.92-0.78,2.54c-0.52,0.62-1.21,0.94-2.08,0.94c-0.86,0-1.54-0.3-2.06-0.91
				c-0.52-0.61-0.79-1.43-0.8-2.46V37.61z M129.52,38.31c0,0.76,0.15,1.36,0.45,1.79s0.7,0.65,1.21,0.65c1.07,0,1.62-0.77,1.65-2.31
				v-0.83c0-0.76-0.15-1.35-0.45-1.79s-0.7-0.66-1.21-0.66c-0.5,0-0.89,0.22-1.19,0.66s-0.45,1.04-0.45,1.79V38.31z M131.73,31.15
				h1.53l-1.83,2.01l-1.02,0L131.73,31.15z"/>
			<path class="st11" d="M136.74,34.26l0.03,0.8c0.47-0.62,1.07-0.94,1.8-0.94c1.31,0,1.97,0.87,1.99,2.62v4.92h-1.2v-4.86
				c0-0.58-0.1-0.99-0.29-1.23s-0.48-0.37-0.87-0.37c-0.3,0-0.57,0.1-0.81,0.3c-0.24,0.2-0.43,0.46-0.58,0.79v5.37h-1.21v-7.4
				H136.74z"/>
			<path class="st11" d="M150.92,38.31c0,1.17-0.21,2.04-0.63,2.62s-1.02,0.86-1.79,0.86c-0.74,0-1.31-0.28-1.72-0.84v3.55h-1.2
				V34.26h1.09l0.06,0.82c0.41-0.64,0.99-0.96,1.74-0.96c0.81,0,1.42,0.28,1.82,0.85c0.4,0.56,0.61,1.41,0.62,2.54V38.31z
				 M149.72,37.62c0-0.83-0.13-1.44-0.38-1.84s-0.67-0.59-1.23-0.59c-0.58,0-1.02,0.29-1.32,0.87v3.85c0.3,0.57,0.74,0.85,1.33,0.85
				c0.55,0,0.95-0.2,1.21-0.59s0.39-1,0.39-1.81V37.62z"/>
			<path class="st11" d="M155.53,35.39c-0.17-0.03-0.35-0.05-0.55-0.05c-0.62,0-1.05,0.34-1.3,1.02v5.29h-1.21v-7.4h1.18l0.02,0.75
				c0.32-0.59,0.78-0.89,1.37-0.89c0.19,0,0.35,0.03,0.48,0.1L155.53,35.39z"/>
			<path class="st11" d="M156.35,37.61c0-1.08,0.26-1.93,0.78-2.55s1.21-0.94,2.07-0.94s1.55,0.3,2.07,0.92
				c0.52,0.61,0.79,1.44,0.8,2.49v0.78c0,1.07-0.26,1.92-0.78,2.54c-0.52,0.62-1.21,0.94-2.08,0.94c-0.86,0-1.54-0.3-2.06-0.91
				c-0.52-0.61-0.79-1.43-0.8-2.46V37.61z M157.56,38.31c0,0.76,0.15,1.36,0.45,1.79s0.7,0.65,1.21,0.65c1.07,0,1.62-0.77,1.65-2.31
				v-0.83c0-0.76-0.15-1.35-0.45-1.79s-0.7-0.66-1.21-0.66c-0.5,0-0.89,0.22-1.19,0.66s-0.45,1.04-0.45,1.79V38.31z"/>
			<path class="st11" d="M168.97,38.31c0,1.17-0.21,2.04-0.63,2.62s-1.02,0.86-1.79,0.86c-0.74,0-1.31-0.28-1.72-0.84v3.55h-1.2
				V34.26h1.09l0.06,0.82c0.41-0.64,0.99-0.96,1.74-0.96c0.81,0,1.42,0.28,1.82,0.85c0.4,0.56,0.61,1.41,0.62,2.54V38.31z
				 M167.77,37.62c0-0.83-0.13-1.44-0.38-1.84s-0.67-0.59-1.23-0.59c-0.58,0-1.02,0.29-1.32,0.87v3.85c0.3,0.57,0.74,0.85,1.33,0.85
				c0.55,0,0.95-0.2,1.21-0.59s0.39-1,0.39-1.81V37.62z"/>
			<path class="st11" d="M171.93,32.29c0,0.21-0.06,0.38-0.17,0.51s-0.29,0.21-0.52,0.21c-0.23,0-0.4-0.07-0.51-0.21
				s-0.17-0.31-0.17-0.51s0.06-0.38,0.17-0.52c0.11-0.14,0.28-0.21,0.51-0.21s0.4,0.07,0.52,0.21S171.93,32.09,171.93,32.29z
				 M171.84,41.65h-1.21v-7.4h1.21V41.65z"/>
			<path class="st11" d="M177.55,41.65c-0.07-0.16-0.13-0.43-0.16-0.81c-0.43,0.63-0.98,0.94-1.64,0.94c-0.67,0-1.19-0.19-1.57-0.56
				s-0.56-0.91-0.56-1.59c0-0.75,0.26-1.35,0.77-1.79c0.51-0.44,1.21-0.67,2.1-0.68h0.89v-0.79c0-0.44-0.1-0.76-0.29-0.94
				c-0.2-0.19-0.49-0.28-0.9-0.28c-0.36,0-0.66,0.11-0.89,0.32s-0.34,0.49-0.34,0.82h-1.21c0-0.38,0.11-0.74,0.33-1.08
				s0.52-0.61,0.9-0.81c0.38-0.2,0.8-0.29,1.26-0.29c0.76,0,1.33,0.19,1.73,0.56s0.6,0.92,0.6,1.64v3.73c0,0.57,0.08,1.06,0.23,1.48
				v0.11H177.55z M175.93,40.69c0.3,0,0.58-0.08,0.85-0.25s0.46-0.37,0.59-0.62v-1.76h-0.68c-0.57,0.01-1.03,0.14-1.36,0.39
				s-0.5,0.6-0.5,1.04c0,0.42,0.08,0.72,0.25,0.91S175.53,40.69,175.93,40.69z"/>
		</g>
		<line class="st101" x1="-0.53" y1="2.02" x2="320.5" y2="2.02"/>
	</g>
</g>
<g id="Capa_3">
</g>
<g id="ai2html-settings">
</g>
</svg>
