<?xml version="1.0" encoding="utf-8"?>
<!-- Generator: Adobe Illustrator 23.0.5, SVG Export Plug-In . SVG Version: 6.00 Build 0)  -->
<svg version="1.1" xmlns="http://www.w3.org/2000/svg" xmlns:xlink="http://www.w3.org/1999/xlink" x="0px" y="0px"
	 viewBox="0 0 319.97 107.19" style="enable-background:new 0 0 319.97 107.19;" xml:space="preserve">
<style type="text/css">
	.st0{fill:#C7D2DA;}
	.st1{fill:#FFFFFF;}
	.st2{fill:none;stroke:#6AC3CC;stroke-miterlimit:10;}
	.st3{fill:#D2EBF8;}
	.st4{fill:#F3F9FD;}
	.st5{fill:#FFFFFF;stroke:#6AC3CC;stroke-miterlimit:10;}
	.st6{fill:#D4B276;}
	.st7{fill:none;stroke:#878787;stroke-width:0.6525;stroke-miterlimit:10;}
	.st8{fill:#1D1D1B;}
	.st9{fill:none;}
	.st10{fill:#E50046;}
	.st11{fill:none;stroke:#1D1D1B;}
	.st12{fill:none;stroke:#E50046;stroke-width:0.5;}
	.st13{fill:none;stroke:#1D1D1B;stroke-width:0.5;}
	.st14{fill:none;stroke:#B1B1B1;stroke-width:2;stroke-linecap:round;stroke-linejoin:round;}
	.st15{fill:#B1B1B1;}
	.st16{fill:none;stroke:#FFD544;stroke-width:2;stroke-linecap:round;stroke-linejoin:round;}
	.st17{fill:#FFD544;}
	.st18{fill:#878787;}
	.st19{fill:#EBBD00;}
	.st20{fill:#B2B2B2;}
	.st21{fill:none;stroke:#797978;stroke-width:5;stroke-miterlimit:10;}
	.st22{fill:none;stroke:#1D1D1B;stroke-width:0.3;}
	.st23{fill:none;stroke:#1D1D1B;stroke-width:0.75;}
	.st24{fill:none;stroke:#1D1D1B;stroke-width:0.75;stroke-dasharray:0.754,2.0108;}
	.st25{fill:none;stroke:#1D1D1B;stroke-width:0.75;stroke-dasharray:0.75,2;}
	.st26{fill:#E9CEA4;}
	.st27{fill:#95CCE7;}
	.st28{fill:none;stroke:#1D1D1B;stroke-width:2.8284;stroke-linecap:round;stroke-linejoin:round;stroke-miterlimit:10;}
	.st29{fill:none;stroke:#1D1D1B;stroke-width:3.7712;stroke-linecap:round;stroke-linejoin:round;stroke-miterlimit:10;}
	.st30{fill:none;stroke:#1D1D1B;stroke-width:0.9428;stroke-linecap:round;stroke-linejoin:round;stroke-miterlimit:10;}
	.st31{fill:none;stroke:#1D1D1B;stroke-width:0.9428;stroke-linecap:round;stroke-linejoin:round;}
	.st32{fill:none;stroke:#FFFFFF;stroke-width:0.9428;stroke-linecap:round;stroke-linejoin:round;stroke-miterlimit:10;}
	.st33{fill:none;stroke:#E9CEA4;stroke-width:0.9428;stroke-linecap:round;stroke-linejoin:round;stroke-miterlimit:10;}
	.st34{fill:none;stroke:#1D1D1B;stroke-width:2.4513;stroke-linejoin:round;stroke-miterlimit:10;}
	.st35{clip-path:url(#SVGID_2_);}
	.st36{fill:#F08487;}
	.st37{clip-path:url(#SVGID_12_);}
	.st38{fill:#00A13A;}
	.st39{fill:#3395C1;}
	.st40{fill:#56B25B;}
	.st41{fill:#FFCC00;}
	.st42{fill:#E4E6E6;}
	.st43{fill:#F08487;stroke:#FFFFFF;stroke-width:0.5;}
	.st44{fill:#95CCE7;stroke:#FFFFFF;stroke-width:0.5;}
	.st45{fill:none;stroke:#1D1D1B;stroke-width:0.5;stroke-miterlimit:10;stroke-dasharray:0.5,1.2;}
	.st46{fill:none;stroke:#F08487;}
	.st47{fill:#FFCC00;stroke:#FFFFFF;stroke-width:0.5;}
	.st48{fill:#56B25B;stroke:#FFFFFF;stroke-width:0.5;stroke-miterlimit:10;}
	.st49{fill:none;stroke:#1D1D1B;stroke-width:0.5;stroke-miterlimit:10;}
	.st50{fill:none;stroke:#E5E5E5;stroke-width:2;}
	.st51{fill:#D4B388;}
	.st52{fill:#E9CEA3;}
	.st53{fill:#C4A880;}
	.st54{fill:none;stroke:#1D1D1B;stroke-width:0.7051;stroke-miterlimit:10;}
	.st55{fill:none;stroke:#1D1D1B;stroke-width:2.5062;stroke-linecap:round;stroke-linejoin:round;stroke-miterlimit:10;}
	.st56{fill:none;stroke:#1D1D1B;stroke-width:3.3416;stroke-linecap:round;stroke-linejoin:round;stroke-miterlimit:10;}
	.st57{fill:none;stroke:#E9CEA3;stroke-width:0.282;stroke-miterlimit:10;}
	.st58{fill:none;stroke:#1D1D1B;stroke-width:2.5448;stroke-linecap:round;stroke-linejoin:round;stroke-miterlimit:10;}
	.st59{fill:none;stroke:#1D1D1B;stroke-width:3.3931;stroke-linecap:round;stroke-linejoin:round;stroke-miterlimit:10;}
	.st60{fill:none;stroke:#1D1E1C;stroke-width:0.509;stroke-miterlimit:10;}
	.st61{fill:none;stroke:#1D1D1B;stroke-width:0.716;stroke-miterlimit:10;}
	.st62{fill:none;stroke:#1D1D1B;stroke-width:3.3651;stroke-linecap:round;stroke-linejoin:round;stroke-miterlimit:10;}
	.st63{fill:#E0C49C;}
	.st64{fill:none;stroke:#E9CEA3;stroke-width:0.716;stroke-miterlimit:10;}
	.st65{fill:#1D1D1B;stroke:#E9CEA3;stroke-width:0.716;stroke-miterlimit:10;}
	.st66{fill:none;stroke:#1D1D1B;stroke-width:2.5059;stroke-linecap:round;stroke-linejoin:round;}
	.st67{fill:#1D1D1B;stroke:#E9CEA3;stroke-width:0.4296;stroke-miterlimit:10;}
	.st68{fill:none;stroke:#E9CEA3;stroke-width:0.4296;stroke-miterlimit:10;}
	.st69{fill:none;stroke:#1D1D1B;stroke-width:2.6709;stroke-linecap:round;stroke-linejoin:round;stroke-miterlimit:10;}
	.st70{fill:none;stroke:#000000;stroke-width:0.5342;stroke-miterlimit:10;}
	.st71{fill:#1D1D1B;stroke:#E9CEA3;stroke-width:0.7514;stroke-miterlimit:10;}
	.st72{fill:none;stroke:#1D1D1B;stroke-width:2.6301;stroke-linecap:round;stroke-linejoin:round;}
	.st73{fill:none;stroke:#E9CEA3;stroke-width:0.7514;stroke-miterlimit:10;}
	.st74{fill:#D4B489;}
	.st75{fill:none;stroke:#1D1D1B;stroke-width:3.0206;stroke-linecap:round;stroke-linejoin:round;stroke-miterlimit:10;}
	.st76{fill:none;stroke:#1D1D1B;stroke-width:4.0275;stroke-linecap:round;stroke-linejoin:round;stroke-miterlimit:10;}
	.st77{fill:#000100;}
	.st78{fill:none;stroke:#1D1D1B;stroke-width:0.6041;stroke-miterlimit:10;}
	.st79{fill:none;stroke:#000000;stroke-width:0.6041;stroke-miterlimit:10;}
	.st80{fill:#E0C49D;}
	.st81{fill:none;stroke:#E9CEA4;stroke-width:0.8499;stroke-miterlimit:10;}
	.st82{fill:#1D1D1B;stroke:#E9CEA4;stroke-width:0.8499;stroke-miterlimit:10;}
	.st83{fill:none;stroke:#1D1D1B;stroke-width:2.9745;stroke-linecap:round;stroke-linejoin:round;}
	.st84{fill:none;stroke:#1D1D1B;stroke-width:1.7935;stroke-miterlimit:10;}
	.st85{fill:none;stroke:#1D1D1B;stroke-width:1.2683;stroke-miterlimit:10;}
	.st86{fill:#1D1D1B;stroke:#1D1E1C;stroke-width:0.3224;}
	.st87{fill:none;stroke:#1D1E1C;stroke-width:0.2149;}
	.st88{fill:none;stroke:#1D1E1C;stroke-width:0.2858;}
	.st89{clip-path:url(#SVGID_20_);}
	.st90{fill:#E7B100;}
	.st91{clip-path:url(#SVGID_22_);}
	.st92{fill:#E6B002;}
	.st93{fill:#CFD0D0;}
	.st94{fill:none;stroke:#989898;stroke-width:0.75;}
	.st95{fill:#808080;}
	.st96{clip-path:url(#SVGID_24_);}
	.st97{fill:none;stroke:#1D1D1B;stroke-width:0.4988;}
	.st98{fill:none;stroke:#EBBD00;stroke-width:1.5;}
	.st99{fill:#56B25B;stroke:#FFFFFF;stroke-width:0.5;}
	.st100{fill:none;stroke:#E42421;}
	.st101{clip-path:url(#SVGID_26_);}
	.st102{fill:none;stroke:#CCCBCB;stroke-width:9;}
</style>
<g id="moviles">
</g>
<g id="capa_graficoooo">
	<g>
		<path class="st8" d="M112.62,14.69v3.75h-2.15V7.77h3.63c1.05,0,1.9,0.33,2.52,0.98s0.94,1.5,0.94,2.55s-0.31,1.87-0.93,2.47
			s-1.48,0.91-2.58,0.91H112.62z M112.62,12.89h1.48c0.41,0,0.73-0.13,0.95-0.4c0.22-0.27,0.34-0.66,0.34-1.17
			c0-0.53-0.11-0.96-0.34-1.27c-0.23-0.32-0.54-0.48-0.92-0.48h-1.5V12.89z"/>
		<path class="st8" d="M122.01,18.58c-1.06,0-1.89-0.32-2.49-0.95s-0.89-1.54-0.89-2.72v-0.63c0-1.25,0.27-2.21,0.82-2.89
			s1.33-1.02,2.35-1.02c1,0,1.75,0.32,2.25,0.95s0.76,1.58,0.77,2.83v1.02h-4.12c0.03,0.59,0.16,1.02,0.39,1.29s0.58,0.41,1.06,0.41
			c0.69,0,1.27-0.24,1.74-0.71l0.81,1.25c-0.25,0.35-0.62,0.64-1.11,0.85C123.1,18.47,122.57,18.58,122.01,18.58z M120.7,13.72h2.07
			v-0.19c-0.01-0.47-0.09-0.83-0.23-1.08s-0.4-0.37-0.76-0.37s-0.62,0.13-0.79,0.39C120.83,12.73,120.73,13.15,120.7,13.72z"/>
		<path class="st8" d="M125.71,14.23c0-1.3,0.22-2.27,0.66-2.91s1.08-0.96,1.92-0.96c0.61,0,1.12,0.26,1.52,0.79V7.19h2.09v11.25
			h-1.88l-0.1-0.8c-0.42,0.63-0.97,0.95-1.64,0.95c-0.83,0-1.46-0.32-1.9-0.95c-0.44-0.63-0.66-1.57-0.67-2.8V14.23z M127.79,14.75
			c0,0.78,0.08,1.33,0.25,1.64c0.17,0.31,0.45,0.46,0.84,0.46c0.41,0,0.72-0.18,0.93-0.55v-3.62c-0.21-0.39-0.51-0.59-0.92-0.59
			c-0.38,0-0.66,0.15-0.83,0.46c-0.18,0.31-0.26,0.85-0.26,1.64V14.75z"/>
		<path class="st8" d="M137.33,12.51l-0.69-0.06c-0.57,0-0.95,0.25-1.15,0.75v5.24h-2.08v-7.92h1.96l0.06,0.86
			c0.33-0.67,0.78-1,1.35-1c0.23,0,0.42,0.03,0.57,0.09L137.33,12.51z"/>
		<path class="st8" d="M137.89,14.22c0-1.2,0.28-2.14,0.85-2.83s1.35-1.03,2.35-1.03c1.01,0,1.8,0.34,2.37,1.03s0.85,1.63,0.85,2.84
			v0.5c0,1.21-0.28,2.15-0.84,2.83s-1.35,1.02-2.36,1.02c-1.02,0-1.81-0.34-2.37-1.02c-0.56-0.68-0.85-1.63-0.85-2.84V14.22z
			 M139.97,14.74c0,1.42,0.38,2.12,1.14,2.12c0.7,0,1.07-0.59,1.13-1.77l0.01-0.87c0-0.72-0.1-1.26-0.3-1.61
			c-0.2-0.35-0.48-0.52-0.85-0.52c-0.35,0-0.63,0.17-0.82,0.52c-0.2,0.35-0.3,0.88-0.3,1.61V14.74z"/>
		<path class="st8" d="M152.62,15.51l1.79-7.73h2.4l-3.08,10.66h-2.24l-3.05-10.66h2.39L152.62,15.51z"/>
		<path class="st8" d="M161.15,18.44c-0.06-0.12-0.12-0.33-0.18-0.62c-0.37,0.51-0.87,0.76-1.51,0.76c-0.66,0-1.21-0.22-1.65-0.66
			s-0.66-1.01-0.66-1.71c0-0.83,0.26-1.47,0.79-1.93c0.53-0.46,1.29-0.69,2.29-0.7h0.63v-0.64c0-0.36-0.06-0.61-0.18-0.75
			s-0.3-0.22-0.53-0.22c-0.52,0-0.78,0.3-0.78,0.91h-2.07c0-0.73,0.27-1.34,0.82-1.81c0.55-0.47,1.24-0.71,2.08-0.71
			c0.87,0,1.54,0.23,2.02,0.68c0.48,0.45,0.71,1.1,0.71,1.94v3.73c0.01,0.68,0.11,1.22,0.29,1.6v0.12H161.15z M159.92,16.96
			c0.23,0,0.42-0.05,0.59-0.14s0.28-0.2,0.36-0.33v-1.65h-0.5c-0.35,0-0.63,0.11-0.83,0.34s-0.3,0.52-0.3,0.9
			C159.24,16.67,159.47,16.96,159.92,16.96z"/>
		<path class="st8" d="M166.62,18.44h-2.08V7.19h2.08V18.44z"/>
		<path class="st8" d="M170.4,18.44h-2.08V7.19h2.08V18.44z"/>
		<path class="st8" d="M174.23,18.44h-2.07v-7.92h2.07V18.44z M173.63,7.3h2.33l-2.04,2.27h-1.73L173.63,7.3z"/>
		<path class="st8" d="M177.83,10.51l0.06,0.78c0.47-0.62,1.08-0.93,1.84-0.93c1.36,0,2.06,0.95,2.1,2.86v5.21h-2.08v-5.05
			c0-0.45-0.07-0.78-0.2-0.98c-0.13-0.2-0.37-0.3-0.71-0.3c-0.38,0-0.67,0.19-0.88,0.58v5.76h-2.08v-7.92H177.83z"/>
		<path class="st8" d="M183.93,21.13l-1.11-0.58l0.28-0.52c0.31-0.58,0.47-1.16,0.48-1.74v-1.65h1.8l-0.01,1.47
			c0,0.52-0.14,1.05-0.4,1.61S184.38,20.74,183.93,21.13z"/>
		<path class="st8" d="M192.37,8.59v1.92h1.19v1.05h-1.19v4.92c0,0.31,0.05,0.55,0.15,0.71c0.1,0.16,0.28,0.24,0.53,0.24
			c0.17,0,0.34-0.03,0.52-0.09l-0.01,1.09c-0.29,0.1-0.59,0.14-0.9,0.14c-0.51,0-0.9-0.18-1.17-0.55s-0.4-0.88-0.4-1.55v-4.92h-1.21
			v-1.05h1.21V8.59H192.37z"/>
		<path class="st8" d="M197.94,18.58c-0.99,0-1.74-0.29-2.27-0.88c-0.53-0.59-0.8-1.45-0.81-2.59v-0.96c0-1.18,0.26-2.11,0.77-2.78
			c0.51-0.67,1.23-1.01,2.16-1.01c0.93,0,1.62,0.29,2.08,0.89s0.69,1.51,0.7,2.76v0.85h-4.42v0.18c0,0.85,0.16,1.47,0.48,1.85
			c0.32,0.38,0.78,0.58,1.38,0.58c0.38,0,0.72-0.07,1.01-0.22c0.29-0.14,0.56-0.37,0.82-0.68l0.67,0.82
			C199.95,18.19,199.09,18.58,197.94,18.58z M197.79,11.48c-0.54,0-0.94,0.18-1.19,0.55s-0.41,0.94-0.44,1.72h3.12v-0.18
			c-0.03-0.75-0.17-1.29-0.41-1.61C198.63,11.64,198.27,11.48,197.79,11.48z"/>
		<path class="st8" d="M204.42,13.41l1.35-2.89h1.5l-2.15,3.92l2.2,4.01h-1.49l-1.4-2.97l-1.41,2.97h-1.49l2.2-4.01l-2.15-3.92h1.49
			L204.42,13.41z"/>
		<path class="st8" d="M210.41,8.59v1.92h1.19v1.05h-1.19v4.92c0,0.31,0.05,0.55,0.15,0.71c0.1,0.16,0.28,0.24,0.53,0.24
			c0.17,0,0.34-0.03,0.52-0.09l-0.01,1.09c-0.29,0.1-0.59,0.14-0.9,0.14c-0.51,0-0.9-0.18-1.17-0.55s-0.4-0.88-0.4-1.55v-4.92h-1.21
			v-1.05h1.21V8.59H210.41z"/>
		<path class="st8" d="M212.72,14.11c0-1.15,0.28-2.06,0.84-2.74c0.56-0.67,1.3-1.01,2.22-1.01s1.66,0.33,2.22,0.98
			c0.56,0.65,0.85,1.55,0.86,2.67v0.83c0,1.15-0.28,2.06-0.83,2.72s-1.3,1-2.23,1c-0.92,0-1.65-0.32-2.21-0.97
			c-0.55-0.65-0.84-1.53-0.86-2.64V14.11z M214.02,14.86c0,0.82,0.16,1.46,0.48,1.92s0.75,0.7,1.29,0.7c1.14,0,1.73-0.83,1.77-2.48
			v-0.89c0-0.81-0.16-1.45-0.48-1.92c-0.32-0.47-0.75-0.71-1.3-0.71c-0.53,0-0.96,0.24-1.28,0.71c-0.32,0.47-0.48,1.11-0.48,1.91
			V14.86z"/>
		<path class="st8" d="M93.95,38.54h-1.07v3.9h-2.15V31.77h3.44c1.08,0,1.91,0.28,2.5,0.84c0.59,0.56,0.88,1.35,0.88,2.38
			c0,1.42-0.52,2.41-1.55,2.97l1.87,4.37v0.1h-2.31L93.95,38.54z M92.88,36.75h1.22c0.43,0,0.75-0.14,0.97-0.43s0.32-0.67,0.32-1.15
			c0-1.07-0.42-1.6-1.25-1.6h-1.26V36.75z"/>
		<path class="st8" d="M102.68,42.44c-0.06-0.12-0.12-0.33-0.18-0.62c-0.37,0.51-0.87,0.76-1.51,0.76c-0.66,0-1.21-0.22-1.65-0.66
			s-0.66-1.01-0.66-1.71c0-0.83,0.26-1.47,0.79-1.93c0.53-0.46,1.29-0.69,2.29-0.7h0.63v-0.64c0-0.36-0.06-0.61-0.18-0.75
			s-0.3-0.22-0.53-0.22c-0.52,0-0.78,0.3-0.78,0.91h-2.07c0-0.73,0.27-1.34,0.82-1.81c0.55-0.47,1.24-0.71,2.08-0.71
			c0.87,0,1.54,0.23,2.02,0.68c0.48,0.45,0.71,1.1,0.71,1.94v3.73c0.01,0.68,0.11,1.22,0.29,1.6v0.12H102.68z M101.46,40.96
			c0.23,0,0.42-0.05,0.59-0.14s0.28-0.2,0.36-0.33v-1.65h-0.5c-0.35,0-0.63,0.11-0.83,0.34s-0.3,0.52-0.3,0.9
			C100.77,40.67,101,40.96,101.46,40.96z"/>
		<path class="st8" d="M109.88,41.71c-0.43,0.58-1.01,0.87-1.73,0.87c-0.73,0-1.28-0.25-1.66-0.75s-0.56-1.23-0.56-2.19v-5.13H108
			v5.19c0.01,0.77,0.27,1.16,0.77,1.16c0.47,0,0.82-0.21,1.03-0.62v-5.73h2.09v7.92h-1.95L109.88,41.71z M109.3,31.19h2.33
			l-2.04,2.27h-1.73L109.3,31.19z"/>
		<path class="st8" d="M115.54,42.44h-2.08V31.19h2.08V42.44z"/>
		<path class="st8" d="M127.93,38.88c-0.05,1.22-0.4,2.14-1.03,2.76s-1.52,0.94-2.67,0.94c-1.21,0-2.13-0.4-2.77-1.19
			s-0.96-1.93-0.96-3.39V36.2c0-1.46,0.33-2.59,1-3.39c0.66-0.79,1.59-1.19,2.77-1.19c1.16,0,2.04,0.33,2.65,0.97
			c0.6,0.65,0.95,1.58,1.03,2.8h-2.16c-0.02-0.75-0.14-1.27-0.35-1.56c-0.21-0.29-0.6-0.43-1.17-0.43c-0.58,0-0.98,0.2-1.22,0.61
			c-0.24,0.4-0.37,1.06-0.38,1.99v2.01c0,1.06,0.12,1.79,0.35,2.18s0.64,0.59,1.22,0.59c0.57,0,0.96-0.14,1.17-0.41
			c0.21-0.28,0.34-0.77,0.37-1.5H127.93z"/>
		<path class="st8" d="M132.92,42.44c-0.06-0.12-0.12-0.33-0.18-0.62c-0.37,0.51-0.87,0.76-1.51,0.76c-0.66,0-1.21-0.22-1.65-0.66
			s-0.66-1.01-0.66-1.71c0-0.83,0.26-1.47,0.79-1.93c0.53-0.46,1.29-0.69,2.29-0.7h0.63v-0.64c0-0.36-0.06-0.61-0.18-0.75
			s-0.3-0.22-0.53-0.22c-0.52,0-0.78,0.3-0.78,0.91h-2.07c0-0.73,0.27-1.34,0.82-1.81c0.55-0.47,1.24-0.71,2.08-0.71
			c0.87,0,1.54,0.23,2.02,0.68c0.48,0.45,0.71,1.1,0.71,1.94v3.73c0.01,0.68,0.11,1.22,0.29,1.6v0.12H132.92z M131.7,40.96
			c0.23,0,0.42-0.05,0.59-0.14s0.28-0.2,0.36-0.33v-1.65h-0.5c-0.35,0-0.63,0.11-0.83,0.34s-0.3,0.52-0.3,0.9
			C131.01,40.67,131.24,40.96,131.7,40.96z"/>
		<path class="st8" d="M138.16,34.51l0.06,0.73c0.46-0.59,1.08-0.88,1.84-0.88c0.79,0,1.35,0.36,1.68,1.07
			c0.45-0.71,1.1-1.07,1.94-1.07c1.39,0,2.1,0.96,2.13,2.88v5.19h-2.07v-5.06c0-0.46-0.06-0.79-0.19-0.98s-0.34-0.29-0.64-0.29
			c-0.39,0-0.67,0.24-0.86,0.71l0.01,0.25v5.38h-2.07v-5.05c0-0.45-0.06-0.78-0.18-0.99c-0.12-0.2-0.34-0.3-0.65-0.3
			c-0.36,0-0.64,0.19-0.85,0.58v5.76h-2.07v-7.92H138.16z"/>
		<path class="st8" d="M151.11,42.44c-0.06-0.12-0.12-0.33-0.18-0.62c-0.37,0.51-0.87,0.76-1.51,0.76c-0.66,0-1.21-0.22-1.65-0.66
			s-0.66-1.01-0.66-1.71c0-0.83,0.26-1.47,0.79-1.93c0.53-0.46,1.29-0.69,2.29-0.7h0.63v-0.64c0-0.36-0.06-0.61-0.18-0.75
			s-0.3-0.22-0.53-0.22c-0.52,0-0.78,0.3-0.78,0.91h-2.07c0-0.73,0.27-1.34,0.82-1.81c0.55-0.47,1.24-0.71,2.08-0.71
			c0.87,0,1.54,0.23,2.02,0.68c0.48,0.45,0.71,1.1,0.71,1.94v3.73c0.01,0.68,0.11,1.22,0.29,1.6v0.12H151.11z M149.88,40.96
			c0.23,0,0.42-0.05,0.59-0.14s0.28-0.2,0.36-0.33v-1.65h-0.5c-0.35,0-0.63,0.11-0.83,0.34s-0.3,0.52-0.3,0.9
			C149.19,40.67,149.42,40.96,149.88,40.96z"/>
		<path class="st8" d="M156.3,34.51l0.06,0.78c0.47-0.62,1.08-0.93,1.84-0.93c1.36,0,2.06,0.95,2.1,2.86v5.21h-2.08v-5.05
			c0-0.45-0.07-0.78-0.2-0.98c-0.13-0.2-0.37-0.3-0.71-0.3c-0.38,0-0.67,0.19-0.88,0.58v5.76h-2.08v-7.92H156.3z M159.7,31.29
			c0,0.54-0.14,1-0.41,1.38c-0.28,0.38-0.62,0.57-1.04,0.57c-0.16,0-0.29-0.02-0.41-0.07s-0.29-0.13-0.5-0.27
			c-0.22-0.14-0.37-0.22-0.46-0.25s-0.19-0.04-0.3-0.04c-0.13,0-0.24,0.06-0.33,0.18c-0.09,0.12-0.13,0.29-0.13,0.52l-1.17-0.07
			c0-0.54,0.14-1,0.42-1.39c0.28-0.38,0.62-0.58,1.03-0.58c0.11,0,0.21,0.02,0.31,0.05c0.1,0.03,0.27,0.12,0.52,0.26
			c0.25,0.14,0.42,0.23,0.53,0.26s0.21,0.05,0.32,0.05c0.13,0,0.24-0.06,0.33-0.18c0.09-0.12,0.14-0.29,0.14-0.52L159.7,31.29z"/>
		<path class="st8" d="M165.55,42.44c-0.06-0.12-0.12-0.33-0.18-0.62c-0.37,0.51-0.87,0.76-1.51,0.76c-0.66,0-1.21-0.22-1.65-0.66
			s-0.66-1.01-0.66-1.71c0-0.83,0.26-1.47,0.79-1.93c0.53-0.46,1.29-0.69,2.29-0.7h0.63v-0.64c0-0.36-0.06-0.61-0.18-0.75
			s-0.3-0.22-0.53-0.22c-0.52,0-0.78,0.3-0.78,0.91h-2.07c0-0.73,0.27-1.34,0.82-1.81c0.55-0.47,1.24-0.71,2.08-0.71
			c0.87,0,1.54,0.23,2.02,0.68c0.48,0.45,0.71,1.1,0.71,1.94v3.73c0.01,0.68,0.11,1.22,0.29,1.6v0.12H165.55z M164.33,40.96
			c0.23,0,0.42-0.05,0.59-0.14s0.28-0.2,0.36-0.33v-1.65h-0.5c-0.35,0-0.63,0.11-0.83,0.34s-0.3,0.52-0.3,0.9
			C163.64,40.67,163.87,40.96,164.33,40.96z"/>
		<path class="st8" d="M172.35,40.31c0-0.18-0.08-0.34-0.25-0.49c-0.17-0.15-0.54-0.35-1.12-0.6c-0.85-0.35-1.44-0.71-1.76-1.08
			s-0.48-0.83-0.48-1.38c0-0.69,0.25-1.27,0.75-1.72c0.5-0.45,1.16-0.68,1.99-0.68c0.87,0,1.56,0.22,2.09,0.67s0.78,1.05,0.78,1.81
			h-2.07c0-0.64-0.27-0.97-0.81-0.97c-0.22,0-0.4,0.07-0.54,0.21s-0.21,0.33-0.21,0.57c0,0.18,0.08,0.33,0.23,0.47
			c0.16,0.13,0.52,0.33,1.11,0.57c0.84,0.31,1.44,0.66,1.79,1.04c0.35,0.38,0.52,0.88,0.52,1.49c0,0.71-0.27,1.28-0.8,1.71
			s-1.23,0.64-2.09,0.64c-0.58,0-1.09-0.11-1.54-0.34s-0.79-0.54-1.04-0.95c-0.25-0.4-0.38-0.84-0.38-1.31h1.97
			c0.01,0.36,0.09,0.63,0.25,0.81c0.16,0.18,0.42,0.27,0.78,0.27C172.07,41.07,172.35,40.82,172.35,40.31z"/>
		<path class="st8" d="M176.27,45.13l-1.11-0.58l0.28-0.52c0.31-0.58,0.47-1.16,0.48-1.74v-1.65h1.8l-0.01,1.47
			c0,0.52-0.14,1.05-0.4,1.61S176.72,44.74,176.27,45.13z"/>
		<path class="st8" d="M184.51,32.41c0,0.22-0.06,0.4-0.18,0.55s-0.31,0.22-0.56,0.22c-0.24,0-0.43-0.07-0.55-0.22
			s-0.18-0.33-0.18-0.55s0.06-0.41,0.18-0.56c0.12-0.15,0.31-0.23,0.55-0.23s0.43,0.08,0.55,0.23
			C184.45,32.01,184.51,32.2,184.51,32.41z M184.41,42.44h-1.3v-7.92h1.3V42.44z"/>
		<path class="st8" d="M187.67,34.51l0.04,0.86c0.5-0.67,1.15-1,1.93-1c1.4,0,2.11,0.93,2.13,2.8v5.27h-1.29v-5.21
			c0-0.62-0.1-1.06-0.31-1.32c-0.21-0.26-0.52-0.39-0.93-0.39c-0.32,0-0.61,0.11-0.87,0.32c-0.26,0.21-0.46,0.5-0.62,0.84v5.76h-1.3
			v-7.92H187.67z"/>
		<path class="st8" d="M194.27,42.44v-6.88h-1.03v-1.05h1.03V33.6c0.01-0.81,0.22-1.43,0.61-1.89c0.39-0.45,0.95-0.68,1.67-0.68
			c0.26,0,0.52,0.04,0.78,0.12l-0.07,1.09c-0.19-0.04-0.38-0.07-0.59-0.07c-0.74,0-1.11,0.53-1.11,1.58v0.75h1.35v1.05h-1.35v6.88
			H194.27z"/>
		<path class="st8" d="M198.18,38.11c0-1.15,0.28-2.06,0.84-2.74c0.56-0.67,1.3-1.01,2.22-1.01s1.66,0.33,2.22,0.98
			c0.56,0.65,0.85,1.55,0.86,2.67v0.83c0,1.15-0.28,2.06-0.83,2.72s-1.3,1-2.23,1c-0.92,0-1.65-0.32-2.21-0.97
			c-0.55-0.65-0.84-1.53-0.86-2.64V38.11z M199.47,38.86c0,0.82,0.16,1.46,0.48,1.92s0.75,0.7,1.29,0.7c1.14,0,1.73-0.83,1.77-2.48
			v-0.89c0-0.81-0.16-1.45-0.48-1.92c-0.32-0.47-0.75-0.71-1.3-0.71c-0.53,0-0.96,0.24-1.28,0.71c-0.32,0.47-0.48,1.11-0.48,1.91
			V38.86z"/>
		<path class="st8" d="M205.72,38.12c0-1.24,0.22-2.17,0.67-2.8c0.45-0.63,1.11-0.95,1.97-0.95c0.81,0,1.42,0.34,1.84,1.03
			l0.07-0.89h1.17v8c0,0.98-0.25,1.73-0.75,2.26c-0.5,0.52-1.2,0.79-2.1,0.79c-0.39,0-0.83-0.1-1.31-0.29
			c-0.49-0.19-0.85-0.43-1.1-0.71l0.53-0.89c0.54,0.53,1.13,0.79,1.78,0.79c1.08,0,1.63-0.59,1.66-1.76v-1.03
			c-0.42,0.62-1.02,0.93-1.79,0.93c-0.82,0-1.46-0.31-1.92-0.93s-0.7-1.51-0.72-2.66V38.12z M207.02,38.85
			c0,0.89,0.13,1.54,0.39,1.96c0.26,0.42,0.69,0.63,1.29,0.63c0.64,0,1.13-0.33,1.45-0.99v-3.96c-0.34-0.65-0.82-0.97-1.44-0.97
			c-0.6,0-1.03,0.21-1.29,0.63c-0.26,0.42-0.4,1.06-0.4,1.92V38.85z"/>
		<path class="st8" d="M216.64,35.73c-0.18-0.03-0.38-0.05-0.59-0.05c-0.66,0-1.13,0.36-1.39,1.09v5.67h-1.3v-7.92h1.26l0.02,0.8
			c0.35-0.63,0.84-0.95,1.47-0.95c0.21,0,0.38,0.03,0.51,0.1L216.64,35.73z"/>
		<path class="st8" d="M221.72,42.44c-0.08-0.17-0.13-0.46-0.17-0.86c-0.46,0.67-1.04,1.01-1.76,1.01c-0.72,0-1.28-0.2-1.68-0.6
			c-0.4-0.4-0.6-0.97-0.6-1.7c0-0.81,0.27-1.45,0.82-1.92s1.3-0.72,2.25-0.73h0.95v-0.84c0-0.47-0.1-0.81-0.31-1.01
			s-0.53-0.3-0.96-0.3c-0.39,0-0.71,0.12-0.95,0.35s-0.37,0.53-0.37,0.88h-1.3c0-0.41,0.12-0.79,0.36-1.16
			c0.24-0.37,0.56-0.66,0.97-0.87s0.86-0.31,1.35-0.31c0.81,0,1.43,0.2,1.85,0.6c0.42,0.4,0.64,0.99,0.65,1.76v4
			c0,0.61,0.09,1.14,0.25,1.59v0.12H221.72z M219.99,41.4c0.32,0,0.62-0.09,0.91-0.26s0.5-0.4,0.63-0.66v-1.89h-0.73
			c-0.62,0.01-1.1,0.15-1.46,0.41c-0.36,0.27-0.53,0.64-0.53,1.12c0,0.45,0.09,0.78,0.27,0.98S219.56,41.4,219.99,41.4z"/>
		<path class="st8" d="M225.39,42.44v-6.88h-1.03v-1.05h1.03V33.6c0.01-0.81,0.22-1.43,0.61-1.89c0.39-0.45,0.95-0.68,1.67-0.68
			c0.26,0,0.52,0.04,0.78,0.12l-0.07,1.09c-0.19-0.04-0.38-0.07-0.59-0.07c-0.74,0-1.11,0.53-1.11,1.58v0.75h1.35v1.05h-1.35v6.88
			H225.39z"/>
		<path class="st8" d="M231.02,31.19h1.64l-1.96,2.15l-1.09,0L231.02,31.19z M230.97,42.44h-1.3v-7.92h1.3V42.44z"/>
		<path class="st8" d="M237.17,42.44c-0.08-0.17-0.13-0.46-0.17-0.86c-0.46,0.67-1.04,1.01-1.76,1.01c-0.72,0-1.28-0.2-1.68-0.6
			c-0.4-0.4-0.6-0.97-0.6-1.7c0-0.81,0.27-1.45,0.82-1.92s1.3-0.72,2.25-0.73h0.95v-0.84c0-0.47-0.1-0.81-0.31-1.01
			s-0.53-0.3-0.96-0.3c-0.39,0-0.71,0.12-0.95,0.35s-0.37,0.53-0.37,0.88h-1.3c0-0.41,0.12-0.79,0.36-1.16
			c0.24-0.37,0.56-0.66,0.97-0.87s0.86-0.31,1.35-0.31c0.81,0,1.43,0.2,1.85,0.6c0.42,0.4,0.64,0.99,0.65,1.76v4
			c0,0.61,0.09,1.14,0.25,1.59v0.12H237.17z M235.44,41.4c0.32,0,0.62-0.09,0.91-0.26s0.5-0.4,0.63-0.66v-1.89h-0.73
			c-0.62,0.01-1.1,0.15-1.46,0.41c-0.36,0.27-0.53,0.64-0.53,1.12c0,0.45,0.09,0.78,0.27,0.98S235.01,41.4,235.44,41.4z"/>
		<path class="st8" d="M51.49,62.09h-3.35v4.35h-2.15V55.77h5.9v1.79h-3.75v2.73h3.35V62.09z"/>
		<path class="st8" d="M60.05,55.77v7.38c-0.01,1.11-0.31,1.96-0.92,2.54c-0.6,0.59-1.46,0.88-2.59,0.88c-1.14,0-2.02-0.3-2.62-0.89
			c-0.6-0.6-0.9-1.46-0.9-2.59v-7.33h2.17v7.34c0,0.61,0.1,1.04,0.29,1.3s0.55,0.39,1.06,0.39s0.86-0.13,1.05-0.38
			c0.19-0.26,0.29-0.68,0.29-1.26v-7.38H60.05z"/>
		<path class="st8" d="M67.2,61.82h-3.35v2.83h3.97v1.79h-6.12V55.77h6.11v1.79h-3.96v2.52h3.35V61.82z"/>
		<path class="st8" d="M76.5,66.44h-2.15l-3.15-6.99v6.99h-2.15V55.77h2.15l3.16,7v-7h2.15V66.44z"/>
		<path class="st8" d="M84.93,57.57h-2.64v8.87h-2.16v-8.87h-2.59v-1.79h7.39V57.57z"/>
		<path class="st8" d="M91.67,61.82h-3.35v2.83h3.97v1.79h-6.12V55.77h6.11v1.79h-3.96v2.52h3.35V61.82z"/>
		<path class="st8" d="M98.03,63.64c0-0.44-0.11-0.76-0.33-0.99c-0.22-0.22-0.63-0.45-1.21-0.69c-1.07-0.41-1.84-0.88-2.31-1.42
			c-0.47-0.54-0.7-1.19-0.7-1.93c0-0.9,0.32-1.62,0.96-2.17c0.64-0.54,1.45-0.82,2.43-0.82c0.65,0,1.24,0.14,1.75,0.41
			c0.51,0.28,0.91,0.67,1.18,1.17c0.28,0.5,0.41,1.07,0.41,1.71h-2.15c0-0.5-0.11-0.88-0.32-1.14c-0.21-0.26-0.52-0.39-0.92-0.39
			c-0.38,0-0.67,0.11-0.88,0.33c-0.21,0.22-0.31,0.52-0.31,0.9c0,0.29,0.12,0.56,0.35,0.79s0.65,0.48,1.25,0.74
			c1.04,0.38,1.8,0.84,2.27,1.38s0.71,1.24,0.71,2.09c0,0.93-0.3,1.65-0.89,2.18s-1.39,0.78-2.41,0.78c-0.69,0-1.32-0.14-1.88-0.42
			s-1.01-0.69-1.33-1.22s-0.48-1.15-0.48-1.87h2.16c0,0.62,0.12,1.06,0.36,1.34c0.24,0.28,0.63,0.42,1.17,0.42
			C97.65,64.83,98.03,64.43,98.03,63.64z"/>
		<path class="st8" d="M101.71,59.39c0-0.33,0.11-0.61,0.33-0.82s0.51-0.32,0.87-0.32c0.35,0,0.63,0.11,0.86,0.32
			s0.34,0.49,0.34,0.82c0,0.34-0.12,0.62-0.35,0.82c-0.23,0.21-0.52,0.31-0.86,0.31c-0.35,0-0.63-0.11-0.86-0.31
			C101.82,60,101.71,59.73,101.71,59.39z M101.71,65.38c0-0.33,0.11-0.61,0.33-0.82s0.51-0.32,0.87-0.32c0.35,0,0.63,0.11,0.86,0.32
			c0.23,0.21,0.34,0.49,0.34,0.82c0,0.34-0.12,0.62-0.35,0.82c-0.23,0.21-0.52,0.31-0.86,0.31c-0.35,0-0.63-0.1-0.86-0.32
			C101.82,65.99,101.71,65.72,101.71,65.38z"/>
		<path class="st8" d="M110.2,55.05l0.73,0.53c-0.39,0.63-0.59,1.3-0.6,1.99v1.01h-1.28v-0.85c0-0.49,0.11-0.99,0.32-1.48
			C109.59,55.75,109.87,55.35,110.2,55.05z"/>
		<path class="st8" d="M117.5,61.51h-3.77v3.78h4.39v1.15h-5.73V55.77h5.66v1.15h-4.32v3.44h3.77V61.51z"/>
		<path class="st8" d="M121.05,66.44h-1.3V55.19h1.3V66.44z"/>
		<path class="st8" d="M127.82,59.33c0.49-0.64,1.12-0.96,1.89-0.96c1.4,0,2.11,0.93,2.13,2.8v5.27h-1.29v-5.21
			c0-0.62-0.1-1.06-0.31-1.32c-0.21-0.26-0.52-0.39-0.93-0.39c-0.32,0-0.61,0.11-0.87,0.32c-0.26,0.21-0.46,0.5-0.62,0.84v5.76h-1.3
			V55.19h1.3V59.33z"/>
		<path class="st8" d="M133.49,62.11c0-1.15,0.28-2.06,0.84-2.74c0.56-0.67,1.3-1.01,2.22-1.01s1.66,0.33,2.22,0.98
			c0.56,0.65,0.85,1.55,0.86,2.67v0.83c0,1.15-0.28,2.06-0.83,2.72s-1.3,1-2.23,1c-0.92,0-1.65-0.32-2.21-0.97
			c-0.55-0.65-0.84-1.53-0.86-2.64V62.11z M134.79,62.86c0,0.82,0.16,1.46,0.48,1.92s0.75,0.7,1.29,0.7c1.14,0,1.73-0.83,1.77-2.48
			v-0.89c0-0.81-0.16-1.45-0.48-1.92c-0.32-0.47-0.75-0.71-1.3-0.71c-0.53,0-0.96,0.24-1.28,0.71c-0.32,0.47-0.48,1.11-0.48,1.91
			V62.86z"/>
		<path class="st8" d="M142.52,58.51l0.03,0.73c0.48-0.59,1.12-0.88,1.91-0.88c0.88,0,1.5,0.38,1.85,1.15
			c0.5-0.77,1.19-1.15,2.08-1.15c1.46,0,2.21,0.91,2.24,2.73v5.34h-1.29v-5.21c0-0.58-0.1-1-0.31-1.29
			c-0.21-0.28-0.55-0.42-1.04-0.42c-0.39,0-0.71,0.15-0.95,0.45s-0.39,0.69-0.42,1.16v5.31h-1.3v-5.27
			c-0.01-1.1-0.46-1.65-1.34-1.65c-0.65,0-1.12,0.33-1.38,0.98v5.94h-1.29v-7.92H142.52z"/>
		<path class="st8" d="M158.32,62.86c0,1.24-0.22,2.17-0.67,2.79s-1.09,0.94-1.93,0.94c-0.84,0-1.47-0.36-1.89-1.08l-0.07,0.94
			h-1.18V55.19h1.29v4.2c0.42-0.68,1.04-1.02,1.83-1.02c0.87,0,1.52,0.31,1.96,0.92s0.65,1.54,0.66,2.78V62.86z M157.03,62.11
			c0-0.94-0.13-1.6-0.39-2c-0.26-0.4-0.69-0.6-1.27-0.6c-0.67,0-1.17,0.36-1.49,1.08v3.77c0.32,0.71,0.83,1.07,1.51,1.07
			c0.59,0,1.01-0.2,1.26-0.61s0.38-1.05,0.39-1.91V62.11z"/>
		<path class="st8" d="M163.25,59.73c-0.18-0.03-0.38-0.05-0.59-0.05c-0.66,0-1.13,0.36-1.39,1.09v5.67h-1.3v-7.92h1.26l0.02,0.8
			c0.35-0.63,0.84-0.95,1.47-0.95c0.21,0,0.38,0.03,0.51,0.1L163.25,59.73z"/>
		<path class="st8" d="M167.24,66.58c-0.99,0-1.74-0.29-2.27-0.88c-0.53-0.59-0.8-1.45-0.81-2.59v-0.96c0-1.18,0.26-2.11,0.77-2.78
			c0.51-0.67,1.23-1.01,2.16-1.01c0.93,0,1.62,0.29,2.08,0.89s0.69,1.51,0.7,2.76v0.85h-4.42v0.18c0,0.85,0.16,1.47,0.48,1.85
			c0.32,0.38,0.78,0.58,1.38,0.58c0.38,0,0.72-0.07,1.01-0.22c0.29-0.14,0.56-0.37,0.82-0.68l0.67,0.82
			C169.25,66.19,168.39,66.58,167.24,66.58z M167.09,59.48c-0.54,0-0.94,0.18-1.19,0.55s-0.41,0.94-0.44,1.72h3.12v-0.18
			c-0.03-0.75-0.17-1.29-0.41-1.61C167.93,59.64,167.57,59.48,167.09,59.48z"/>
		<path class="st8" d="M174.59,62.12c0-1.24,0.22-2.17,0.67-2.8c0.45-0.63,1.12-0.95,2.01-0.95c0.77,0,1.36,0.31,1.79,0.92
			l0.06-0.78h1.19v10.97h-1.3v-3.74c-0.42,0.56-1,0.84-1.74,0.84c-0.85,0-1.51-0.31-1.97-0.93s-0.69-1.53-0.7-2.72V62.12z
			 M175.89,62.86c0,0.89,0.14,1.55,0.41,1.98s0.71,0.64,1.3,0.64c0.61,0,1.07-0.29,1.41-0.87v-4.25c-0.35-0.59-0.82-0.88-1.4-0.88
			c-0.6,0-1.03,0.21-1.3,0.64s-0.41,1.08-0.42,1.94V62.86z"/>
		<path class="st8" d="M186.41,65.74c-0.43,0.56-1.06,0.84-1.88,0.84c-0.72,0-1.26-0.25-1.63-0.74c-0.37-0.5-0.55-1.22-0.56-2.17
			v-5.16h1.29v5.07c0,1.23,0.37,1.85,1.11,1.85c0.79,0,1.33-0.35,1.63-1.05v-5.87h1.3v7.92h-1.23L186.41,65.74z"/>
		<path class="st8" d="M192.45,66.58c-0.99,0-1.74-0.29-2.27-0.88c-0.53-0.59-0.8-1.45-0.81-2.59v-0.96c0-1.18,0.26-2.11,0.77-2.78
			c0.51-0.67,1.23-1.01,2.16-1.01c0.93,0,1.62,0.29,2.08,0.89s0.69,1.51,0.7,2.76v0.85h-4.42v0.18c0,0.85,0.16,1.47,0.48,1.85
			c0.32,0.38,0.78,0.58,1.38,0.58c0.38,0,0.72-0.07,1.01-0.22c0.29-0.14,0.56-0.37,0.82-0.68l0.67,0.82
			C194.46,66.19,193.61,66.58,192.45,66.58z M192.31,59.48c-0.54,0-0.94,0.18-1.19,0.55s-0.41,0.94-0.44,1.72h3.12v-0.18
			c-0.03-0.75-0.17-1.29-0.41-1.61C193.15,59.64,192.79,59.48,192.31,59.48z"/>
		<path class="st8" d="M201.3,58.51l0.03,0.73c0.48-0.59,1.12-0.88,1.91-0.88c0.88,0,1.5,0.38,1.85,1.15
			c0.5-0.77,1.19-1.15,2.08-1.15c1.46,0,2.21,0.91,2.24,2.73v5.34h-1.29v-5.21c0-0.58-0.1-1-0.31-1.29
			c-0.21-0.28-0.55-0.42-1.04-0.42c-0.39,0-0.71,0.15-0.95,0.45s-0.39,0.69-0.42,1.16v5.31h-1.3v-5.27
			c-0.01-1.1-0.46-1.65-1.34-1.65c-0.65,0-1.12,0.33-1.38,0.98v5.94h-1.29v-7.92H201.3z"/>
		<path class="st8" d="M215.45,66.44c-0.08-0.17-0.13-0.46-0.17-0.86c-0.46,0.67-1.04,1.01-1.76,1.01c-0.72,0-1.28-0.2-1.68-0.6
			c-0.4-0.4-0.6-0.97-0.6-1.7c0-0.81,0.27-1.45,0.82-1.92s1.3-0.72,2.25-0.73h0.95v-0.84c0-0.47-0.1-0.81-0.31-1.01
			s-0.53-0.3-0.96-0.3c-0.39,0-0.71,0.12-0.95,0.35s-0.37,0.53-0.37,0.88h-1.3c0-0.41,0.12-0.79,0.36-1.16
			c0.24-0.37,0.56-0.66,0.97-0.87s0.86-0.31,1.35-0.31c0.81,0,1.43,0.2,1.85,0.6c0.42,0.4,0.64,0.99,0.65,1.76v4
			c0,0.61,0.09,1.14,0.25,1.59v0.12H215.45z M213.72,65.4c0.32,0,0.62-0.09,0.91-0.26s0.5-0.4,0.63-0.66v-1.89h-0.73
			c-0.62,0.01-1.1,0.15-1.46,0.41c-0.36,0.27-0.53,0.64-0.53,1.12c0,0.45,0.09,0.78,0.27,0.98S213.29,65.4,213.72,65.4z"/>
		<path class="st8" d="M220.25,56.59v1.92h1.19v1.05h-1.19v4.92c0,0.31,0.05,0.55,0.15,0.71c0.1,0.16,0.28,0.24,0.53,0.24
			c0.17,0,0.34-0.03,0.52-0.09l-0.01,1.09c-0.29,0.1-0.59,0.14-0.9,0.14c-0.51,0-0.9-0.18-1.17-0.55s-0.4-0.88-0.4-1.55v-4.92h-1.21
			v-1.05h1.21v-1.92H220.25z"/>
		<path class="st8" d="M222.56,62.11c0-1.15,0.28-2.06,0.84-2.74c0.56-0.67,1.3-1.01,2.22-1.01s1.66,0.33,2.22,0.98
			c0.56,0.65,0.85,1.55,0.86,2.67v0.83c0,1.15-0.28,2.06-0.83,2.72s-1.3,1-2.23,1c-0.92,0-1.65-0.32-2.21-0.97
			c-0.55-0.65-0.84-1.53-0.86-2.64V62.11z M223.86,62.86c0,0.82,0.16,1.46,0.48,1.92s0.75,0.7,1.29,0.7c1.14,0,1.73-0.83,1.77-2.48
			v-0.89c0-0.81-0.16-1.45-0.48-1.92c-0.32-0.47-0.75-0.71-1.3-0.71c-0.53,0-0.96,0.24-1.28,0.71c-0.32,0.47-0.48,1.11-0.48,1.91
			V62.86z M226.23,55.19h1.64l-1.96,2.15l-1.09,0L226.23,55.19z"/>
		<path class="st8" d="M237.88,66.44c-0.08-0.17-0.13-0.46-0.17-0.86c-0.46,0.67-1.04,1.01-1.76,1.01c-0.72,0-1.28-0.2-1.68-0.6
			c-0.4-0.4-0.6-0.97-0.6-1.7c0-0.81,0.27-1.45,0.82-1.92s1.3-0.72,2.25-0.73h0.95v-0.84c0-0.47-0.1-0.81-0.31-1.01
			s-0.53-0.3-0.96-0.3c-0.39,0-0.71,0.12-0.95,0.35s-0.37,0.53-0.37,0.88h-1.3c0-0.41,0.12-0.79,0.36-1.16
			c0.24-0.37,0.56-0.66,0.97-0.87s0.86-0.31,1.35-0.31c0.81,0,1.43,0.2,1.85,0.6c0.42,0.4,0.64,0.99,0.65,1.76v4
			c0,0.61,0.09,1.14,0.25,1.59v0.12H237.88z M236.15,65.4c0.32,0,0.62-0.09,0.91-0.26s0.5-0.4,0.63-0.66v-1.89h-0.73
			c-0.62,0.01-1.1,0.15-1.46,0.41c-0.36,0.27-0.53,0.64-0.53,1.12c0,0.45,0.09,0.78,0.27,0.98S235.72,65.4,236.15,65.4z"/>
		<path class="st8" d="M245.95,65.29h4.18v1.15h-5.53V55.77h1.35V65.29z"/>
		<path class="st8" d="M253.05,56.41c0,0.22-0.06,0.4-0.18,0.55s-0.31,0.22-0.56,0.22c-0.24,0-0.43-0.07-0.55-0.22
			s-0.18-0.33-0.18-0.55s0.06-0.41,0.18-0.56s0.31-0.23,0.55-0.23s0.43,0.08,0.55,0.23C252.99,56.01,253.05,56.2,253.05,56.41z
			 M252.95,66.44h-1.3v-7.92h1.3V66.44z"/>
		<path class="st8" d="M260.72,62.86c0,1.24-0.22,2.17-0.67,2.79s-1.09,0.94-1.93,0.94c-0.84,0-1.47-0.36-1.89-1.08l-0.07,0.94
			h-1.18V55.19h1.29v4.2c0.42-0.68,1.04-1.02,1.83-1.02c0.87,0,1.52,0.31,1.96,0.92s0.65,1.54,0.66,2.78V62.86z M259.43,62.11
			c0-0.94-0.13-1.6-0.39-2c-0.26-0.4-0.69-0.6-1.27-0.6c-0.67,0-1.17,0.36-1.49,1.08v3.77c0.32,0.71,0.83,1.07,1.51,1.07
			c0.59,0,1.01-0.2,1.26-0.61s0.38-1.05,0.39-1.91V62.11z"/>
		<path class="st8" d="M265.21,66.58c-0.99,0-1.74-0.29-2.27-0.88c-0.53-0.59-0.8-1.45-0.81-2.59v-0.96c0-1.18,0.26-2.11,0.77-2.78
			c0.51-0.67,1.23-1.01,2.16-1.01c0.93,0,1.62,0.29,2.08,0.89s0.69,1.51,0.7,2.76v0.85h-4.42v0.18c0,0.85,0.16,1.47,0.48,1.85
			c0.32,0.38,0.78,0.58,1.38,0.58c0.38,0,0.72-0.07,1.01-0.22c0.29-0.14,0.56-0.37,0.82-0.68l0.67,0.82
			C267.22,66.19,266.37,66.58,265.21,66.58z M265.07,59.48c-0.54,0-0.94,0.18-1.19,0.55s-0.41,0.94-0.44,1.72h3.12v-0.18
			c-0.03-0.75-0.17-1.29-0.41-1.61C265.91,59.64,265.55,59.48,265.07,59.48z"/>
		<path class="st8" d="M272.68,59.73c-0.18-0.03-0.38-0.05-0.59-0.05c-0.66,0-1.13,0.36-1.39,1.09v5.67h-1.3v-7.92h1.26l0.02,0.8
			c0.35-0.63,0.84-0.95,1.47-0.95c0.21,0,0.38,0.03,0.51,0.1L272.68,59.73z"/>
		<path class="st8" d="M276.03,56.59v1.92h1.19v1.05h-1.19v4.92c0,0.31,0.05,0.55,0.15,0.71c0.1,0.16,0.28,0.24,0.53,0.24
			c0.17,0,0.34-0.03,0.52-0.09l-0.01,1.09c-0.29,0.1-0.59,0.14-0.9,0.14c-0.51,0-0.9-0.18-1.17-0.55s-0.4-0.88-0.4-1.55v-4.92h-1.21
			v-1.05h1.21v-1.92H276.03z"/>
		<path class="st8" d="M280.93,64.28l1.44-5.77h1.38l-2.59,9.04c-0.2,0.68-0.47,1.2-0.83,1.55s-0.76,0.53-1.22,0.53
			c-0.18,0-0.4-0.04-0.67-0.12v-1.1l0.29,0.03c0.38,0,0.67-0.09,0.88-0.27c0.21-0.18,0.38-0.49,0.52-0.93l0.26-0.89l-2.33-7.86h1.41
			L280.93,64.28z"/>
		<path class="st8" d="M46.49,84.38l2.44-8.61h1.47l-3.32,10.66h-1.17L42.6,75.77h1.46L46.49,84.38z"/>
		<path class="st8" d="M55.4,86.44c-0.08-0.17-0.13-0.46-0.17-0.86c-0.46,0.67-1.04,1.01-1.76,1.01c-0.72,0-1.28-0.2-1.68-0.6
			c-0.4-0.4-0.6-0.97-0.6-1.7c0-0.81,0.27-1.45,0.82-1.92s1.3-0.72,2.25-0.73h0.95v-0.84c0-0.47-0.1-0.81-0.31-1.01
			s-0.53-0.3-0.96-0.3c-0.39,0-0.71,0.12-0.95,0.35s-0.37,0.53-0.37,0.88h-1.3c0-0.41,0.12-0.79,0.36-1.16
			c0.24-0.37,0.56-0.66,0.97-0.87s0.86-0.31,1.35-0.31c0.81,0,1.43,0.2,1.85,0.6c0.42,0.4,0.64,0.99,0.65,1.76v4
			c0,0.61,0.09,1.14,0.25,1.59v0.12H55.4z M53.68,85.4c0.32,0,0.62-0.09,0.91-0.26s0.5-0.4,0.63-0.66v-1.89h-0.73
			c-0.62,0.01-1.1,0.15-1.46,0.41c-0.36,0.27-0.53,0.64-0.53,1.12c0,0.45,0.09,0.78,0.27,0.98S53.25,85.4,53.68,85.4z"/>
		<path class="st8" d="M59.91,86.44h-1.3V75.19h1.3V86.44z"/>
		<path class="st8" d="M66.02,86.44c-0.08-0.17-0.13-0.46-0.17-0.86c-0.46,0.67-1.04,1.01-1.76,1.01c-0.72,0-1.28-0.2-1.68-0.6
			c-0.4-0.4-0.6-0.97-0.6-1.7c0-0.81,0.27-1.45,0.82-1.92s1.3-0.72,2.25-0.73h0.95v-0.84c0-0.47-0.1-0.81-0.31-1.01
			s-0.53-0.3-0.96-0.3c-0.39,0-0.71,0.12-0.95,0.35s-0.37,0.53-0.37,0.88h-1.3c0-0.41,0.12-0.79,0.36-1.16
			c0.24-0.37,0.56-0.66,0.97-0.87s0.86-0.31,1.35-0.31c0.81,0,1.43,0.2,1.85,0.6c0.42,0.4,0.64,0.99,0.65,1.76v4
			c0,0.61,0.09,1.14,0.25,1.59v0.12H66.02z M64.3,85.4c0.32,0,0.62-0.09,0.91-0.26s0.5-0.4,0.63-0.66v-1.89H65.1
			C64.49,82.6,64,82.74,63.64,83c-0.36,0.27-0.53,0.64-0.53,1.12c0,0.45,0.09,0.78,0.27,0.98S63.87,85.4,64.3,85.4z"/>
		<path class="st8" d="M70.35,78.51l0.04,0.86c0.5-0.67,1.15-1,1.93-1c1.4,0,2.11,0.93,2.13,2.8v5.27h-1.29v-5.21
			c0-0.62-0.1-1.06-0.31-1.32c-0.21-0.26-0.52-0.39-0.93-0.39c-0.32,0-0.61,0.11-0.87,0.32c-0.26,0.21-0.46,0.5-0.62,0.84v5.76h-1.3
			v-7.92H70.35z"/>
		<path class="st8" d="M79.14,85.48c0.43,0,0.77-0.13,1.03-0.4c0.26-0.27,0.4-0.65,0.42-1.14h1.22c-0.03,0.76-0.3,1.39-0.81,1.89
			s-1.13,0.75-1.87,0.75c-0.98,0-1.73-0.31-2.25-0.93s-0.77-1.54-0.77-2.76v-0.87c0-1.2,0.26-2.11,0.77-2.73s1.26-0.93,2.24-0.93
			c0.81,0,1.45,0.26,1.93,0.77c0.48,0.51,0.73,1.21,0.76,2.1H80.6c-0.03-0.59-0.17-1.03-0.42-1.32s-0.6-0.44-1.04-0.44
			c-0.58,0-1,0.19-1.28,0.57c-0.28,0.38-0.42,1-0.43,1.87v1.01c0,0.93,0.14,1.59,0.41,1.98C78.11,85.28,78.55,85.48,79.14,85.48z"/>
		<path class="st8" d="M86.15,86.58c-0.99,0-1.74-0.29-2.27-0.88c-0.53-0.59-0.8-1.45-0.81-2.59v-0.96c0-1.18,0.26-2.11,0.77-2.78
			c0.51-0.67,1.23-1.01,2.16-1.01c0.93,0,1.62,0.29,2.08,0.89s0.69,1.51,0.7,2.76v0.85h-4.42v0.18c0,0.85,0.16,1.47,0.48,1.85
			c0.32,0.38,0.78,0.58,1.38,0.58c0.38,0,0.72-0.07,1.01-0.22c0.29-0.14,0.56-0.37,0.82-0.68l0.67,0.82
			C88.16,86.19,87.3,86.58,86.15,86.58z M86,79.48c-0.54,0-0.94,0.18-1.19,0.55s-0.41,0.94-0.44,1.72h3.12v-0.18
			c-0.03-0.75-0.17-1.29-0.41-1.61C86.85,79.64,86.49,79.48,86,79.48z"/>
		<path class="st8" d="M89.92,78.78l-0.73-0.53c0.38-0.64,0.58-1.3,0.59-1.99v-1.07h1.28v0.99c-0.01,0.47-0.12,0.94-0.33,1.42
			S90.26,78.47,89.92,78.78z"/>
		<path class="st8" d="M96.08,82.11c0-1.28,0.17-2.48,0.52-3.61c0.35-1.13,0.84-2.12,1.47-2.97c0.39-0.51,0.76-0.89,1.11-1.13
			l0.26,0.89c-0.59,0.56-1.07,1.41-1.44,2.54s-0.58,2.39-0.62,3.77l-0.01,0.59c0,1.72,0.24,3.24,0.73,4.56
			c0.37,0.99,0.81,1.76,1.34,2.3l-0.26,0.83c-0.45-0.3-0.91-0.8-1.37-1.49C96.66,86.64,96.08,84.55,96.08,82.11z"/>
		<path class="st8" d="M104.67,75.77h1.35v7.55c0,1.02-0.26,1.82-0.78,2.4c-0.52,0.58-1.22,0.86-2.1,0.86
			c-0.9,0-1.61-0.27-2.11-0.82s-0.75-1.3-0.75-2.27h1.34c0,0.61,0.13,1.09,0.4,1.43s0.64,0.51,1.12,0.51c0.46,0,0.83-0.19,1.11-0.56
			s0.42-0.89,0.42-1.56V75.77z"/>
		<path class="st8" d="M107.79,82.11c0-1.15,0.28-2.06,0.84-2.74c0.56-0.67,1.3-1.01,2.22-1.01s1.66,0.33,2.22,0.98
			c0.56,0.65,0.85,1.55,0.86,2.67v0.83c0,1.15-0.28,2.06-0.83,2.72s-1.3,1-2.23,1c-0.92,0-1.65-0.32-2.21-0.97
			c-0.55-0.65-0.84-1.53-0.86-2.64V82.11z M109.09,82.86c0,0.82,0.16,1.46,0.48,1.92s0.75,0.7,1.29,0.7c1.14,0,1.73-0.83,1.77-2.48
			v-0.89c0-0.81-0.16-1.45-0.48-1.92c-0.32-0.47-0.75-0.71-1.3-0.71c-0.53,0-0.96,0.24-1.28,0.71c-0.32,0.47-0.48,1.11-0.48,1.91
			V82.86z"/>
		<path class="st8" d="M116.89,79.33c0.49-0.64,1.12-0.96,1.89-0.96c1.4,0,2.11,0.93,2.13,2.8v5.27h-1.29v-5.21
			c0-0.62-0.1-1.06-0.31-1.32c-0.21-0.26-0.52-0.39-0.93-0.39c-0.32,0-0.61,0.11-0.87,0.32c-0.26,0.21-0.46,0.5-0.62,0.84v5.76h-1.3
			V75.19h1.3V79.33z"/>
		<path class="st8" d="M124.06,78.51l0.04,0.86c0.5-0.67,1.15-1,1.93-1c1.4,0,2.11,0.93,2.13,2.8v5.27h-1.29v-5.21
			c0-0.62-0.1-1.06-0.31-1.32c-0.21-0.26-0.52-0.39-0.93-0.39c-0.32,0-0.61,0.11-0.87,0.32c-0.26,0.21-0.46,0.5-0.62,0.84v5.76h-1.3
			v-7.92H124.06z"/>
		<path class="st8" d="M138.66,81.73h-3.6v4.71h-1.34V75.77h5.55v1.15h-4.21v3.65h3.6V81.73z"/>
		<path class="st8" d="M140.31,82.11c0-1.15,0.28-2.06,0.84-2.74c0.56-0.67,1.3-1.01,2.22-1.01s1.66,0.33,2.22,0.98
			c0.56,0.65,0.85,1.55,0.86,2.67v0.83c0,1.15-0.28,2.06-0.83,2.72s-1.3,1-2.23,1c-0.92,0-1.65-0.32-2.21-0.97
			c-0.55-0.65-0.84-1.53-0.86-2.64V82.11z M141.61,82.86c0,0.82,0.16,1.46,0.48,1.92s0.75,0.7,1.29,0.7c1.14,0,1.73-0.83,1.77-2.48
			v-0.89c0-0.81-0.16-1.45-0.48-1.92c-0.32-0.47-0.75-0.71-1.3-0.71c-0.53,0-0.96,0.24-1.28,0.71c-0.32,0.47-0.48,1.11-0.48,1.91
			V82.86z"/>
		<path class="st8" d="M151.39,79.73c-0.18-0.03-0.38-0.05-0.59-0.05c-0.66,0-1.13,0.36-1.39,1.09v5.67h-1.3v-7.92h1.26l0.02,0.8
			c0.35-0.63,0.84-0.95,1.47-0.95c0.21,0,0.38,0.03,0.51,0.1L151.39,79.73z"/>
		<path class="st8" d="M152.27,82.12c0-1.22,0.23-2.15,0.69-2.79c0.46-0.64,1.11-0.96,1.97-0.96c0.76,0,1.35,0.31,1.77,0.92v-4.1
			h1.3v11.25h-1.19l-0.07-0.85c-0.42,0.66-1.03,1-1.82,1c-0.82,0-1.46-0.32-1.93-0.96c-0.47-0.64-0.7-1.54-0.71-2.7V82.12z
			 M153.56,82.85c0,0.89,0.13,1.54,0.4,1.96c0.26,0.42,0.69,0.63,1.29,0.63c0.64,0,1.13-0.32,1.44-0.97v-3.99
			c-0.33-0.63-0.81-0.95-1.44-0.95c-0.6,0-1.03,0.21-1.29,0.63c-0.26,0.42-0.4,1.06-0.4,1.92V82.85z"/>
		<path class="st8" d="M162.77,82.18c0,2.18-0.49,4.1-1.46,5.78c-0.53,0.9-1.07,1.54-1.64,1.92l-0.26-0.83
			c0.62-0.59,1.11-1.49,1.49-2.71c0.38-1.21,0.57-2.54,0.58-3.99v-0.26c0-1.86-0.31-3.52-0.92-4.98c-0.34-0.8-0.72-1.43-1.15-1.88
			l0.26-0.83c0.54,0.36,1.06,0.96,1.56,1.78C162.25,77.88,162.77,79.88,162.77,82.18z"/>
		<path class="st8" d="M170.36,84.28l1.44-5.77h1.38l-2.59,9.04c-0.2,0.68-0.47,1.2-0.83,1.55s-0.76,0.53-1.22,0.53
			c-0.18,0-0.4-0.04-0.67-0.12v-1.1l0.29,0.03c0.38,0,0.67-0.09,0.88-0.27c0.21-0.18,0.38-0.49,0.52-0.93l0.26-0.89l-2.33-7.86h1.41
			L170.36,84.28z"/>
		<path class="st8" d="M180.71,86.58c-0.99,0-1.74-0.29-2.27-0.88c-0.53-0.59-0.8-1.45-0.81-2.59v-0.96c0-1.18,0.26-2.11,0.77-2.78
			c0.51-0.67,1.23-1.01,2.16-1.01c0.93,0,1.62,0.29,2.08,0.89s0.69,1.51,0.7,2.76v0.85h-4.42v0.18c0,0.85,0.16,1.47,0.48,1.85
			c0.32,0.38,0.78,0.58,1.38,0.58c0.38,0,0.72-0.07,1.01-0.22c0.29-0.14,0.56-0.37,0.82-0.68l0.67,0.82
			C182.72,86.19,181.86,86.58,180.71,86.58z M180.56,79.48c-0.54,0-0.94,0.18-1.19,0.55s-0.41,0.94-0.44,1.72h3.12v-0.18
			c-0.03-0.75-0.17-1.29-0.41-1.61C181.4,79.64,181.04,79.48,180.56,79.48z"/>
		<path class="st8" d="M186.29,86.44H185V75.19h1.3V86.44z"/>
		<path class="st8" d="M192.41,86.44c-0.08-0.17-0.13-0.46-0.17-0.86c-0.46,0.67-1.04,1.01-1.76,1.01c-0.72,0-1.28-0.2-1.68-0.6
			c-0.4-0.4-0.6-0.97-0.6-1.7c0-0.81,0.27-1.45,0.82-1.92s1.3-0.72,2.25-0.73h0.95v-0.84c0-0.47-0.1-0.81-0.31-1.01
			s-0.53-0.3-0.96-0.3c-0.39,0-0.71,0.12-0.95,0.35s-0.37,0.53-0.37,0.88h-1.3c0-0.41,0.12-0.79,0.36-1.16
			c0.24-0.37,0.56-0.66,0.97-0.87s0.86-0.31,1.35-0.31c0.81,0,1.43,0.2,1.85,0.6c0.42,0.4,0.64,0.99,0.65,1.76v4
			c0,0.61,0.09,1.14,0.25,1.59v0.12H192.41z M190.68,85.4c0.32,0,0.62-0.09,0.91-0.26s0.5-0.4,0.63-0.66v-1.89h-0.73
			c-0.62,0.01-1.1,0.15-1.46,0.41c-0.36,0.27-0.53,0.64-0.53,1.12c0,0.45,0.09,0.78,0.27,0.98S190.25,85.4,190.68,85.4z"/>
		<path class="st8" d="M201.26,82.86c0,1.24-0.22,2.17-0.67,2.79s-1.09,0.94-1.93,0.94c-0.84,0-1.47-0.36-1.89-1.08l-0.07,0.94
			h-1.18V75.19h1.29v4.2c0.42-0.68,1.04-1.02,1.83-1.02c0.87,0,1.52,0.31,1.96,0.92s0.65,1.54,0.66,2.78V82.86z M199.97,82.11
			c0-0.94-0.13-1.6-0.39-2c-0.26-0.4-0.69-0.6-1.27-0.6c-0.67,0-1.17,0.36-1.49,1.08v3.77c0.32,0.71,0.83,1.07,1.51,1.07
			c0.59,0,1.01-0.2,1.26-0.61s0.38-1.05,0.39-1.91V82.11z"/>
		<path class="st8" d="M202.64,82.11c0-1.15,0.28-2.06,0.84-2.74c0.56-0.67,1.3-1.01,2.22-1.01s1.66,0.33,2.22,0.98
			c0.56,0.65,0.85,1.55,0.86,2.67v0.83c0,1.15-0.28,2.06-0.83,2.72s-1.3,1-2.23,1c-0.92,0-1.65-0.32-2.21-0.97
			c-0.55-0.65-0.84-1.53-0.86-2.64V82.11z M203.94,82.86c0,0.82,0.16,1.46,0.48,1.92s0.75,0.7,1.29,0.7c1.14,0,1.73-0.83,1.77-2.48
			v-0.89c0-0.81-0.16-1.45-0.48-1.92c-0.32-0.47-0.75-0.71-1.3-0.71c-0.53,0-0.96,0.24-1.28,0.71c-0.32,0.47-0.48,1.11-0.48,1.91
			V82.86z"/>
		<path class="st8" d="M213.72,79.73c-0.18-0.03-0.38-0.05-0.59-0.05c-0.66,0-1.13,0.36-1.39,1.09v5.67h-1.3v-7.92h1.26l0.02,0.8
			c0.35-0.63,0.84-0.95,1.47-0.95c0.21,0,0.38,0.03,0.51,0.1L213.72,79.73z"/>
		<path class="st8" d="M218.79,86.44c-0.08-0.17-0.13-0.46-0.17-0.86c-0.46,0.67-1.04,1.01-1.76,1.01c-0.72,0-1.28-0.2-1.68-0.6
			c-0.4-0.4-0.6-0.97-0.6-1.7c0-0.81,0.27-1.45,0.82-1.92s1.3-0.72,2.25-0.73h0.95v-0.84c0-0.47-0.1-0.81-0.31-1.01
			s-0.53-0.3-0.96-0.3c-0.39,0-0.71,0.12-0.95,0.35s-0.37,0.53-0.37,0.88h-1.3c0-0.41,0.12-0.79,0.36-1.16
			c0.24-0.37,0.56-0.66,0.97-0.87s0.86-0.31,1.35-0.31c0.81,0,1.43,0.2,1.85,0.6c0.42,0.4,0.64,0.99,0.65,1.76v4
			c0,0.61,0.09,1.14,0.25,1.59v0.12H218.79z M217.06,85.4c0.32,0,0.62-0.09,0.91-0.26s0.5-0.4,0.63-0.66v-1.89h-0.73
			c-0.62,0.01-1.1,0.15-1.46,0.41c-0.36,0.27-0.53,0.64-0.53,1.12c0,0.45,0.09,0.78,0.27,0.98S216.63,85.4,217.06,85.4z"/>
		<path class="st8" d="M224.65,85.48c0.43,0,0.77-0.13,1.03-0.4c0.26-0.27,0.4-0.65,0.42-1.14h1.22c-0.03,0.76-0.3,1.39-0.81,1.89
			s-1.13,0.75-1.87,0.75c-0.98,0-1.73-0.31-2.25-0.93s-0.77-1.54-0.77-2.76v-0.87c0-1.2,0.26-2.11,0.77-2.73s1.26-0.93,2.24-0.93
			c0.81,0,1.45,0.26,1.93,0.77c0.48,0.51,0.73,1.21,0.76,2.1h-1.22c-0.03-0.59-0.17-1.03-0.42-1.32s-0.6-0.44-1.04-0.44
			c-0.58,0-1,0.19-1.28,0.57c-0.28,0.38-0.42,1-0.43,1.87v1.01c0,0.93,0.14,1.59,0.41,1.98C223.62,85.28,224.06,85.48,224.65,85.48z
			"/>
		<path class="st8" d="M230.33,76.41c0,0.22-0.06,0.4-0.18,0.55s-0.31,0.22-0.56,0.22c-0.24,0-0.43-0.07-0.55-0.22
			s-0.18-0.33-0.18-0.55s0.06-0.41,0.18-0.56s0.31-0.23,0.55-0.23s0.43,0.08,0.55,0.23C230.27,76.01,230.33,76.2,230.33,76.41z
			 M230.23,86.44h-1.3v-7.92h1.3V86.44z"/>
		<path class="st8" d="M231.99,82.11c0-1.15,0.28-2.06,0.84-2.74c0.56-0.67,1.3-1.01,2.22-1.01s1.66,0.33,2.22,0.98
			c0.56,0.65,0.85,1.55,0.86,2.67v0.83c0,1.15-0.28,2.06-0.83,2.72s-1.3,1-2.23,1c-0.92,0-1.65-0.32-2.21-0.97
			c-0.55-0.65-0.84-1.53-0.86-2.64V82.11z M233.29,82.86c0,0.82,0.16,1.46,0.48,1.92s0.75,0.7,1.29,0.7c1.14,0,1.73-0.83,1.77-2.48
			v-0.89c0-0.81-0.16-1.45-0.48-1.92c-0.32-0.47-0.75-0.71-1.3-0.71c-0.53,0-0.96,0.24-1.28,0.71c-0.32,0.47-0.48,1.11-0.48,1.91
			V82.86z M235.65,75.19h1.64l-1.96,2.15l-1.09,0L235.65,75.19z"/>
		<path class="st8" d="M241.01,78.51l0.04,0.86c0.5-0.67,1.15-1,1.93-1c1.4,0,2.11,0.93,2.13,2.8v5.27h-1.29v-5.21
			c0-0.62-0.1-1.06-0.31-1.32c-0.21-0.26-0.52-0.39-0.93-0.39c-0.32,0-0.61,0.11-0.87,0.32c-0.26,0.21-0.46,0.5-0.62,0.84v5.76h-1.3
			v-7.92H241.01z"/>
		<path class="st8" d="M256.21,82.86c0,1.25-0.23,2.19-0.68,2.81s-1.09,0.92-1.92,0.92c-0.8,0-1.41-0.3-1.84-0.9v3.8h-1.29V78.51
			h1.17l0.07,0.88c0.43-0.68,1.06-1.03,1.87-1.03c0.87,0,1.52,0.3,1.95,0.91s0.65,1.51,0.67,2.72V82.86z M254.92,82.12
			c0-0.89-0.14-1.54-0.41-1.97s-0.71-0.63-1.32-0.63c-0.62,0-1.09,0.31-1.41,0.93v4.12c0.32,0.61,0.79,0.91,1.43,0.91
			c0.59,0,1.02-0.21,1.29-0.63c0.28-0.42,0.42-1.07,0.42-1.94V82.12z"/>
		<path class="st8" d="M261.16,79.73c-0.18-0.03-0.38-0.05-0.59-0.05c-0.66,0-1.13,0.36-1.39,1.09v5.67h-1.3v-7.92h1.26l0.02,0.8
			c0.35-0.63,0.84-0.95,1.47-0.95c0.21,0,0.38,0.03,0.51,0.1L261.16,79.73z"/>
		<path class="st8" d="M262.03,82.11c0-1.15,0.28-2.06,0.84-2.74c0.56-0.67,1.3-1.01,2.22-1.01s1.66,0.33,2.22,0.98
			c0.56,0.65,0.85,1.55,0.86,2.67v0.83c0,1.15-0.28,2.06-0.83,2.72s-1.3,1-2.23,1c-0.92,0-1.65-0.32-2.21-0.97
			c-0.55-0.65-0.84-1.53-0.86-2.64V82.11z M263.32,82.86c0,0.82,0.16,1.46,0.48,1.92s0.75,0.7,1.29,0.7c1.14,0,1.73-0.83,1.77-2.48
			v-0.89c0-0.81-0.16-1.45-0.48-1.92c-0.32-0.47-0.75-0.71-1.3-0.71c-0.53,0-0.96,0.24-1.28,0.71c-0.32,0.47-0.48,1.11-0.48,1.91
			V82.86z"/>
		<path class="st8" d="M275.55,82.86c0,1.25-0.23,2.19-0.68,2.81s-1.09,0.92-1.92,0.92c-0.8,0-1.41-0.3-1.84-0.9v3.8h-1.29V78.51
			h1.17l0.07,0.88c0.43-0.68,1.06-1.03,1.87-1.03c0.87,0,1.52,0.3,1.95,0.91s0.65,1.51,0.67,2.72V82.86z M274.27,82.12
			c0-0.89-0.14-1.54-0.41-1.97s-0.71-0.63-1.32-0.63c-0.62,0-1.09,0.31-1.41,0.93v4.12c0.32,0.61,0.79,0.91,1.43,0.91
			c0.59,0,1.02-0.21,1.29-0.63c0.28-0.42,0.42-1.07,0.42-1.94V82.12z"/>
		<path class="st8" d="M278.73,76.41c0,0.22-0.06,0.4-0.18,0.55s-0.31,0.22-0.56,0.22c-0.24,0-0.43-0.07-0.55-0.22
			s-0.18-0.33-0.18-0.55s0.06-0.41,0.18-0.56s0.31-0.23,0.55-0.23s0.43,0.08,0.55,0.23C278.66,76.01,278.73,76.2,278.73,76.41z
			 M278.62,86.44h-1.3v-7.92h1.3V86.44z"/>
		<path class="st8" d="M284.74,86.44c-0.08-0.17-0.13-0.46-0.17-0.86c-0.46,0.67-1.04,1.01-1.76,1.01c-0.72,0-1.28-0.2-1.68-0.6
			c-0.4-0.4-0.6-0.97-0.6-1.7c0-0.81,0.27-1.45,0.82-1.92s1.3-0.72,2.25-0.73h0.95v-0.84c0-0.47-0.1-0.81-0.31-1.01
			s-0.53-0.3-0.96-0.3c-0.39,0-0.71,0.12-0.95,0.35s-0.37,0.53-0.37,0.88h-1.3c0-0.41,0.12-0.79,0.36-1.16
			c0.24-0.37,0.56-0.66,0.97-0.87s0.86-0.31,1.35-0.31c0.81,0,1.43,0.2,1.85,0.6c0.42,0.4,0.64,0.99,0.65,1.76v4
			c0,0.61,0.09,1.14,0.25,1.59v0.12H284.74z M283.01,85.4c0.32,0,0.62-0.09,0.91-0.26s0.5-0.4,0.63-0.66v-1.89h-0.73
			c-0.62,0.01-1.1,0.15-1.46,0.41c-0.36,0.27-0.53,0.64-0.53,1.12c0,0.45,0.09,0.78,0.27,0.98S282.58,85.4,283.01,85.4z"/>
	</g>
	<line class="st49" x1="-0.21" y1="106.3" x2="319.7" y2="106.3"/>
</g>
<g id="ai2html-settings">
</g>
</svg>
