<?xml version="1.0" encoding="utf-8"?>
<!-- Generator: Adobe Illustrator 23.0.5, SVG Export Plug-In . SVG Version: 6.00 Build 0)  -->
<svg version="1.1" xmlns="http://www.w3.org/2000/svg" xmlns:xlink="http://www.w3.org/1999/xlink" x="0px" y="0px"
	 viewBox="0 0 319.97 43.1" style="enable-background:new 0 0 319.97 43.1;" xml:space="preserve">
<style type="text/css">
	.st0{fill:#C7D2DA;}
	.st1{fill:#FFFFFF;}
	.st2{fill:none;stroke:#6AC3CC;stroke-miterlimit:10;}
	.st3{fill:#D2EBF8;}
	.st4{fill:#F3F9FD;}
	.st5{fill:#FFFFFF;stroke:#6AC3CC;stroke-miterlimit:10;}
	.st6{fill:#1D1D1B;}
	.st7{fill:none;}
	.st8{fill:#E50046;}
	.st9{fill:none;stroke:#1D1D1B;}
	.st10{fill:none;stroke:#E50046;stroke-width:0.5;}
	.st11{fill:none;stroke:#1D1D1B;stroke-width:0.5;}
	.st12{fill:none;stroke:#B1B1B1;stroke-width:2;stroke-linecap:round;stroke-linejoin:round;}
	.st13{fill:#B1B1B1;}
	.st14{fill:none;stroke:#FFD544;stroke-width:2;stroke-linecap:round;stroke-linejoin:round;}
	.st15{fill:#FFD544;}
	.st16{fill:#878787;}
	.st17{fill:#EBBD00;}
	.st18{fill:#D4B276;}
	.st19{fill:none;stroke:#878787;stroke-width:0.5;stroke-miterlimit:10;}
	.st20{fill:#B2B2B2;}
	.st21{fill:none;stroke:#797978;stroke-width:5;stroke-miterlimit:10;}
	.st22{fill:none;stroke:#1D1D1B;stroke-width:0.3;}
	.st23{fill:none;stroke:#1D1D1B;stroke-width:0.75;}
	.st24{fill:none;stroke:#1D1D1B;stroke-width:0.75;stroke-dasharray:0.754,2.0107;}
	.st25{fill:none;stroke:#1D1D1B;stroke-width:0.75;stroke-dasharray:0.75,2;}
	.st26{fill:#E9CEA4;}
	.st27{fill:#95CCE7;}
	.st28{fill:none;stroke:#1D1D1B;stroke-width:2.8284;stroke-linecap:round;stroke-linejoin:round;stroke-miterlimit:10;}
	.st29{fill:none;stroke:#1D1D1B;stroke-width:3.7712;stroke-linecap:round;stroke-linejoin:round;stroke-miterlimit:10;}
	.st30{fill:none;stroke:#1D1D1B;stroke-width:0.9428;stroke-linecap:round;stroke-linejoin:round;stroke-miterlimit:10;}
	.st31{fill:none;stroke:#1D1D1B;stroke-width:0.9428;stroke-linecap:round;stroke-linejoin:round;}
	.st32{fill:none;stroke:#FFFFFF;stroke-width:0.9428;stroke-linecap:round;stroke-linejoin:round;stroke-miterlimit:10;}
	.st33{fill:none;stroke:#E9CEA4;stroke-width:0.9428;stroke-linecap:round;stroke-linejoin:round;stroke-miterlimit:10;}
	.st34{fill:none;stroke:#1D1D1B;stroke-width:2.4513;stroke-linejoin:round;stroke-miterlimit:10;}
	.st35{clip-path:url(#SVGID_4_);}
	.st36{fill:#F08487;}
	.st37{clip-path:url(#SVGID_14_);}
	.st38{fill:#00A13A;}
	.st39{fill:#3395C1;}
	.st40{fill:#56B25B;}
	.st41{fill:#FFCC00;}
	.st42{fill:#E4E6E6;}
	.st43{fill:#F08487;stroke:#FFFFFF;stroke-width:0.5;}
	.st44{fill:#95CCE7;stroke:#FFFFFF;stroke-width:0.5;}
	.st45{fill:none;stroke:#1D1D1B;stroke-width:0.5;stroke-miterlimit:10;stroke-dasharray:0.5,1.2;}
	.st46{fill:none;stroke:#F08487;}
	.st47{fill:none;stroke:#1D1D1B;stroke-width:0.3;stroke-miterlimit:10;}
	.st48{fill:#FFCC00;stroke:#FFFFFF;stroke-width:0.5;}
	.st49{fill:#56B25B;stroke:#FFFFFF;stroke-width:0.5;stroke-miterlimit:10;}
	.st50{fill:none;stroke:#1D1D1B;stroke-width:0.5;stroke-miterlimit:10;}
	.st51{fill:none;stroke:#E5E5E5;stroke-width:2;}
	.st52{fill:#D4B388;}
	.st53{fill:#E9CEA3;}
	.st54{fill:#C4A880;}
	.st55{fill:none;stroke:#1D1D1B;stroke-width:0.7051;stroke-miterlimit:10;}
	.st56{fill:none;stroke:#1D1D1B;stroke-width:2.5062;stroke-linecap:round;stroke-linejoin:round;stroke-miterlimit:10;}
	.st57{fill:none;stroke:#1D1D1B;stroke-width:3.3416;stroke-linecap:round;stroke-linejoin:round;stroke-miterlimit:10;}
	.st58{fill:none;stroke:#E9CEA3;stroke-width:0.282;stroke-miterlimit:10;}
	.st59{fill:none;stroke:#1D1D1B;stroke-width:2.5448;stroke-linecap:round;stroke-linejoin:round;stroke-miterlimit:10;}
	.st60{fill:none;stroke:#1D1D1B;stroke-width:3.3931;stroke-linecap:round;stroke-linejoin:round;stroke-miterlimit:10;}
	.st61{fill:none;stroke:#1D1E1C;stroke-width:0.509;stroke-miterlimit:10;}
	.st62{fill:none;stroke:#1D1D1B;stroke-width:0.716;stroke-miterlimit:10;}
	.st63{fill:none;stroke:#1D1D1B;stroke-width:3.3651;stroke-linecap:round;stroke-linejoin:round;stroke-miterlimit:10;}
	.st64{fill:#E0C49C;}
	.st65{fill:none;stroke:#E9CEA3;stroke-width:0.716;stroke-miterlimit:10;}
	.st66{fill:#1D1D1B;stroke:#E9CEA3;stroke-width:0.716;stroke-miterlimit:10;}
	.st67{fill:none;stroke:#1D1D1B;stroke-width:2.5059;stroke-linecap:round;stroke-linejoin:round;}
	.st68{fill:#1D1D1B;stroke:#E9CEA3;stroke-width:0.4296;stroke-miterlimit:10;}
	.st69{fill:none;stroke:#E9CEA3;stroke-width:0.4296;stroke-miterlimit:10;}
	.st70{fill:none;stroke:#1D1D1B;stroke-width:2.6709;stroke-linecap:round;stroke-linejoin:round;stroke-miterlimit:10;}
	.st71{fill:none;stroke:#000000;stroke-width:0.5342;stroke-miterlimit:10;}
	.st72{fill:#1D1D1B;stroke:#E9CEA3;stroke-width:0.7514;stroke-miterlimit:10;}
	.st73{fill:none;stroke:#1D1D1B;stroke-width:2.6301;stroke-linecap:round;stroke-linejoin:round;}
	.st74{fill:none;stroke:#E9CEA3;stroke-width:0.7514;stroke-miterlimit:10;}
	.st75{fill:#D4B489;}
	.st76{fill:none;stroke:#1D1D1B;stroke-width:3.0206;stroke-linecap:round;stroke-linejoin:round;stroke-miterlimit:10;}
	.st77{fill:none;stroke:#1D1D1B;stroke-width:4.0275;stroke-linecap:round;stroke-linejoin:round;stroke-miterlimit:10;}
	.st78{fill:#000100;}
	.st79{fill:none;stroke:#1D1D1B;stroke-width:0.6041;stroke-miterlimit:10;}
	.st80{fill:none;stroke:#000000;stroke-width:0.6041;stroke-miterlimit:10;}
	.st81{fill:#E0C49D;}
	.st82{fill:none;stroke:#E9CEA4;stroke-width:0.8499;stroke-miterlimit:10;}
	.st83{fill:#1D1D1B;stroke:#E9CEA4;stroke-width:0.8499;stroke-miterlimit:10;}
	.st84{fill:none;stroke:#1D1D1B;stroke-width:2.9745;stroke-linecap:round;stroke-linejoin:round;}
	.st85{fill:none;stroke:#1D1D1B;stroke-width:1.7935;stroke-miterlimit:10;}
	.st86{fill:none;stroke:#1D1D1B;stroke-width:1.2683;stroke-miterlimit:10;}
	.st87{fill:#1D1D1B;stroke:#1D1E1C;stroke-width:0.3224;}
	.st88{fill:none;stroke:#1D1E1C;stroke-width:0.2149;}
	.st89{fill:none;stroke:#1D1E1C;stroke-width:0.2858;}
	.st90{fill:#E7B100;}
	.st91{fill:#CFD0D0;}
	.st92{fill:none;stroke:#1D1D1B;stroke-width:0.4988;}
	.st93{fill:none;stroke:#EBBD00;stroke-width:1.5;}
	.st94{fill:#56B25B;stroke:#FFFFFF;stroke-width:0.5;}
	.st95{fill:none;stroke:#E42421;}
	.st96{fill:#E42421;}
</style>
<g id="moviles">
</g>
<g id="capa_graficoooo">
	<g>
		<g>
			<rect x="2.19" y="10.05" class="st7" width="323.52" height="35.02"/>
			<path class="st6" d="M7.7,17.4H4.8v3.77H2.93v-9.24h5.12v1.56H4.8v2.37h2.9V17.4z"/>
			<path class="st6" d="M15.13,11.93v6.4c-0.01,0.96-0.27,1.7-0.79,2.21s-1.27,0.76-2.24,0.76c-0.99,0-1.75-0.26-2.27-0.77
				c-0.52-0.52-0.78-1.26-0.78-2.24v-6.35h1.88v6.36c0,0.53,0.08,0.9,0.25,1.12c0.17,0.22,0.48,0.34,0.92,0.34s0.75-0.11,0.91-0.33
				c0.17-0.22,0.25-0.59,0.25-1.1v-6.39H15.13z"/>
			<path class="st6" d="M21.32,17.17h-2.91v2.45h3.44v1.55h-5.31v-9.24h5.29v1.56h-3.43v2.18h2.91V17.17z"/>
			<path class="st6" d="M29.39,21.17h-1.87l-2.73-6.06v6.06h-1.87v-9.24h1.87L27.53,18v-6.07h1.86V21.17z"/>
			<path class="st6" d="M36.68,13.49H34.4v7.69h-1.87v-7.69h-2.25v-1.56h6.4V13.49z"/>
			<path class="st6" d="M42.53,17.17h-2.91v2.45h3.44v1.55h-5.31v-9.24h5.29v1.56h-3.43v2.18h2.91V17.17z"/>
			<path class="st6" d="M48.04,18.75c0-0.38-0.1-0.66-0.29-0.85c-0.19-0.19-0.54-0.39-1.05-0.6c-0.93-0.35-1.59-0.76-2-1.24
				c-0.41-0.47-0.61-1.03-0.61-1.67c0-0.78,0.28-1.4,0.83-1.88c0.55-0.47,1.25-0.71,2.1-0.71c0.57,0,1.07,0.12,1.52,0.36
				c0.44,0.24,0.79,0.58,1.02,1.01c0.24,0.44,0.36,0.93,0.36,1.49h-1.86c0-0.43-0.09-0.76-0.28-0.99c-0.18-0.23-0.45-0.34-0.8-0.34
				c-0.33,0-0.58,0.1-0.76,0.29s-0.27,0.45-0.27,0.78c0,0.25,0.1,0.48,0.3,0.69c0.2,0.21,0.56,0.42,1.08,0.64
				c0.9,0.33,1.56,0.73,1.96,1.2c0.41,0.47,0.61,1.08,0.61,1.81c0,0.8-0.26,1.43-0.77,1.89c-0.51,0.45-1.21,0.68-2.09,0.68
				c-0.6,0-1.14-0.12-1.63-0.37s-0.88-0.6-1.15-1.05c-0.28-0.46-0.42-1-0.42-1.62h1.87c0,0.53,0.1,0.92,0.31,1.16
				s0.55,0.36,1.02,0.36C47.72,19.78,48.04,19.44,48.04,18.75z"/>
			<path class="st6" d="M51.23,15.07c0-0.29,0.1-0.53,0.29-0.71c0.19-0.19,0.44-0.28,0.75-0.28c0.3,0,0.55,0.09,0.75,0.28
				c0.2,0.18,0.3,0.42,0.3,0.71c0,0.3-0.1,0.53-0.3,0.71c-0.2,0.18-0.45,0.27-0.75,0.27c-0.3,0-0.55-0.09-0.75-0.27
				C51.33,15.6,51.23,15.36,51.23,15.07z M51.23,20.26c0-0.29,0.1-0.52,0.29-0.71c0.19-0.19,0.44-0.28,0.75-0.28
				c0.3,0,0.55,0.09,0.75,0.28c0.2,0.18,0.3,0.42,0.3,0.71c0,0.3-0.1,0.53-0.3,0.71c-0.2,0.18-0.45,0.27-0.75,0.27
				c-0.3,0-0.55-0.09-0.75-0.27C51.33,20.79,51.23,20.55,51.23,20.26z"/>
			<path class="st6" d="M58.59,11.3l0.63,0.46c-0.33,0.55-0.51,1.12-0.52,1.73v0.88h-1.11v-0.74c0-0.43,0.09-0.86,0.28-1.29
				S58.3,11.56,58.59,11.3z"/>
			<path class="st6" d="M64.91,16.9h-3.27v3.28h3.81v1h-4.97v-9.24h4.91v1h-3.75v2.98h3.27V16.9z"/>
			<path class="st6" d="M67.99,21.17h-1.12v-9.75h1.12V21.17z"/>
			<path class="st6" d="M73.86,15.01c0.43-0.55,0.97-0.83,1.64-0.83c1.21,0,1.83,0.81,1.85,2.43v4.56h-1.12v-4.51
				c0-0.54-0.09-0.92-0.27-1.15c-0.18-0.23-0.45-0.34-0.81-0.34c-0.28,0-0.53,0.09-0.75,0.28c-0.22,0.19-0.4,0.43-0.54,0.73v4.99
				h-1.12v-9.75h1.12V15.01z"/>
			<path class="st6" d="M78.78,17.42c0-1,0.24-1.79,0.73-2.37c0.48-0.58,1.12-0.87,1.92-0.87s1.44,0.28,1.92,0.85
				c0.48,0.57,0.73,1.34,0.75,2.32v0.72c0,1-0.24,1.78-0.72,2.36c-0.48,0.58-1.13,0.87-1.93,0.87c-0.8,0-1.43-0.28-1.91-0.84
				c-0.48-0.56-0.73-1.32-0.75-2.29V17.42z M79.9,18.07c0,0.71,0.14,1.26,0.42,1.67c0.28,0.4,0.65,0.61,1.12,0.61
				c0.99,0,1.5-0.72,1.53-2.15v-0.77c0-0.7-0.14-1.26-0.42-1.67c-0.28-0.41-0.65-0.61-1.12-0.61c-0.46,0-0.83,0.2-1.11,0.61
				c-0.28,0.41-0.42,0.96-0.42,1.66V18.07z"/>
			<path class="st6" d="M86.6,14.3l0.03,0.63c0.42-0.51,0.97-0.76,1.66-0.76c0.77,0,1.3,0.33,1.61,1c0.43-0.66,1.03-1,1.8-1
				c1.27,0,1.91,0.79,1.94,2.37v4.63h-1.12v-4.52c0-0.5-0.09-0.87-0.27-1.11c-0.18-0.24-0.48-0.37-0.9-0.37
				c-0.34,0-0.61,0.13-0.83,0.39c-0.21,0.26-0.33,0.6-0.37,1v4.6h-1.13V16.6c-0.01-0.95-0.4-1.43-1.16-1.43
				c-0.57,0-0.97,0.28-1.2,0.85v5.15h-1.12V14.3H86.6z"/>
			<path class="st6" d="M100.29,18.07c0,1.07-0.19,1.88-0.58,2.42s-0.94,0.81-1.68,0.81c-0.73,0-1.27-0.31-1.64-0.94l-0.06,0.81
				h-1.02v-9.75h1.12v3.64c0.37-0.59,0.9-0.88,1.59-0.88c0.75,0,1.32,0.27,1.69,0.8s0.57,1.34,0.57,2.41V18.07z M99.18,17.42
				c0-0.81-0.11-1.39-0.34-1.73c-0.23-0.34-0.59-0.52-1.1-0.52c-0.58,0-1.01,0.31-1.29,0.94v3.26c0.28,0.62,0.72,0.93,1.31,0.93
				c0.51,0,0.87-0.18,1.09-0.53c0.22-0.35,0.33-0.91,0.34-1.66V17.42z"/>
			<path class="st6" d="M104.57,15.36c-0.16-0.03-0.33-0.04-0.51-0.04c-0.58,0-0.98,0.31-1.21,0.95v4.91h-1.12V14.3h1.09l0.02,0.7
				c0.3-0.55,0.73-0.83,1.28-0.83c0.18,0,0.33,0.03,0.44,0.09L104.57,15.36z"/>
			<path class="st6" d="M108.02,21.3c-0.85,0-1.51-0.25-1.97-0.76s-0.69-1.26-0.7-2.24v-0.83c0-1.02,0.22-1.83,0.67-2.41
				c0.45-0.58,1.07-0.87,1.87-0.87c0.8,0,1.4,0.26,1.8,0.77c0.4,0.51,0.6,1.31,0.61,2.39v0.74h-3.83v0.16
				c0,0.74,0.14,1.27,0.42,1.61c0.28,0.33,0.68,0.5,1.2,0.5c0.33,0,0.62-0.06,0.87-0.19c0.25-0.12,0.49-0.32,0.71-0.59l0.58,0.71
				C109.76,20.96,109.02,21.3,108.02,21.3z M107.89,15.14c-0.47,0-0.81,0.16-1.03,0.48s-0.35,0.82-0.38,1.49h2.7v-0.15
				c-0.03-0.65-0.15-1.12-0.35-1.4C108.62,15.28,108.31,15.14,107.89,15.14z"/>
			<path class="st6" d="M114.39,17.43c0-1.07,0.19-1.88,0.58-2.43c0.39-0.55,0.97-0.82,1.74-0.82c0.66,0,1.18,0.27,1.55,0.8
				l0.05-0.67h1.03v9.51h-1.12v-3.24c-0.36,0.49-0.87,0.73-1.51,0.73c-0.74,0-1.31-0.27-1.71-0.81c-0.4-0.54-0.6-1.33-0.61-2.36
				V17.43z M115.52,18.07c0,0.77,0.12,1.34,0.36,1.71c0.24,0.37,0.61,0.56,1.13,0.56c0.52,0,0.93-0.25,1.22-0.76V15.9
				c-0.3-0.51-0.71-0.76-1.21-0.76c-0.52,0-0.89,0.19-1.13,0.56c-0.24,0.37-0.36,0.93-0.36,1.68V18.07z"/>
			<path class="st6" d="M124.64,20.57c-0.37,0.49-0.92,0.73-1.63,0.73c-0.62,0-1.09-0.21-1.41-0.64c-0.32-0.43-0.48-1.05-0.48-1.88
				V14.3h1.12v4.39c0,1.07,0.32,1.61,0.96,1.61c0.68,0,1.15-0.3,1.41-0.91V14.3h1.12v6.87h-1.07L124.64,20.57z"/>
			<path class="st6" d="M129.87,21.3c-0.85,0-1.51-0.25-1.97-0.76s-0.69-1.26-0.7-2.24v-0.83c0-1.02,0.22-1.83,0.67-2.41
				c0.45-0.58,1.07-0.87,1.87-0.87c0.8,0,1.4,0.26,1.8,0.77c0.4,0.51,0.6,1.31,0.61,2.39v0.74h-3.83v0.16
				c0,0.74,0.14,1.27,0.42,1.61c0.28,0.33,0.68,0.5,1.2,0.5c0.33,0,0.62-0.06,0.87-0.19c0.25-0.12,0.49-0.32,0.71-0.59l0.58,0.71
				C131.62,20.96,130.87,21.3,129.87,21.3z M129.75,15.14c-0.47,0-0.81,0.16-1.03,0.48s-0.35,0.82-0.38,1.49h2.7v-0.15
				c-0.03-0.65-0.15-1.12-0.35-1.4C130.48,15.28,130.17,15.14,129.75,15.14z"/>
			<path class="st6" d="M137.54,14.3l0.03,0.63c0.42-0.51,0.97-0.76,1.66-0.76c0.77,0,1.3,0.33,1.61,1c0.43-0.66,1.03-1,1.8-1
				c1.27,0,1.91,0.79,1.94,2.37v4.63h-1.12v-4.52c0-0.5-0.09-0.87-0.27-1.11c-0.18-0.24-0.48-0.37-0.9-0.37
				c-0.34,0-0.61,0.13-0.83,0.39c-0.21,0.26-0.33,0.6-0.37,1v4.6h-1.13V16.6c-0.01-0.95-0.4-1.43-1.16-1.43
				c-0.57,0-0.97,0.28-1.2,0.85v5.15h-1.12V14.3H137.54z"/>
			<path class="st6" d="M149.8,21.17c-0.07-0.15-0.12-0.4-0.15-0.75c-0.4,0.58-0.91,0.88-1.52,0.88c-0.62,0-1.11-0.17-1.46-0.52
				c-0.35-0.35-0.52-0.84-0.52-1.48c0-0.7,0.24-1.25,0.71-1.66c0.47-0.41,1.12-0.62,1.95-0.63h0.83v-0.73c0-0.41-0.09-0.7-0.27-0.88
				c-0.18-0.17-0.46-0.26-0.83-0.26c-0.34,0-0.61,0.1-0.83,0.3c-0.21,0.2-0.32,0.46-0.32,0.76h-1.12c0-0.35,0.1-0.69,0.31-1.01
				c0.21-0.32,0.49-0.57,0.84-0.75c0.35-0.18,0.74-0.27,1.17-0.27c0.7,0,1.24,0.17,1.6,0.52c0.37,0.35,0.55,0.86,0.56,1.53v3.46
				c0,0.53,0.08,0.99,0.22,1.38v0.1H149.8z M148.3,20.28c0.27,0,0.54-0.08,0.79-0.23s0.43-0.34,0.55-0.57v-1.64H149
				c-0.53,0.01-0.95,0.13-1.26,0.36s-0.46,0.55-0.46,0.97c0,0.39,0.08,0.67,0.23,0.85C147.67,20.19,147.93,20.28,148.3,20.28z"/>
			<path class="st6" d="M153.96,12.64v1.66H155v0.91h-1.03v4.26c0,0.27,0.04,0.48,0.13,0.62c0.09,0.14,0.24,0.21,0.46,0.21
				c0.15,0,0.3-0.03,0.45-0.08l-0.01,0.95c-0.25,0.08-0.51,0.13-0.78,0.13c-0.44,0-0.78-0.16-1.02-0.48
				c-0.23-0.32-0.35-0.77-0.35-1.35v-4.27h-1.05V14.3h1.05v-1.66H153.96z"/>
			<path class="st6" d="M155.97,17.42c0-1,0.24-1.79,0.73-2.37c0.48-0.58,1.12-0.87,1.92-0.87s1.44,0.28,1.92,0.85
				c0.48,0.57,0.73,1.34,0.75,2.32v0.72c0,1-0.24,1.78-0.72,2.36c-0.48,0.58-1.13,0.87-1.93,0.87c-0.8,0-1.43-0.28-1.91-0.84
				c-0.48-0.56-0.73-1.32-0.75-2.29V17.42z M157.09,18.07c0,0.71,0.14,1.26,0.42,1.67c0.28,0.4,0.65,0.61,1.12,0.61
				c0.99,0,1.5-0.72,1.53-2.15v-0.77c0-0.7-0.14-1.26-0.42-1.67c-0.28-0.41-0.65-0.61-1.12-0.61c-0.46,0-0.83,0.2-1.11,0.61
				c-0.28,0.41-0.42,0.96-0.42,1.66V18.07z M159.14,11.42h1.42l-1.7,1.87l-0.95,0L159.14,11.42z"/>
			<path class="st6" d="M169.24,21.17c-0.07-0.15-0.12-0.4-0.15-0.75c-0.4,0.58-0.91,0.88-1.52,0.88c-0.62,0-1.11-0.17-1.46-0.52
				c-0.35-0.35-0.52-0.84-0.52-1.48c0-0.7,0.24-1.25,0.71-1.66c0.47-0.41,1.12-0.62,1.95-0.63h0.83v-0.73c0-0.41-0.09-0.7-0.27-0.88
				c-0.18-0.17-0.46-0.26-0.83-0.26c-0.34,0-0.61,0.1-0.83,0.3c-0.21,0.2-0.32,0.46-0.32,0.76h-1.12c0-0.35,0.1-0.69,0.31-1.01
				c0.21-0.32,0.49-0.57,0.84-0.75c0.35-0.18,0.74-0.27,1.17-0.27c0.7,0,1.24,0.17,1.6,0.52c0.37,0.35,0.55,0.86,0.56,1.53v3.46
				c0,0.53,0.08,0.99,0.22,1.38v0.1H169.24z M167.74,20.28c0.27,0,0.54-0.08,0.79-0.23s0.43-0.34,0.55-0.57v-1.64h-0.63
				c-0.53,0.01-0.95,0.13-1.26,0.36s-0.46,0.55-0.46,0.97c0,0.39,0.08,0.67,0.23,0.85C167.11,20.19,167.37,20.28,167.74,20.28z"/>
			<path class="st6" d="M176.24,20.18h3.62v1h-4.79v-9.24h1.17V20.18z"/>
			<path class="st6" d="M182.39,12.48c0,0.19-0.05,0.35-0.16,0.48s-0.27,0.19-0.48,0.19c-0.21,0-0.37-0.06-0.48-0.19
				s-0.16-0.29-0.16-0.48c0-0.19,0.05-0.35,0.16-0.48c0.11-0.13,0.26-0.2,0.48-0.2s0.37,0.07,0.48,0.2
				C182.33,12.14,182.39,12.3,182.39,12.48z M182.3,21.17h-1.12V14.3h1.12V21.17z"/>
			<path class="st6" d="M189.04,18.07c0,1.07-0.19,1.88-0.58,2.42s-0.94,0.81-1.68,0.81c-0.73,0-1.27-0.31-1.64-0.94l-0.06,0.81
				h-1.02v-9.75h1.12v3.64c0.37-0.59,0.9-0.88,1.59-0.88c0.75,0,1.32,0.27,1.69,0.8s0.57,1.34,0.57,2.41V18.07z M187.92,17.42
				c0-0.81-0.11-1.39-0.34-1.73c-0.23-0.34-0.59-0.52-1.1-0.52c-0.58,0-1.01,0.31-1.29,0.94v3.26c0.28,0.62,0.72,0.93,1.31,0.93
				c0.51,0,0.87-0.18,1.09-0.53c0.22-0.35,0.33-0.91,0.34-1.66V17.42z"/>
			<path class="st6" d="M192.93,21.3c-0.85,0-1.51-0.25-1.97-0.76s-0.69-1.26-0.7-2.24v-0.83c0-1.02,0.22-1.83,0.67-2.41
				c0.45-0.58,1.07-0.87,1.87-0.87c0.8,0,1.4,0.26,1.8,0.77c0.4,0.51,0.6,1.31,0.61,2.39v0.74h-3.83v0.16
				c0,0.74,0.14,1.27,0.42,1.61c0.28,0.33,0.68,0.5,1.2,0.5c0.33,0,0.62-0.06,0.87-0.19c0.25-0.12,0.49-0.32,0.71-0.59l0.58,0.71
				C194.67,20.96,193.93,21.3,192.93,21.3z M192.81,15.14c-0.47,0-0.81,0.16-1.03,0.48s-0.35,0.82-0.38,1.49h2.7v-0.15
				c-0.03-0.65-0.15-1.12-0.35-1.4C193.54,15.28,193.22,15.14,192.81,15.14z"/>
			<path class="st6" d="M199.4,15.36c-0.16-0.03-0.33-0.04-0.51-0.04c-0.58,0-0.98,0.31-1.21,0.95v4.91h-1.12V14.3h1.09l0.02,0.7
				c0.3-0.55,0.73-0.83,1.28-0.83c0.18,0,0.33,0.03,0.44,0.09L199.4,15.36z"/>
			<path class="st6" d="M202.31,12.64v1.66h1.03v0.91h-1.03v4.26c0,0.27,0.04,0.48,0.13,0.62c0.09,0.14,0.24,0.21,0.46,0.21
				c0.15,0,0.3-0.03,0.45-0.08l-0.01,0.95c-0.25,0.08-0.51,0.13-0.78,0.13c-0.44,0-0.78-0.16-1.02-0.48
				c-0.23-0.32-0.35-0.77-0.35-1.35v-4.27h-1.05V14.3h1.05v-1.66H202.31z"/>
			<path class="st6" d="M206.55,19.31l1.25-5H209l-2.25,7.84c-0.17,0.59-0.41,1.04-0.72,1.34s-0.66,0.46-1.05,0.46
				c-0.15,0-0.35-0.03-0.58-0.1v-0.95l0.25,0.03c0.33,0,0.58-0.08,0.77-0.23c0.18-0.15,0.33-0.42,0.45-0.8l0.22-0.77l-2.02-6.81
				h1.23L206.55,19.31z"/>
			<path class="st6" d="M215.87,19.39l2.11-7.46h1.28l-2.88,9.24h-1.02l-2.87-9.24h1.27L215.87,19.39z"/>
			<path class="st6" d="M223.59,21.17c-0.07-0.15-0.12-0.4-0.15-0.75c-0.4,0.58-0.91,0.88-1.52,0.88c-0.62,0-1.11-0.17-1.46-0.52
				c-0.35-0.35-0.52-0.84-0.52-1.48c0-0.7,0.24-1.25,0.71-1.66c0.47-0.41,1.12-0.62,1.95-0.63h0.83v-0.73c0-0.41-0.09-0.7-0.27-0.88
				c-0.18-0.17-0.46-0.26-0.83-0.26c-0.34,0-0.61,0.1-0.83,0.3c-0.21,0.2-0.32,0.46-0.32,0.76h-1.12c0-0.35,0.1-0.69,0.31-1.01
				c0.21-0.32,0.49-0.57,0.84-0.75c0.35-0.18,0.74-0.27,1.17-0.27c0.7,0,1.24,0.17,1.6,0.52c0.37,0.35,0.55,0.86,0.56,1.53v3.46
				c0,0.53,0.08,0.99,0.22,1.38v0.1H223.59z M222.09,20.28c0.27,0,0.54-0.08,0.79-0.23s0.43-0.34,0.55-0.57v-1.64h-0.63
				c-0.53,0.01-0.95,0.13-1.26,0.36s-0.46,0.55-0.46,0.97c0,0.39,0.08,0.67,0.23,0.85C221.46,20.19,221.72,20.28,222.09,20.28z"/>
			<path class="st6" d="M227.5,21.17h-1.12v-9.75h1.12V21.17z"/>
			<path class="st6" d="M232.8,21.17c-0.07-0.15-0.12-0.4-0.15-0.75c-0.4,0.58-0.91,0.88-1.52,0.88c-0.62,0-1.11-0.17-1.46-0.52
				c-0.35-0.35-0.52-0.84-0.52-1.48c0-0.7,0.24-1.25,0.71-1.66c0.47-0.41,1.12-0.62,1.95-0.63h0.83v-0.73c0-0.41-0.09-0.7-0.27-0.88
				c-0.18-0.17-0.46-0.26-0.83-0.26c-0.34,0-0.61,0.1-0.83,0.3c-0.21,0.2-0.32,0.46-0.32,0.76h-1.12c0-0.35,0.1-0.69,0.31-1.01
				c0.21-0.32,0.49-0.57,0.84-0.75c0.35-0.18,0.74-0.27,1.17-0.27c0.7,0,1.24,0.17,1.6,0.52c0.37,0.35,0.55,0.86,0.56,1.53v3.46
				c0,0.53,0.08,0.99,0.22,1.38v0.1H232.8z M231.3,20.28c0.27,0,0.54-0.08,0.79-0.23s0.43-0.34,0.55-0.57v-1.64H232
				c-0.53,0.01-0.95,0.13-1.26,0.36s-0.46,0.55-0.46,0.97c0,0.39,0.08,0.67,0.23,0.85C230.66,20.19,230.93,20.28,231.3,20.28z"/>
			<path class="st6" d="M236.55,14.3l0.03,0.74c0.44-0.58,0.99-0.87,1.67-0.87c1.21,0,1.83,0.81,1.85,2.43v4.56h-1.12v-4.51
				c0-0.54-0.09-0.92-0.27-1.15c-0.18-0.23-0.45-0.34-0.81-0.34c-0.28,0-0.53,0.09-0.75,0.28c-0.22,0.19-0.4,0.43-0.54,0.73v4.99
				h-1.12V14.3H236.55z"/>
			<path class="st6" d="M244.16,20.34c0.37,0,0.67-0.12,0.9-0.35c0.22-0.23,0.35-0.56,0.37-0.99h1.06c-0.03,0.66-0.26,1.21-0.7,1.64
				c-0.44,0.43-0.98,0.65-1.62,0.65c-0.85,0-1.5-0.27-1.95-0.8c-0.45-0.54-0.67-1.33-0.67-2.39v-0.76c0-1.04,0.22-1.83,0.67-2.36
				c0.44-0.54,1.09-0.81,1.94-0.81c0.7,0,1.26,0.22,1.67,0.67c0.41,0.45,0.63,1.05,0.66,1.82h-1.06c-0.03-0.51-0.15-0.89-0.36-1.14
				c-0.22-0.25-0.52-0.38-0.9-0.38c-0.5,0-0.87,0.16-1.11,0.49s-0.37,0.87-0.37,1.62v0.88c0,0.81,0.12,1.38,0.36,1.71
				C243.27,20.17,243.65,20.34,244.16,20.34z"/>
			<path class="st6" d="M250.24,21.3c-0.85,0-1.51-0.25-1.97-0.76s-0.69-1.26-0.7-2.24v-0.83c0-1.02,0.22-1.83,0.67-2.41
				c0.45-0.58,1.07-0.87,1.87-0.87c0.8,0,1.4,0.26,1.8,0.77c0.4,0.51,0.6,1.31,0.61,2.39v0.74h-3.83v0.16
				c0,0.74,0.14,1.27,0.42,1.61c0.28,0.33,0.68,0.5,1.2,0.5c0.33,0,0.62-0.06,0.87-0.19c0.25-0.12,0.49-0.32,0.71-0.59l0.58,0.71
				C251.98,20.96,251.24,21.3,250.24,21.3z M250.11,15.14c-0.47,0-0.81,0.16-1.03,0.48s-0.35,0.82-0.38,1.49h2.7v-0.15
				c-0.03-0.65-0.15-1.12-0.35-1.4C250.84,15.28,250.53,15.14,250.11,15.14z"/>
			<path class="st6" d="M253.51,14.53l-0.63-0.46c0.33-0.55,0.5-1.13,0.51-1.73v-0.93h1.11v0.86c-0.01,0.41-0.1,0.82-0.28,1.24
				C254.04,13.93,253.8,14.27,253.51,14.53z"/>
			<path class="st6" d="M258.85,17.42c0-1.11,0.15-2.15,0.45-3.13s0.73-1.83,1.28-2.57c0.33-0.44,0.66-0.77,0.96-0.98l0.22,0.77
				c-0.51,0.49-0.92,1.22-1.25,2.2s-0.5,2.07-0.53,3.27l-0.01,0.51c0,1.49,0.21,2.8,0.63,3.95c0.32,0.86,0.7,1.52,1.16,1.99
				l-0.22,0.72c-0.39-0.26-0.79-0.69-1.19-1.29C259.35,21.35,258.85,19.54,258.85,17.42z"/>
			<path class="st6" d="M266.29,11.93h1.17v6.54c0,0.88-0.23,1.58-0.68,2.08c-0.45,0.5-1.06,0.75-1.82,0.75
				c-0.78,0-1.39-0.24-1.83-0.71s-0.65-1.13-0.65-1.97h1.16c0,0.53,0.12,0.94,0.35,1.24c0.23,0.3,0.56,0.44,0.97,0.44
				c0.4,0,0.72-0.16,0.96-0.48c0.24-0.32,0.36-0.77,0.36-1.35V11.93z"/>
			<path class="st6" d="M269,17.42c0-1,0.24-1.79,0.73-2.37c0.48-0.58,1.12-0.87,1.92-0.87s1.44,0.28,1.92,0.85
				c0.48,0.57,0.73,1.34,0.75,2.32v0.72c0,1-0.24,1.78-0.72,2.36c-0.48,0.58-1.13,0.87-1.93,0.87c-0.8,0-1.43-0.28-1.91-0.84
				c-0.48-0.56-0.73-1.32-0.75-2.29V17.42z M270.12,18.07c0,0.71,0.14,1.26,0.42,1.67c0.28,0.4,0.65,0.61,1.12,0.61
				c0.99,0,1.5-0.72,1.53-2.15v-0.77c0-0.7-0.14-1.26-0.42-1.67c-0.28-0.41-0.65-0.61-1.12-0.61c-0.46,0-0.83,0.2-1.11,0.61
				c-0.28,0.41-0.42,0.96-0.42,1.66V18.07z"/>
			<path class="st6" d="M276.88,15.01c0.43-0.55,0.97-0.83,1.64-0.83c1.21,0,1.83,0.81,1.85,2.43v4.56h-1.12v-4.51
				c0-0.54-0.09-0.92-0.27-1.15c-0.18-0.23-0.45-0.34-0.81-0.34c-0.28,0-0.53,0.09-0.75,0.28c-0.22,0.19-0.4,0.43-0.54,0.73v4.99
				h-1.12v-9.75h1.12V15.01z"/>
			<path class="st6" d="M283.09,14.3l0.03,0.74c0.44-0.58,0.99-0.87,1.67-0.87c1.21,0,1.83,0.81,1.85,2.43v4.56h-1.12v-4.51
				c0-0.54-0.09-0.92-0.27-1.15c-0.18-0.23-0.45-0.34-0.81-0.34c-0.28,0-0.53,0.09-0.75,0.28c-0.22,0.19-0.4,0.43-0.54,0.73v4.99
				h-1.12V14.3H283.09z"/>
			<path class="st6" d="M295.75,17.09h-3.12v4.08h-1.16v-9.24h4.81v1h-3.65v3.17h3.12V17.09z"/>
			<path class="st6" d="M297.18,17.42c0-1,0.24-1.79,0.73-2.37c0.48-0.58,1.12-0.87,1.92-0.87s1.44,0.28,1.92,0.85
				c0.48,0.57,0.73,1.34,0.75,2.32v0.72c0,1-0.24,1.78-0.72,2.36c-0.48,0.58-1.13,0.87-1.93,0.87c-0.8,0-1.43-0.28-1.91-0.84
				c-0.48-0.56-0.73-1.32-0.75-2.29V17.42z M298.3,18.07c0,0.71,0.14,1.26,0.42,1.67c0.28,0.4,0.65,0.61,1.12,0.61
				c0.99,0,1.5-0.72,1.53-2.15v-0.77c0-0.7-0.14-1.26-0.42-1.67c-0.28-0.41-0.65-0.61-1.12-0.61c-0.46,0-0.83,0.2-1.11,0.61
				c-0.28,0.41-0.42,0.96-0.42,1.66V18.07z"/>
			<path class="st6" d="M306.78,15.36c-0.16-0.03-0.33-0.04-0.51-0.04c-0.58,0-0.98,0.31-1.21,0.95v4.91h-1.12V14.3h1.09l0.02,0.7
				c0.3-0.55,0.73-0.83,1.28-0.83c0.18,0,0.33,0.03,0.44,0.09L306.78,15.36z"/>
			<path class="st6" d="M307.54,17.43c0-1.06,0.2-1.86,0.59-2.42c0.4-0.55,0.96-0.83,1.7-0.83c0.66,0,1.17,0.27,1.54,0.8v-3.55h1.12
				v9.75h-1.03l-0.06-0.74c-0.37,0.58-0.9,0.86-1.58,0.86c-0.71,0-1.27-0.28-1.67-0.83c-0.4-0.55-0.61-1.33-0.62-2.34V17.43z
				 M308.66,18.06c0,0.77,0.11,1.33,0.34,1.7s0.6,0.54,1.12,0.54c0.56,0,0.98-0.28,1.25-0.84V16c-0.29-0.55-0.7-0.82-1.24-0.82
				c-0.52,0-0.89,0.18-1.12,0.54c-0.23,0.36-0.34,0.92-0.35,1.66V18.06z"/>
			<path class="st6" d="M316.64,17.48c0,1.89-0.42,3.56-1.27,5.01c-0.46,0.78-0.93,1.33-1.42,1.66l-0.22-0.72
				c0.53-0.51,0.96-1.29,1.29-2.35c0.33-1.05,0.49-2.2,0.5-3.46v-0.23c0-1.61-0.26-3.05-0.79-4.32c-0.29-0.69-0.62-1.24-1-1.63
				l0.22-0.72c0.47,0.31,0.92,0.83,1.35,1.54C316.2,13.76,316.64,15.49,316.64,17.48z"/>
			<path class="st6" d="M4.91,36.31l1.25-5h1.19l-2.25,7.84c-0.17,0.59-0.41,1.04-0.72,1.34s-0.66,0.46-1.05,0.46
				c-0.15,0-0.35-0.03-0.58-0.1v-0.95L3,39.92c0.33,0,0.58-0.08,0.77-0.23c0.18-0.15,0.33-0.42,0.45-0.8l0.22-0.77L2.41,31.3h1.23
				L4.91,36.31z"/>
			<path class="st6" d="M13.88,38.3c-0.85,0-1.51-0.25-1.97-0.76s-0.69-1.26-0.7-2.24v-0.83c0-1.02,0.22-1.83,0.67-2.41
				c0.45-0.58,1.07-0.87,1.87-0.87c0.8,0,1.4,0.26,1.8,0.77c0.4,0.51,0.6,1.31,0.61,2.39v0.74h-3.83v0.16
				c0,0.74,0.14,1.27,0.42,1.61c0.28,0.33,0.68,0.5,1.2,0.5c0.33,0,0.62-0.06,0.87-0.19c0.25-0.12,0.49-0.32,0.71-0.59l0.58,0.71
				C15.62,37.96,14.88,38.3,13.88,38.3z M13.75,32.14c-0.47,0-0.81,0.16-1.03,0.48s-0.35,0.82-0.38,1.49h2.7v-0.15
				c-0.03-0.65-0.15-1.12-0.35-1.4C14.48,32.28,14.17,32.14,13.75,32.14z"/>
			<path class="st6" d="M18.72,38.17H17.6v-9.75h1.12V38.17z"/>
			<path class="st6" d="M24.02,38.17c-0.07-0.15-0.12-0.4-0.15-0.75c-0.4,0.58-0.91,0.88-1.52,0.88c-0.62,0-1.11-0.17-1.46-0.52
				c-0.35-0.35-0.52-0.84-0.52-1.48c0-0.7,0.24-1.25,0.71-1.66c0.47-0.41,1.12-0.62,1.95-0.63h0.83v-0.73c0-0.41-0.09-0.7-0.27-0.88
				c-0.18-0.17-0.46-0.26-0.83-0.26c-0.34,0-0.61,0.1-0.83,0.3c-0.21,0.2-0.32,0.46-0.32,0.76h-1.12c0-0.35,0.1-0.69,0.31-1.01
				c0.21-0.32,0.49-0.57,0.84-0.75c0.35-0.18,0.74-0.27,1.17-0.27c0.7,0,1.24,0.17,1.6,0.52c0.37,0.35,0.55,0.86,0.56,1.53v3.46
				c0,0.53,0.08,0.99,0.22,1.38v0.1H24.02z M22.52,37.28c0.27,0,0.54-0.08,0.79-0.23s0.43-0.34,0.55-0.57v-1.64h-0.63
				c-0.53,0.01-0.95,0.13-1.26,0.36s-0.46,0.55-0.46,0.97c0,0.39,0.08,0.67,0.23,0.85C21.89,37.19,22.15,37.28,22.52,37.28z"/>
			<path class="st6" d="M31.69,35.07c0,1.07-0.19,1.88-0.58,2.42s-0.94,0.81-1.68,0.81c-0.73,0-1.27-0.31-1.64-0.94l-0.06,0.81
				h-1.02v-9.75h1.12v3.64c0.37-0.59,0.9-0.88,1.59-0.88c0.75,0,1.32,0.27,1.69,0.8c0.38,0.53,0.57,1.34,0.57,2.41V35.07z
				 M30.57,34.42c0-0.81-0.11-1.39-0.34-1.73c-0.23-0.34-0.59-0.52-1.1-0.52c-0.58,0-1.01,0.31-1.29,0.94v3.26
				c0.28,0.62,0.72,0.93,1.31,0.93c0.51,0,0.87-0.18,1.09-0.53c0.22-0.35,0.33-0.91,0.34-1.66V34.42z"/>
			<path class="st6" d="M32.89,34.42c0-1,0.24-1.79,0.73-2.37c0.48-0.58,1.12-0.87,1.92-0.87s1.44,0.28,1.92,0.85
				c0.48,0.57,0.73,1.34,0.75,2.32v0.72c0,1-0.24,1.78-0.72,2.36c-0.48,0.58-1.13,0.87-1.93,0.87c-0.8,0-1.43-0.28-1.91-0.84
				c-0.48-0.56-0.73-1.32-0.75-2.29V34.42z M34.01,35.07c0,0.71,0.14,1.26,0.42,1.67c0.28,0.4,0.65,0.61,1.12,0.61
				c0.99,0,1.5-0.72,1.53-2.15v-0.77c0-0.7-0.14-1.26-0.42-1.67c-0.28-0.41-0.65-0.61-1.12-0.61c-0.46,0-0.83,0.2-1.11,0.61
				c-0.28,0.41-0.42,0.96-0.42,1.66V35.07z"/>
			<path class="st6" d="M42.49,32.36c-0.16-0.03-0.33-0.04-0.51-0.04c-0.58,0-0.98,0.31-1.21,0.95v4.91h-1.12V31.3h1.09l0.02,0.7
				c0.3-0.55,0.73-0.83,1.28-0.83c0.18,0,0.33,0.03,0.44,0.09L42.49,32.36z"/>
			<path class="st6" d="M46.89,38.17c-0.07-0.15-0.12-0.4-0.15-0.75c-0.4,0.58-0.91,0.88-1.52,0.88c-0.62,0-1.11-0.17-1.46-0.52
				c-0.35-0.35-0.52-0.84-0.52-1.48c0-0.7,0.24-1.25,0.71-1.66c0.47-0.41,1.12-0.62,1.95-0.63h0.83v-0.73c0-0.41-0.09-0.7-0.27-0.88
				c-0.18-0.17-0.46-0.26-0.83-0.26c-0.34,0-0.61,0.1-0.83,0.3c-0.21,0.2-0.32,0.46-0.32,0.76h-1.12c0-0.35,0.1-0.69,0.31-1.01
				c0.21-0.32,0.49-0.57,0.84-0.75c0.35-0.18,0.74-0.27,1.17-0.27c0.7,0,1.24,0.17,1.6,0.52c0.37,0.35,0.55,0.86,0.56,1.53v3.46
				c0,0.53,0.08,0.99,0.22,1.38v0.1H46.89z M45.39,37.28c0.27,0,0.54-0.08,0.79-0.23s0.43-0.34,0.55-0.57v-1.64h-0.63
				c-0.53,0.01-0.95,0.13-1.26,0.36s-0.46,0.55-0.46,0.97c0,0.39,0.08,0.67,0.23,0.85C44.75,37.19,45.01,37.28,45.39,37.28z"/>
			<path class="st6" d="M51.96,37.34c0.37,0,0.67-0.12,0.9-0.35c0.22-0.23,0.35-0.56,0.37-0.99h1.06c-0.03,0.66-0.26,1.21-0.7,1.64
				c-0.44,0.43-0.98,0.65-1.62,0.65c-0.85,0-1.5-0.27-1.95-0.8c-0.45-0.54-0.67-1.33-0.67-2.39v-0.76c0-1.04,0.22-1.83,0.67-2.36
				c0.44-0.54,1.09-0.81,1.94-0.81c0.7,0,1.26,0.22,1.67,0.67c0.41,0.45,0.63,1.05,0.66,1.82h-1.06c-0.03-0.51-0.15-0.89-0.36-1.14
				c-0.22-0.25-0.52-0.38-0.9-0.38c-0.5,0-0.87,0.16-1.11,0.49s-0.37,0.87-0.37,1.62v0.88c0,0.81,0.12,1.38,0.36,1.71
				C51.07,37.17,51.45,37.34,51.96,37.34z"/>
			<path class="st6" d="M56.88,29.48c0,0.19-0.05,0.35-0.16,0.48s-0.27,0.19-0.48,0.19c-0.21,0-0.37-0.06-0.48-0.19
				s-0.16-0.29-0.16-0.48c0-0.19,0.05-0.35,0.16-0.48c0.11-0.13,0.26-0.2,0.48-0.2s0.37,0.07,0.48,0.2
				C56.83,29.14,56.88,29.3,56.88,29.48z M56.79,38.17h-1.12V31.3h1.12V38.17z"/>
			<path class="st6" d="M58.32,34.42c0-1,0.24-1.79,0.73-2.37c0.48-0.58,1.12-0.87,1.92-0.87s1.44,0.28,1.92,0.85
				c0.48,0.57,0.73,1.34,0.75,2.32v0.72c0,1-0.24,1.78-0.72,2.36c-0.48,0.58-1.13,0.87-1.93,0.87c-0.8,0-1.43-0.28-1.91-0.84
				c-0.48-0.56-0.73-1.32-0.75-2.29V34.42z M59.45,35.07c0,0.71,0.14,1.26,0.42,1.67c0.28,0.4,0.65,0.61,1.12,0.61
				c0.99,0,1.5-0.72,1.53-2.15v-0.77c0-0.7-0.14-1.26-0.42-1.67c-0.28-0.41-0.65-0.61-1.12-0.61c-0.46,0-0.83,0.2-1.11,0.61
				c-0.28,0.41-0.42,0.96-0.42,1.66V35.07z M61.5,28.42h1.42l-1.7,1.87l-0.95,0L61.5,28.42z"/>
			<path class="st6" d="M66.14,31.3l0.03,0.74c0.44-0.58,0.99-0.87,1.67-0.87c1.21,0,1.83,0.81,1.85,2.43v4.56h-1.12v-4.51
				c0-0.54-0.09-0.92-0.27-1.15c-0.18-0.23-0.45-0.34-0.81-0.34c-0.28,0-0.53,0.09-0.75,0.28c-0.22,0.19-0.4,0.43-0.54,0.73v4.99
				h-1.12V31.3H66.14z"/>
			<path class="st6" d="M79.32,35.07c0,1.09-0.2,1.9-0.59,2.43c-0.39,0.53-0.94,0.8-1.66,0.8c-0.69,0-1.22-0.26-1.59-0.78v3.29
				h-1.12V31.3h1.02l0.06,0.76c0.38-0.59,0.92-0.89,1.62-0.89c0.75,0,1.32,0.26,1.69,0.79c0.37,0.53,0.56,1.31,0.58,2.36V35.07z
				 M78.2,34.43c0-0.77-0.12-1.34-0.36-1.7s-0.62-0.55-1.14-0.55c-0.54,0-0.95,0.27-1.23,0.81v3.57c0.27,0.52,0.69,0.79,1.24,0.79
				c0.51,0,0.88-0.18,1.12-0.55c0.24-0.37,0.36-0.92,0.37-1.68V34.43z"/>
			<path class="st6" d="M83.6,32.36c-0.16-0.03-0.33-0.04-0.51-0.04c-0.58,0-0.98,0.31-1.21,0.95v4.91h-1.12V31.3h1.09l0.02,0.7
				c0.3-0.55,0.73-0.83,1.28-0.83c0.18,0,0.33,0.03,0.44,0.09L83.6,32.36z"/>
			<path class="st6" d="M84.36,34.42c0-1,0.24-1.79,0.73-2.37c0.48-0.58,1.12-0.87,1.92-0.87s1.44,0.28,1.92,0.85
				c0.48,0.57,0.73,1.34,0.75,2.32v0.72c0,1-0.24,1.78-0.72,2.36c-0.48,0.58-1.13,0.87-1.93,0.87c-0.8,0-1.43-0.28-1.91-0.84
				c-0.48-0.56-0.73-1.32-0.75-2.29V34.42z M85.48,35.07c0,0.71,0.14,1.26,0.42,1.67c0.28,0.4,0.65,0.61,1.12,0.61
				c0.99,0,1.5-0.72,1.53-2.15v-0.77c0-0.7-0.14-1.26-0.42-1.67c-0.28-0.41-0.65-0.61-1.12-0.61c-0.46,0-0.83,0.2-1.11,0.61
				c-0.28,0.41-0.42,0.96-0.42,1.66V35.07z"/>
			<path class="st6" d="M96.08,35.07c0,1.09-0.2,1.9-0.59,2.43c-0.39,0.53-0.94,0.8-1.66,0.8c-0.69,0-1.22-0.26-1.59-0.78v3.29
				h-1.12V31.3h1.02l0.06,0.76c0.38-0.59,0.92-0.89,1.62-0.89c0.75,0,1.32,0.26,1.69,0.79c0.37,0.53,0.56,1.31,0.58,2.36V35.07z
				 M94.96,34.43c0-0.77-0.12-1.34-0.36-1.7s-0.62-0.55-1.14-0.55c-0.54,0-0.95,0.27-1.23,0.81v3.57c0.27,0.52,0.69,0.79,1.24,0.79
				c0.51,0,0.88-0.18,1.12-0.55c0.24-0.37,0.36-0.92,0.37-1.68V34.43z"/>
			<path class="st6" d="M98.83,29.48c0,0.19-0.05,0.35-0.16,0.48s-0.27,0.19-0.48,0.19c-0.21,0-0.37-0.06-0.48-0.19
				s-0.16-0.29-0.16-0.48c0-0.19,0.05-0.35,0.16-0.48c0.11-0.13,0.26-0.2,0.48-0.2s0.37,0.07,0.48,0.2
				C98.77,29.14,98.83,29.3,98.83,29.48z M98.74,38.17h-1.12V31.3h1.12V38.17z"/>
			<path class="st6" d="M104.04,38.17c-0.07-0.15-0.12-0.4-0.15-0.75c-0.4,0.58-0.91,0.88-1.52,0.88c-0.62,0-1.11-0.17-1.46-0.52
				c-0.35-0.35-0.52-0.84-0.52-1.48c0-0.7,0.24-1.25,0.71-1.66c0.47-0.41,1.12-0.62,1.95-0.63h0.83v-0.73c0-0.41-0.09-0.7-0.27-0.88
				c-0.18-0.17-0.46-0.26-0.83-0.26c-0.34,0-0.61,0.1-0.83,0.3c-0.21,0.2-0.32,0.46-0.32,0.76h-1.12c0-0.35,0.1-0.69,0.31-1.01
				c0.21-0.32,0.49-0.57,0.84-0.75c0.35-0.18,0.74-0.27,1.17-0.27c0.7,0,1.24,0.17,1.6,0.52c0.37,0.35,0.55,0.86,0.56,1.53v3.46
				c0,0.53,0.08,0.99,0.22,1.38v0.1H104.04z M102.54,37.28c0.27,0,0.54-0.08,0.79-0.23s0.43-0.34,0.55-0.57v-1.64h-0.63
				c-0.53,0.01-0.95,0.13-1.26,0.36s-0.46,0.55-0.46,0.97c0,0.39,0.08,0.67,0.23,0.85C101.91,37.19,102.17,37.28,102.54,37.28z"/>
		</g>
		<line class="st50" x1="0.83" y1="0.79" x2="319.76" y2="0.79"/>
	</g>
</g>
<g id="ai2html-settings">
</g>
</svg>
